<svg xmlns="http://www.w3.org/2000/svg" width="100%" height="100%" preserveAspectRatio="xMidYMid meet" viewBox="0 0 300 44.41112518310547" overflow="visible"><defs id="SvgjsDefs1076"></defs><g id="SvgjsG1077" transform="scale(0.3407851690294439)" opacity="1"><g id="SvgjsG1078" class="K9LYwJyFic" transform="translate(0, 0) scale(1.3032)" light-content="false" non-strokable="false" fill="#ffffff"><rect width="100" height="100" rx="10"></rect></g><g id="SvgjsG1079" class="GGE7YRswUL" transform="translate(20.444012949453324, 20.849191037783363) scale(0.8944270815412728)" light-content="true" non-strokable="false" fill="#212121"><path d="M38.328 9.91v23.84h-27.5v55.422h78.328l.004-62.992zm45.844 74.262H66.25V63.75h-5v20.422H43.328v-67.41l40.828 13.07.004 54.34zM15.828 38.75h22.5v45.422h-22.5z"></path></g><g id="SvgjsG1080" class="text" transform="translate(303.35999328613275, 63.41) scale(1)" light-content="false" fill="#ffffff"><path d="M-131.46 -10.02L-131.46 -17.64L-117 -17.64L-117 -27.66L-131.46 -27.66L-131.46 -34.38L-113.88 -34.38L-113.88 -44.4L-143.04 -44.4L-143.04 0L-113.58 0L-113.58 -10.02Z M-86.1 0L-73.62 0L-84.15 -17.25C-81.81 -18.47 -80 -20.15 -78.72 -22.3C-77.44 -24.46 -76.8 -27.02 -76.8 -30C-76.8 -35.04 -78.37 -38.8 -81.53 -41.28C-84.67 -43.76 -89.42 -45 -95.76 -45C-100.18 -45 -104.66 -44.5 -109.2 -43.5L-109.2 0L-97.62 0L-97.62 -15.12C-97.2 -15.12 -96.33 -15.1 -95.01 -15.06ZM-97.62 -24.42L-97.62 -35.64C-96.56 -35.84 -95.38 -35.94 -94.08 -35.94C-92.1 -35.94 -90.58 -35.45 -89.5 -34.47C-88.43 -33.49 -87.9 -32 -87.9 -30C-87.9 -27.94 -88.44 -26.47 -89.52 -25.57C-90.6 -24.68 -92.2 -24.24 -94.32 -24.24C-95.44 -24.24 -96.54 -24.3 -97.62 -24.42Z M-48.66 0L-37.14 0L-48.06 -44.4L-65.7 -44.4L-76.62 0L-65.22 0L-62.91 -10.32L-51 -10.32ZM-60.69 -20.22L-57 -36.78L-53.25 -20.22Z M-31.17 -4.86C-27.51 -1.22 -22.18 0.6 -15.18 0.6C-13.6 0.6 -11.99 0.47 -10.36 0.21C-8.74 -0.05 -7.36 -0.4 -6.24 -0.84L-6.24 -10.68C-9.2 -9.76 -11.6 -9.3 -13.44 -9.3C-16.02 -9.3 -18.1 -9.69 -19.68 -10.48C-21.26 -11.28 -22.43 -12.6 -23.2 -14.47C-23.97 -16.34 -24.36 -18.92 -24.36 -22.2C-24.36 -25.36 -23.96 -27.88 -23.16 -29.77C-22.36 -31.66 -21.16 -33.03 -19.57 -33.85C-17.98 -34.68 -15.94 -35.1 -13.44 -35.1C-11.3 -35.1 -8.9 -34.82 -6.24 -34.26L-6.24 -44.1C-8.76 -44.7 -11.52 -45 -14.52 -45C-21.6 -45 -27.06 -43.08 -30.9 -39.25C-34.74 -35.43 -36.66 -29.7 -36.66 -22.08C-36.66 -14.24 -34.83 -8.5 -31.17 -4.86Z M4.62 -1.8C7.5 -0.2 10.9 0.6 14.82 0.6C18.74 0.6 22.14 -0.2 25.02 -1.8C27.9 -3.4 30.14 -5.89 31.74 -9.28C33.34 -12.67 34.14 -16.98 34.14 -22.2C34.14 -27.42 33.34 -31.72 31.74 -35.11C30.14 -38.5 27.9 -41 25.02 -42.6C22.14 -44.2 18.74 -45 14.82 -45C10.9 -45 7.5 -44.2 4.62 -42.6C1.74 -41 -0.5 -38.5 -2.1 -35.11C-3.7 -31.72 -4.5 -27.42 -4.5 -22.2C-4.5 -16.98 -3.7 -12.67 -2.1 -9.28C-0.5 -5.89 1.74 -3.4 4.62 -1.8ZM20.22 -12.07C19.02 -10.11 17.22 -9.12 14.82 -9.12C13.22 -9.12 11.9 -9.54 10.85 -10.39C9.8 -11.25 9 -12.64 8.45 -14.59C7.89 -16.54 7.62 -19.16 7.62 -22.44C7.62 -27.06 8.22 -30.35 9.42 -32.32C10.62 -34.29 12.42 -35.28 14.82 -35.28C16.42 -35.28 17.75 -34.86 18.8 -34C19.85 -33.15 20.65 -31.75 21.2 -29.8C21.74 -27.85 22.02 -25.24 22.02 -21.96C22.02 -17.34 21.42 -14.04 20.22 -12.07Z M38.4 0L66.72 0L66.72 -10.38L50.16 -10.38L50.16 -44.4L38.4 -44.4Z M76.38 -1.8C79.26 -0.2 82.66 0.6 86.58 0.6C90.5 0.6 93.9 -0.2 96.78 -1.8C99.66 -3.4 101.9 -5.89 103.5 -9.28C105.1 -12.67 105.9 -16.98 105.9 -22.2C105.9 -27.42 105.1 -31.72 103.5 -35.11C101.9 -38.5 99.66 -41 96.78 -42.6C93.9 -44.2 90.5 -45 86.58 -45C82.66 -45 79.26 -44.2 76.38 -42.6C73.5 -41 71.26 -38.5 69.66 -35.11C68.06 -31.72 67.26 -27.42 67.26 -22.2C67.26 -16.98 68.06 -12.67 69.66 -9.28C71.26 -5.89 73.5 -3.4 76.38 -1.8ZM91.98 -12.07C90.78 -10.11 88.98 -9.12 86.58 -9.12C84.98 -9.12 83.66 -9.54 82.61 -10.39C81.55 -11.25 80.76 -12.64 80.21 -14.59C79.65 -16.54 79.38 -19.16 79.38 -22.44C79.38 -27.06 79.98 -30.35 81.18 -32.32C82.38 -34.29 84.18 -35.28 86.58 -35.28C88.18 -35.28 89.51 -34.86 90.56 -34C91.61 -33.15 92.41 -31.75 92.96 -29.8C93.5 -27.85 93.78 -25.24 93.78 -21.96C93.78 -17.34 93.18 -14.04 91.98 -12.07Z M133.26 0L145.74 0L135.21 -17.25C137.55 -18.47 139.36 -20.15 140.64 -22.3C141.92 -24.46 142.56 -27.02 142.56 -30C142.56 -35.04 140.98 -38.8 137.83 -41.28C134.69 -43.76 129.94 -45 123.6 -45C119.18 -45 114.7 -44.5 110.16 -43.5L110.16 0L121.74 0L121.74 -15.12C122.16 -15.12 123.03 -15.1 124.35 -15.06ZM121.74 -24.42L121.74 -35.64C122.8 -35.84 123.98 -35.94 125.28 -35.94C127.26 -35.94 128.78 -35.45 129.85 -34.47C130.93 -33.49 131.46 -32 131.46 -30C131.46 -27.94 130.92 -26.47 129.84 -25.57C128.76 -24.68 127.16 -24.24 125.04 -24.24C123.92 -24.24 122.82 -24.3 121.74 -24.42Z"></path></g><g id="SvgjsG1081" class="text" transform="translate(520.0299914550781, 106.64999938964843) scale(1)" light-content="false" fill="#ffffff"><path d="M-359.71 0ZM-359.71 -1.85L-359.71 0L-352.05 0L-352.05 -1.85L-354.43 -2.26L-354.43 -19.06L-344.06 -19.06L-344.06 -2.26L-346.45 -1.85L-346.45 0L-338.79 0L-338.79 -1.85L-341.18 -2.26L-341.18 -19.06L-338.79 -19.47L-338.79 -21.33L-359.71 -21.33L-359.71 -19.47L-357.32 -19.06L-357.32 -2.26Z M-336.71 0ZM-326.91 -21.33L-334.32 -21.33L-336.71 -21.33L-336.71 -19.47L-334.32 -19.06L-334.32 -2.26L-336.71 -1.85L-336.71 0L-329.05 0L-329.05 -1.85L-331.44 -2.26L-331.44 -8.55L-326.91 -8.55C-324.63 -8.55 -322.86 -9.14 -321.6 -10.3C-320.33 -11.46 -319.7 -13.01 -319.7 -14.94C-319.7 -16.86 -320.33 -18.4 -321.6 -19.57C-322.86 -20.74 -324.63 -21.33 -326.91 -21.33ZM-331.44 -10.81L-331.44 -19.06L-326.91 -19.06C-325.46 -19.06 -324.38 -18.66 -323.66 -17.87C-322.95 -17.08 -322.59 -16.09 -322.59 -14.91C-322.59 -13.73 -322.95 -12.75 -323.66 -11.98C-324.38 -11.2 -325.46 -10.81 -326.91 -10.81Z M-317.53 0ZM-298.65 -10.5L-298.65 -10.81C-298.65 -13.91 -299.54 -16.48 -301.33 -18.54C-303.11 -20.61 -305.42 -21.64 -308.25 -21.64C-311 -21.64 -313.24 -20.61 -314.96 -18.54C-316.67 -16.48 -317.53 -13.91 -317.53 -10.81L-317.53 -10.5C-317.53 -7.4 -316.67 -4.82 -314.96 -2.77C-313.24 -0.72 -311 0.31 -308.25 0.31C-305.42 0.31 -303.11 -0.72 -301.33 -2.77C-299.54 -4.82 -298.65 -7.4 -298.65 -10.5ZM-301.54 -10.84L-301.54 -10.5C-301.54 -7.99 -302.12 -5.96 -303.3 -4.39C-304.47 -2.83 -306.12 -2.05 -308.25 -2.05C-310.26 -2.05 -311.83 -2.83 -312.96 -4.4C-314.08 -5.97 -314.65 -8 -314.65 -10.5L-314.65 -10.84C-314.65 -13.31 -314.08 -15.33 -312.96 -16.9C-311.83 -18.48 -310.26 -19.26 -308.25 -19.26C-306.15 -19.26 -304.5 -18.48 -303.32 -16.91C-302.13 -15.34 -301.54 -13.32 -301.54 -10.84Z M-288.74 -21.33L-291.12 -21.33L-294.01 -21.33L-296.4 -21.33L-296.4 -19.47L-294.01 -19.06L-294.01 -2.26L-296.4 -1.85L-296.4 0L-288.74 0L-288.74 -1.85L-291.12 -2.26L-291.12 -3.19L-280.87 -14.18L-280.78 -14.15L-280.78 -2.26L-283.17 -1.85L-283.17 0L-275.51 0L-275.51 -1.85L-277.9 -2.26L-277.9 -19.06L-275.51 -19.47L-275.51 -21.33L-277.9 -21.33L-280.78 -21.33L-283.17 -21.33L-283.17 -19.47L-280.78 -19.06L-280.78 -17.71L-291.04 -6.74L-291.12 -6.77L-291.12 -19.06L-288.74 -19.47Z M-258.41 -15.56C-258.41 -17.5 -259.09 -19 -260.43 -20.05C-261.78 -21.11 -263.62 -21.64 -265.96 -21.64C-267.58 -21.64 -269 -21.32 -270.23 -20.69C-271.46 -20.06 -272.38 -19.36 -272.99 -18.57L-272.99 -14.79L-270.97 -14.79L-270.41 -17.8C-269.97 -18.25 -269.4 -18.62 -268.71 -18.92C-268.02 -19.22 -267.19 -19.37 -266.24 -19.37C-264.58 -19.37 -263.34 -19.02 -262.52 -18.32C-261.71 -17.62 -261.3 -16.72 -261.3 -15.62C-261.3 -14.49 -261.66 -13.61 -262.38 -12.97C-263.11 -12.33 -264.22 -12.01 -265.72 -12.01L-268.12 -12.01L-268.12 -9.73L-265.72 -9.73C-264.16 -9.73 -262.98 -9.41 -262.18 -8.78C-261.38 -8.15 -260.98 -7.19 -260.98 -5.89C-260.98 -4.72 -261.42 -3.77 -262.3 -3.04C-263.19 -2.31 -264.4 -1.95 -265.96 -1.95C-267.31 -1.95 -268.42 -2.33 -269.28 -3.1C-270.14 -3.86 -270.57 -4.8 -270.57 -5.92L-273.33 -5.92L-273.35 -5.83C-273.4 -3.83 -272.69 -2.3 -271.22 -1.26C-269.75 -0.21 -268 0.31 -265.96 0.31C-263.61 0.31 -261.72 -0.25 -260.27 -1.35C-258.82 -2.46 -258.09 -3.99 -258.09 -5.95C-258.09 -7.17 -258.42 -8.2 -259.06 -9.05C-259.71 -9.9 -260.65 -10.53 -261.87 -10.94C-260.8 -11.41 -259.95 -12.05 -259.34 -12.86C-258.72 -13.67 -258.41 -14.57 -258.41 -15.56Z M-255.53 0ZM-246.18 -21.33L-253.14 -21.33L-255.53 -21.33L-255.53 -19.47L-253.14 -19.06L-253.14 -2.26L-255.53 -1.85L-255.53 0L-245.27 0C-243.11 0 -241.39 -0.52 -240.12 -1.55C-238.85 -2.58 -238.21 -4.07 -238.21 -6.02C-238.21 -7.33 -238.58 -8.48 -239.33 -9.46C-240.07 -10.45 -241.08 -11.08 -242.36 -11.35C-241.37 -11.71 -240.58 -12.27 -239.98 -13.02C-239.38 -13.76 -239.08 -14.61 -239.08 -15.56C-239.08 -17.48 -239.7 -18.92 -240.96 -19.89C-242.21 -20.85 -243.96 -21.33 -246.18 -21.33ZM-250.25 -10L-244.83 -10C-243.57 -10 -242.64 -9.65 -242.03 -8.94C-241.42 -8.22 -241.11 -7.24 -241.11 -5.99C-241.11 -4.8 -241.48 -3.88 -242.2 -3.23C-242.93 -2.58 -243.96 -2.26 -245.27 -2.26L-250.25 -2.26ZM-250.25 -12.26L-250.25 -19.06L-246.18 -19.06C-244.81 -19.06 -243.77 -18.77 -243.05 -18.2C-242.32 -17.63 -241.96 -16.77 -241.96 -15.62C-241.96 -14.58 -242.28 -13.77 -242.92 -13.18C-243.56 -12.6 -244.4 -12.29 -245.43 -12.26Z M-235.71 0ZM-216.83 -10.5L-216.83 -10.81C-216.83 -13.91 -217.72 -16.48 -219.5 -18.54C-221.28 -20.61 -223.59 -21.64 -226.42 -21.64C-229.17 -21.64 -231.41 -20.61 -233.13 -18.54C-234.85 -16.48 -235.71 -13.91 -235.71 -10.81L-235.71 -10.5C-235.71 -7.4 -234.85 -4.82 -233.13 -2.77C-231.41 -0.72 -229.17 0.31 -226.42 0.31C-223.59 0.31 -221.28 -0.72 -219.5 -2.77C-217.72 -4.82 -216.83 -7.4 -216.83 -10.5ZM-219.71 -10.84L-219.71 -10.5C-219.71 -7.99 -220.3 -5.96 -221.47 -4.39C-222.64 -2.83 -224.29 -2.05 -226.42 -2.05C-228.43 -2.05 -230 -2.83 -231.13 -4.4C-232.26 -5.97 -232.82 -8 -232.82 -10.5L-232.82 -10.84C-232.82 -13.31 -232.26 -15.33 -231.13 -16.9C-230 -18.48 -228.43 -19.26 -226.42 -19.26C-224.32 -19.26 -222.68 -18.48 -221.49 -16.91C-220.31 -15.34 -219.71 -13.32 -219.71 -10.84Z M-194.77 -21.33L-197.15 -21.33L-212.37 -21.33L-212.37 -19.47L-210.12 -19.07L-210.47 -12.7C-210.53 -9.88 -210.87 -7.65 -211.49 -6.01C-212.12 -4.37 -212.8 -3.12 -213.54 -2.26L-215.38 -2.26L-214.95 5.26L-212.49 5.26L-212.49 0L-197.11 0L-197.11 5.23L-194.52 5.23L-194.22 -2.26L-197.15 -2.26L-197.15 -19.06L-194.77 -19.47ZM-207.55 -12.7L-207.22 -19.06L-200.04 -19.06L-200.04 -2.26L-210.35 -2.26C-209.57 -3.36 -208.93 -4.79 -208.43 -6.56C-207.93 -8.33 -207.64 -10.38 -207.55 -12.7Z M-192.5 0ZM-175.96 -14.78L-175.96 -18.57C-176.57 -19.36 -177.5 -20.06 -178.73 -20.69C-179.96 -21.32 -181.38 -21.64 -183 -21.64C-185.83 -21.64 -188.12 -20.61 -189.87 -18.57C-191.62 -16.52 -192.5 -13.94 -192.5 -10.81L-192.5 -10.5C-192.5 -7.4 -191.61 -4.82 -189.83 -2.77C-188.05 -0.72 -185.78 0.31 -183 0.31C-181.38 0.31 -179.96 0 -178.73 -0.62C-177.5 -1.24 -176.57 -1.95 -175.96 -2.74L-175.96 -6.53L-177.99 -6.53L-178.54 -3.52C-178.96 -3.08 -179.58 -2.71 -180.37 -2.4C-181.16 -2.1 -182.04 -1.95 -183 -1.95C-185.07 -1.95 -186.69 -2.76 -187.86 -4.37C-189.03 -5.99 -189.61 -8.03 -189.61 -10.5L-189.61 -10.84C-189.61 -13.31 -189.01 -15.35 -187.82 -16.96C-186.63 -18.56 -184.93 -19.37 -182.71 -19.37C-181.76 -19.37 -180.95 -19.22 -180.26 -18.93C-179.58 -18.63 -179 -18.26 -178.54 -17.8L-177.99 -14.78Z M-174.07 0ZM-156.34 -21.33L-174.07 -21.33L-174.07 -16.61L-171.59 -16.61L-171.39 -19.06L-166.64 -19.06L-166.64 -2.26L-169.03 -1.85L-169.03 0L-161.37 0L-161.37 -1.85L-163.75 -2.26L-163.75 -19.06L-159.02 -19.06L-158.8 -16.61L-156.34 -16.61Z M-154.76 0ZM-145.42 -21.33L-152.37 -21.33L-154.76 -21.33L-154.76 -19.47L-152.37 -19.06L-152.37 -2.26L-154.76 -1.85L-154.76 0L-144.51 0C-142.34 0 -140.62 -0.52 -139.35 -1.55C-138.08 -2.58 -137.45 -4.07 -137.45 -6.02C-137.45 -7.33 -137.82 -8.48 -138.56 -9.46C-139.3 -10.45 -140.31 -11.08 -141.59 -11.35C-140.61 -11.71 -139.81 -12.27 -139.21 -13.02C-138.61 -13.76 -138.31 -14.61 -138.31 -15.56C-138.31 -17.48 -138.94 -18.92 -140.19 -19.89C-141.45 -20.85 -143.19 -21.33 -145.42 -21.33ZM-149.49 -10L-144.07 -10C-142.81 -10 -141.87 -9.65 -141.26 -8.94C-140.65 -8.22 -140.35 -7.24 -140.35 -5.99C-140.35 -4.8 -140.71 -3.88 -141.44 -3.23C-142.17 -2.58 -143.19 -2.26 -144.51 -2.26L-149.49 -2.26ZM-149.49 -12.26L-149.49 -19.06L-145.42 -19.06C-144.05 -19.06 -143 -18.77 -142.28 -18.2C-141.56 -17.63 -141.2 -16.77 -141.2 -15.62C-141.2 -14.58 -141.52 -13.77 -142.16 -13.18C-142.8 -12.6 -143.63 -12.29 -144.67 -12.26Z M-134.94 0ZM-116.06 -10.5L-116.06 -10.81C-116.06 -13.91 -116.95 -16.48 -118.73 -18.54C-120.52 -20.61 -122.82 -21.64 -125.65 -21.64C-128.41 -21.64 -130.64 -20.61 -132.36 -18.54C-134.08 -16.48 -134.94 -13.91 -134.94 -10.81L-134.94 -10.5C-134.94 -7.4 -134.08 -4.82 -132.36 -2.77C-130.64 -0.72 -128.41 0.31 -125.65 0.31C-122.82 0.31 -120.52 -0.72 -118.73 -2.77C-116.95 -4.82 -116.06 -7.4 -116.06 -10.5ZM-118.95 -10.84L-118.95 -10.5C-118.95 -7.99 -119.53 -5.96 -120.7 -4.39C-121.87 -2.83 -123.53 -2.05 -125.65 -2.05C-127.67 -2.05 -129.24 -2.83 -130.36 -4.4C-131.49 -5.97 -132.06 -8 -132.06 -10.5L-132.06 -10.84C-132.06 -13.31 -131.49 -15.33 -130.36 -16.9C-129.24 -18.48 -127.67 -19.26 -125.65 -19.26C-123.55 -19.26 -121.91 -18.48 -120.73 -16.91C-119.54 -15.34 -118.95 -13.32 -118.95 -10.84Z M-98.69 -21.33L-101.07 -21.33L-103.96 -21.33L-106.35 -21.33L-106.35 -19.47L-103.96 -19.06L-103.96 -2.26L-106.35 -1.85L-106.35 0L-98.69 0L-98.69 -1.85L-101.07 -2.26L-101.07 -3.19L-90.82 -14.18L-90.73 -14.15L-90.73 -2.26L-93.12 -1.85L-93.12 0L-85.46 0L-85.46 -1.85L-87.85 -2.26L-87.85 -19.06L-85.46 -19.47L-85.46 -21.33L-87.85 -21.33L-90.73 -21.33L-93.12 -21.33L-93.12 -19.47L-90.73 -19.06L-90.73 -17.71L-100.99 -6.74L-101.07 -6.77L-101.07 -19.06L-98.69 -19.47Z M-75.83 0ZM-75.83 -1.85L-75.83 0L-68.17 0L-68.17 -1.85L-70.56 -2.26L-70.56 -19.06L-60.19 -19.06L-60.19 -2.26L-62.58 -1.85L-62.58 0L-54.92 0L-54.92 -1.85L-57.3 -2.26L-57.3 -19.06L-54.92 -19.47L-54.92 -21.33L-75.83 -21.33L-75.83 -19.47L-73.45 -19.06L-73.45 -2.26Z M-52.84 0ZM-43.04 -21.33L-50.45 -21.33L-52.84 -21.33L-52.84 -19.47L-50.45 -19.06L-50.45 -2.26L-52.84 -1.85L-52.84 0L-45.18 0L-45.18 -1.85L-47.56 -2.26L-47.56 -8.55L-43.04 -8.55C-40.76 -8.55 -38.99 -9.14 -37.73 -10.3C-36.46 -11.46 -35.83 -13.01 -35.83 -14.94C-35.83 -16.86 -36.46 -18.4 -37.73 -19.57C-38.99 -20.74 -40.76 -21.33 -43.04 -21.33ZM-47.56 -10.81L-47.56 -19.06L-43.04 -19.06C-41.59 -19.06 -40.51 -18.66 -39.79 -17.87C-39.07 -17.08 -38.72 -16.09 -38.72 -14.91C-38.72 -13.73 -39.07 -12.75 -39.79 -11.98C-40.51 -11.2 -41.59 -10.81 -43.04 -10.81Z M-33.66 0ZM-14.78 -10.5L-14.78 -10.81C-14.78 -13.91 -15.67 -16.48 -17.45 -18.54C-19.24 -20.61 -21.54 -21.64 -24.37 -21.64C-27.13 -21.64 -29.37 -20.61 -31.08 -18.54C-32.8 -16.48 -33.66 -13.91 -33.66 -10.81L-33.66 -10.5C-33.66 -7.4 -32.8 -4.82 -31.08 -2.77C-29.37 -0.72 -27.13 0.31 -24.37 0.31C-21.54 0.31 -19.24 -0.72 -17.45 -2.77C-15.67 -4.82 -14.78 -7.4 -14.78 -10.5ZM-17.67 -10.84L-17.67 -10.5C-17.67 -7.99 -18.25 -5.96 -19.42 -4.39C-20.6 -2.83 -22.25 -2.05 -24.37 -2.05C-26.39 -2.05 -27.96 -2.83 -29.08 -4.4C-30.21 -5.97 -30.78 -8 -30.78 -10.5L-30.78 -10.84C-30.78 -13.31 -30.21 -15.33 -29.08 -16.9C-27.96 -18.48 -26.39 -19.26 -24.37 -19.26C-22.28 -19.26 -20.63 -18.48 -19.45 -16.91C-18.26 -15.34 -17.67 -13.32 -17.67 -10.84Z M7.28 -21.33L4.89 -21.33L-10.33 -21.33L-10.33 -19.47L-8.07 -19.07L-8.42 -12.7C-8.48 -9.88 -8.82 -7.65 -9.45 -6.01C-10.07 -4.37 -10.76 -3.12 -11.5 -2.26L-13.33 -2.26L-12.91 5.26L-10.44 5.26L-10.44 0L4.94 0L4.94 5.23L7.53 5.23L7.82 -2.26L4.89 -2.26L4.89 -19.06L7.28 -19.47ZM-5.51 -12.7L-5.17 -19.06L2.01 -19.06L2.01 -2.26L-8.31 -2.26C-7.52 -3.36 -6.88 -4.79 -6.39 -6.56C-5.89 -8.33 -5.6 -10.38 -5.51 -12.7Z M9.9 0ZM9.9 -1.85L9.9 0L16.01 0L16.01 -1.85L14.4 -2.12L15.85 -6.05L24.39 -6.05L25.8 -2.12L24.18 -1.85L24.18 0L30.31 0L30.31 -1.85L28.74 -2.07L21.42 -21.33L18.94 -21.33L11.48 -2.07ZM16.74 -8.47L20.11 -17.62L20.2 -17.62L23.51 -8.47Z M42.01 -9.29L44.68 -9.29L44.68 -2.26L42.29 -1.85L42.29 0L49.94 0L49.94 -1.85L47.55 -2.26L47.55 -9.29L50.11 -9.29L54.51 -2.04L53.36 -1.85L53.36 0L60.12 0L60.12 -1.85L57.98 -2.15L52.38 -11.02L56.47 -17.36C56.85 -17.93 57.21 -18.35 57.54 -18.6C57.87 -18.85 58.27 -18.97 58.74 -18.97C58.95 -18.97 59.15 -18.96 59.36 -18.93C59.57 -18.9 59.78 -18.86 59.99 -18.82L60.41 -20.84C60.1 -21.05 59.76 -21.21 59.4 -21.32C59.04 -21.43 58.62 -21.49 58.15 -21.49C57.32 -21.49 56.6 -21.29 55.99 -20.9C55.37 -20.51 54.73 -19.77 54.05 -18.66L49.8 -11.72L47.55 -11.72L47.55 -19.06L49.94 -19.47L49.94 -21.33L47.55 -21.33L42.29 -21.33L42.29 -19.47L44.68 -19.06L44.68 -11.72L42.6 -11.72L38.35 -18.66C37.67 -19.77 37.01 -20.51 36.39 -20.9C35.77 -21.29 35.06 -21.49 34.25 -21.49C33.77 -21.49 33.35 -21.43 32.99 -21.32C32.63 -21.21 32.29 -21.05 31.98 -20.84L32.4 -18.82C32.61 -18.86 32.81 -18.9 33.02 -18.93C33.23 -18.96 33.45 -18.97 33.66 -18.97C34.12 -18.97 34.52 -18.85 34.85 -18.6C35.18 -18.35 35.54 -17.93 35.92 -17.36L39.81 -11.15L34.13 -2.15L31.99 -1.85L31.99 0L38.76 0L38.76 -1.85L37.6 -2.04Z M61.77 0ZM61.77 -1.85L61.77 0L67.88 0L67.88 -1.85L66.27 -2.12L67.72 -6.05L76.26 -6.05L77.67 -2.12L76.05 -1.85L76.05 0L82.18 0L82.18 -1.85L80.61 -2.07L73.29 -21.33L70.81 -21.33L63.35 -2.07ZM68.61 -8.47L71.98 -17.62L72.07 -17.62L75.38 -8.47Z M91.44 0ZM112.28 -17.08L112 -8.44L112 -2.26L109.61 -1.85L109.61 0L117.28 0L117.28 -1.85L114.89 -2.26L114.89 -19.06L117.28 -19.47L117.28 -21.33L111.18 -21.33L104.4 -4L104.31 -4L97.51 -21.33L93.82 -21.33L91.44 -21.33L91.44 -19.47L93.82 -19.06L93.82 -2.26L91.44 -1.85L91.44 0L99.1 0L99.1 -1.85L96.71 -2.26L96.71 -8.44L96.42 -17.07L96.49 -17.08L103.39 0L105.31 0L112.21 -17.09Z M119.34 0ZM119.34 0L135.88 0L135.88 -5.11L133.42 -5.11L133.18 -2.26L124.61 -2.26L124.61 -9.89L132.77 -9.89L132.77 -12.16L124.61 -12.16L124.61 -19.06L133.01 -19.06L133.24 -16.2L135.72 -16.2L135.72 -21.33L119.34 -21.33L119.34 -19.47L121.73 -19.06L121.73 -2.26L119.34 -1.85Z M138.27 0ZM155.99 -21.33L138.27 -21.33L138.27 -16.61L140.74 -16.61L140.95 -19.06L145.69 -19.06L145.69 -2.26L143.31 -1.85L143.31 0L150.97 0L150.97 -1.85L148.58 -2.26L148.58 -19.06L153.31 -19.06L153.53 -16.61L155.99 -16.61Z M154.7 0ZM154.7 -1.85L154.7 0L160.81 0L160.81 -1.85L159.2 -2.12L160.65 -6.05L169.19 -6.05L170.6 -2.12L168.98 -1.85L168.98 0L175.11 0L175.11 -1.85L173.54 -2.07L166.22 -21.33L163.74 -21.33L156.28 -2.07ZM161.54 -8.47L164.91 -17.62L165 -17.62L168.31 -8.47Z M184.58 -19.06L191.95 -19.06L191.95 -2.26L189.57 -1.85L189.57 0L197.23 0L197.23 -1.85L194.84 -2.26L194.84 -19.06L197.23 -19.47L197.23 -21.33L179.43 -21.33L179.43 -19.47L181.71 -19.07L181.36 -11.28C181.22 -7.95 180.87 -5.61 180.33 -4.27C179.79 -2.93 178.86 -2.26 177.54 -2.26L176.95 -2.26L176.95 0L177.71 0C180.01 0 181.62 -0.88 182.56 -2.64C183.49 -4.39 184.05 -7.28 184.23 -11.28Z M206.98 -19.06L214.35 -19.06L214.35 -2.26L211.96 -1.85L211.96 0L219.62 0L219.62 -1.85L217.24 -2.26L217.24 -19.06L219.62 -19.47L219.62 -21.33L201.83 -21.33L201.83 -19.47L204.11 -19.07L203.76 -11.28C203.61 -7.95 203.27 -5.61 202.73 -4.27C202.19 -2.93 201.25 -2.26 199.94 -2.26L199.35 -2.26L199.35 0L200.11 0C202.41 0 204.02 -0.88 204.95 -2.64C205.89 -4.39 206.45 -7.28 206.63 -11.28Z M221.82 0ZM240.7 -10.5L240.7 -10.81C240.7 -13.91 239.81 -16.48 238.03 -18.54C236.25 -20.61 233.94 -21.64 231.11 -21.64C228.35 -21.64 226.12 -20.61 224.4 -18.54C222.68 -16.48 221.82 -13.91 221.82 -10.81L221.82 -10.5C221.82 -7.4 222.68 -4.82 224.4 -2.77C226.12 -0.72 228.35 0.31 231.11 0.31C233.94 0.31 236.25 -0.72 238.03 -2.77C239.81 -4.82 240.7 -7.4 240.7 -10.5ZM237.82 -10.84L237.82 -10.5C237.82 -7.99 237.23 -5.96 236.06 -4.39C234.89 -2.83 233.24 -2.05 231.11 -2.05C229.1 -2.05 227.53 -2.83 226.4 -4.4C225.27 -5.97 224.71 -8 224.71 -10.5L224.71 -10.84C224.71 -13.31 225.27 -15.33 226.4 -16.9C227.53 -18.48 229.1 -19.26 231.11 -19.26C233.21 -19.26 234.85 -18.48 236.04 -16.91C237.22 -15.34 237.82 -13.32 237.82 -10.84Z M242.87 -1.85L242.87 0L250.53 0L250.53 -1.85L248.14 -2.26L248.14 -9.29L250.9 -9.29L256.71 -2.05L255.09 -1.85L255.09 0L262.09 0L262.09 -1.85L260.08 -2.21L252.99 -10.97L257.58 -17.36C258 -17.94 258.37 -18.36 258.68 -18.6C259 -18.85 259.39 -18.97 259.85 -18.97C260.04 -18.97 260.24 -18.95 260.44 -18.92C260.64 -18.88 260.87 -18.84 261.14 -18.79L261.56 -20.83C261.21 -21.04 260.88 -21.21 260.56 -21.32C260.24 -21.43 259.85 -21.49 259.39 -21.49C258.62 -21.49 257.94 -21.29 257.36 -20.9C256.77 -20.5 256.08 -19.76 255.29 -18.66L250.47 -11.72L248.14 -11.72L248.14 -19.06L250.53 -19.47L250.53 -21.33L242.87 -21.33L242.87 -19.47L245.26 -19.06L245.26 -2.26Z M263.91 0ZM263.91 -1.85L263.91 0L270.01 0L270.01 -1.85L268.4 -2.12L269.85 -6.05L278.39 -6.05L279.8 -2.12L278.19 -1.85L278.19 0L284.31 0L284.31 -1.85L282.74 -2.07L275.42 -21.33L272.94 -21.33L265.49 -2.07ZM270.75 -8.47L274.12 -17.62L274.2 -17.62L277.51 -8.47Z M284.94 0ZM301.48 -14.78L301.48 -18.57C300.86 -19.36 299.94 -20.06 298.71 -20.69C297.48 -21.32 296.05 -21.64 294.43 -21.64C291.6 -21.64 289.31 -20.61 287.56 -18.57C285.82 -16.52 284.94 -13.94 284.94 -10.81L284.94 -10.5C284.94 -7.4 285.83 -4.82 287.61 -2.77C289.38 -0.72 291.66 0.31 294.43 0.31C296.05 0.31 297.48 0 298.71 -0.62C299.94 -1.24 300.86 -1.95 301.48 -2.74L301.48 -6.53L299.44 -6.53L298.9 -3.52C298.47 -3.08 297.86 -2.71 297.07 -2.4C296.28 -2.1 295.4 -1.95 294.43 -1.95C292.36 -1.95 290.74 -2.76 289.58 -4.37C288.41 -5.99 287.83 -8.03 287.83 -10.5L287.83 -10.84C287.83 -13.31 288.42 -15.35 289.61 -16.96C290.81 -18.56 292.51 -19.37 294.73 -19.37C295.67 -19.37 296.49 -19.22 297.17 -18.93C297.86 -18.63 298.43 -18.26 298.9 -17.8L299.44 -14.78Z M304.29 0ZM320.83 -14.78L320.83 -18.57C320.21 -19.36 319.29 -20.06 318.06 -20.69C316.83 -21.32 315.41 -21.64 313.78 -21.64C310.95 -21.64 308.66 -20.61 306.91 -18.57C305.17 -16.52 304.29 -13.94 304.29 -10.81L304.29 -10.5C304.29 -7.4 305.18 -4.82 306.96 -2.77C308.74 -0.72 311.01 0.31 313.78 0.31C315.41 0.31 316.83 0 318.06 -0.62C319.29 -1.24 320.21 -1.95 320.83 -2.74L320.83 -6.53L318.79 -6.53L318.25 -3.52C317.82 -3.08 317.21 -2.71 316.42 -2.4C315.63 -2.1 314.75 -1.95 313.78 -1.95C311.71 -1.95 310.1 -2.76 308.93 -4.37C307.76 -5.99 307.18 -8.03 307.18 -10.5L307.18 -10.84C307.18 -13.31 307.77 -15.35 308.96 -16.96C310.16 -18.56 311.86 -19.37 314.08 -19.37C315.02 -19.37 315.84 -19.22 316.52 -18.93C317.21 -18.63 317.78 -18.26 318.25 -17.8L318.79 -14.78Z M323.64 0ZM323.64 0L340.18 0L340.18 -5.11L337.72 -5.11L337.49 -2.26L328.92 -2.26L328.92 -9.89L337.08 -9.89L337.08 -12.16L328.92 -12.16L328.92 -19.06L337.31 -19.06L337.54 -16.2L340.02 -16.2L340.02 -21.33L323.64 -21.33L323.64 -19.47L326.03 -19.06L326.03 -2.26L323.64 -1.85Z M342.57 0ZM360.29 -21.33L342.57 -21.33L342.57 -16.61L345.04 -16.61L345.25 -19.06L350 -19.06L350 -2.26L347.61 -1.85L347.61 0L355.27 0L355.27 -1.85L352.88 -2.26L352.88 -19.06L357.61 -19.06L357.83 -16.61L360.29 -16.61Z"></path></g></g></svg>
