<svg width="14" height="16" viewBox="0 0 14 16" fill="none" xmlns="http://www.w3.org/2000/svg">
<path d="M6.76642 0C3.03534 0 0 2.89169 0 6.4462C0 7.61637 0.550866 8.8749 0.573952 8.92799C0.751869 9.3303 1.10293 9.9552 1.35607 10.3215L5.99545 15.3564C6.1853 15.6309 6.46631 15.7883 6.76642 15.7883C7.06653 15.7883 7.34754 15.6309 7.53739 15.3568L12.1772 10.3215C12.4307 9.9552 12.7814 9.3303 12.9593 8.92799C12.9824 8.87528 13.5328 7.61675 13.5328 6.4462C13.5328 2.89169 10.4975 0 6.76642 0ZM12.2253 8.63373C12.0665 8.99434 11.7397 9.57564 11.5125 9.90402L6.87269 14.9393C6.78115 15.0716 6.75209 15.0716 6.66054 14.9393L2.02077 9.90402C1.7935 9.57564 1.46672 8.99396 1.30791 8.63336C1.30114 8.61781 0.796049 7.45939 0.796049 6.4462C0.796049 3.30993 3.47436 0.758376 6.76642 0.758376C10.0585 0.758376 12.7368 3.30993 12.7368 6.4462C12.7368 7.46091 12.2305 8.62236 12.2253 8.63373Z" fill="#8D8D8D"/>
<path d="M6.76655 3.03369C4.79115 3.03369 3.18433 4.56485 3.18433 6.44638C3.18433 8.32792 4.79115 9.85908 6.76655 9.85908C8.74194 9.85908 10.3488 8.32792 10.3488 6.44638C10.3488 4.56485 8.74194 3.03369 6.76655 3.03369ZM6.76655 9.1007C5.23057 9.1007 3.98038 7.91005 3.98038 6.44638C3.98038 4.98272 5.23057 3.79207 6.76655 3.79207C8.30253 3.79207 9.55272 4.98272 9.55272 6.44638C9.55272 7.91005 8.30253 9.1007 6.76655 9.1007Z" fill="#FF7A5A"/>
</svg>
