<svg width="77" height="77" viewBox="0 0 77 77" fill="none" xmlns="http://www.w3.org/2000/svg">
<path d="M39.6667 41H32.3333C30.9852 41 29.8889 39.869 29.8889 38.4783V35.9565C29.8889 34.5658 30.9852 33.4348 32.3333 33.4348H39.6667C41.0148 33.4348 42.1111 34.5658 42.1111 35.9565V38.4783C42.1111 39.869 41.0148 41 39.6667 41Z" fill="#FF7A5A"/>
<path d="M36 28.3913C29.9341 28.3913 25 23.2999 25 17.0435V12H47V17.0435C47 23.2999 42.0659 28.3913 36 28.3913Z" fill="#FF7A5A"/>
<path d="M74.5161 52.1613H72.0323V14.9032C72.0323 13.5334 70.9182 12.4194 69.5484 12.4194H63.3387C58.5461 12.4194 54.6452 16.319 54.6452 21.1129V52.1613H52.1613V49.6774C52.1613 48.3076 51.0473 47.1936 49.6774 47.1936H47.1936V33.1063C47.1936 32.1251 47.591 31.1651 48.2852 30.4721L48.8875 29.8698C50.9988 27.7585 52.1613 24.9517 52.1613 21.9661V12.4194C52.1613 11.0495 51.0473 9.93548 49.6774 9.93548V3.72581C49.6774 1.67165 48.0058 0 45.9516 0H26.0806C24.0265 0 22.3548 1.67165 22.3548 3.72581V9.93548C20.985 9.93548 19.871 11.0495 19.871 12.4194V21.9661C19.871 24.9517 21.0334 27.7585 23.1447 29.8698L23.747 30.4721C24.4413 31.1651 24.8387 32.1251 24.8387 33.1063V47.1936H22.3548C20.985 47.1936 19.871 48.3076 19.871 49.6774V52.1613H14.9032V39.7419H17.3871C18.757 39.7419 19.871 38.6279 19.871 37.2581V34.7742C19.871 33.4043 18.757 32.2903 17.3871 32.2903V24.8387C17.3871 23.4689 16.2731 22.3548 14.9032 22.3548H7.45161C6.08176 22.3548 4.96774 23.4689 4.96774 24.8387V32.2903C3.59789 32.2903 2.48387 33.4043 2.48387 34.7742V37.2581C2.48387 38.6279 3.59789 39.7419 4.96774 39.7419H7.45161V52.1613H2.48387C1.11402 52.1613 0 53.2753 0 54.6452V72.0323C0 73.4021 1.11402 74.5161 2.48387 74.5161H19.871C19.871 75.886 20.985 77 22.3548 77H49.6774C51.0473 77 52.1613 75.886 52.1613 74.5161H74.5161C75.886 74.5161 77 73.4021 77 72.0323V54.6452C77 53.2753 75.886 52.1613 74.5161 52.1613ZM69.5484 22.3548H62.0968V21.1129C62.0968 20.4286 62.6532 19.871 63.3387 19.871H69.5484V22.3548ZM62.0968 24.8387H69.5484V27.3226H62.0968V24.8387ZM62.0968 29.8065H69.5484V32.2903H62.0968V29.8065ZM62.0968 34.7742H69.5484V37.2581H62.0968V34.7742ZM62.0968 39.7419H69.5484V42.2258H62.0968V39.7419ZM62.0968 44.7097H69.5484V47.1936H62.0968V44.7097ZM62.0968 54.6452H69.5484V57.129L62.0968 57.1303V54.6452ZM62.0968 52.1613V49.6774H69.5484V52.1613H62.0968ZM57.129 21.1129C57.129 17.6889 59.9147 14.9032 63.3387 14.9032H69.5484V17.3871H63.3387C61.2845 17.3871 59.6129 19.0587 59.6129 21.1129V57.1303H57.129V21.1129ZM54.6452 54.6452V57.129C54.6452 58.4989 55.7592 59.6129 57.129 59.6129H69.5484C70.9182 59.6129 72.0323 58.4989 72.0323 57.129V54.6452H74.5161V62.0968H52.1613V54.6452H54.6452ZM49.6774 49.6774V62.0968H42.2258V59.6129H44.7097C46.0795 59.6129 47.1936 58.4989 47.1936 57.129V49.6774H49.6774ZM32.2903 59.6129V57.129H39.7419V59.6129H32.2903ZM39.7419 62.0968V64.5806H32.2903V62.0968H39.7419ZM39.7419 49.6774H37.2581V47.1936C38.6279 47.1936 39.7419 48.3076 39.7419 49.6774ZM34.7742 49.6774H32.2903C32.2903 48.3076 33.4043 47.1936 34.7742 47.1936V49.6774ZM32.2903 52.1613H39.7419V54.6452H32.2903V52.1613ZM32.2903 67.0645H39.7419V69.5484H32.2903V67.0645ZM29.8065 2.48387H32.2903V4.96774H29.8065V2.48387ZM34.7742 2.48387H37.2581V4.96774H34.7742V2.48387ZM39.7419 2.48387H42.2258V4.96774H39.7419V2.48387ZM24.8387 3.72581C24.8387 3.0415 25.3951 2.48387 26.0806 2.48387H27.3226V7.45161H44.7097V2.48387H45.9516C46.6372 2.48387 47.1936 3.0415 47.1936 3.72581V9.93548H24.8387V3.72581ZM22.3548 21.9661V12.4194H49.6774V21.9661C49.6774 24.2885 48.772 26.4706 47.1315 28.1137L46.5291 28.716C45.3567 29.8884 44.7097 31.4483 44.7097 33.1063V57.129H42.2258V49.6774C42.2258 46.9377 39.9978 44.7097 37.2581 44.7097H34.7742C32.0345 44.7097 29.8065 46.9377 29.8065 49.6774V57.129H27.3226V33.1063C27.3226 31.4483 26.6755 29.8884 25.5031 28.716L24.9008 28.1137C23.2602 26.4706 22.3548 24.2873 22.3548 21.9661ZM24.8387 49.6774V57.129C24.8387 58.4989 25.9527 59.6129 27.3226 59.6129H29.8065V62.0968H22.3548V49.6774H24.8387ZM14.9032 32.2903H12.4194V24.8387H14.9032V32.2903ZM7.45161 24.8387H9.93548V32.2903H7.45161V24.8387ZM4.96774 34.7742H17.3871L17.3883 37.2581H4.96774V34.7742ZM12.4194 39.7419V57.129H9.93548V39.7419H12.4194ZM7.45161 54.6452V57.129C7.45161 58.4989 8.56563 59.6129 9.93548 59.6129H12.4194C13.7892 59.6129 14.9032 58.4989 14.9032 57.129V54.6452H19.871V62.0968H2.48387V54.6452H7.45161ZM2.48387 72.0323V64.5806H19.871V72.0323H2.48387ZM22.3548 74.5161V64.5806H29.8065V69.5484C29.8065 70.9182 30.9205 72.0323 32.2903 72.0323H39.7419C41.1118 72.0323 42.2258 70.9182 42.2258 69.5484V64.5806H49.6774V74.5161H22.3548ZM52.1613 72.0323V64.5806H74.5161V72.0323H52.1613Z" fill="#383838"/>
</svg>
