<svg width="72" height="77" viewBox="0 0 72 77" fill="none" xmlns="http://www.w3.org/2000/svg">
<path d="M40.25 64.8049L36.5 62.3171L32.75 64.8049L35.25 69.7805L34 76H39L37.75 69.7805L40.25 64.8049Z" fill="#FF7A5A"/>
<path d="M44.8014 28.9443C42.9838 26.468 40.095 25 36.9938 25H36.5C29.6073 25 24 30.5799 24 37.439V46.1463H25.25C25.25 44.0849 26.9285 42.4146 29 42.4146V39.9268C31.4451 39.9268 33.8364 39.2065 35.8701 37.8569L36.5 37.439L37.1299 37.8569C39.1636 39.2065 41.5549 39.9268 44 39.9268V42.4146C46.0715 42.4146 47.75 44.0849 47.75 46.1463H49V35.1529C49 32.4088 47.3301 29.9659 44.8014 28.9443Z" fill="#FF7A5A"/>
<path d="M72 66.7813C72 64.2071 70.381 61.8706 67.9728 60.9664L62.069 58.7524V57.7003C63.0085 56.8568 63.7322 55.7816 64.148 54.5609C66.4871 54.1594 68.2759 52.1292 68.2759 49.6774V44.7097C68.2759 42.8728 67.8225 41.1427 67.0345 39.6128V33.2491C67.0345 30.6748 65.4155 28.3383 63.0073 27.4342L57.1034 25.2201V24.168C58.043 23.3245 58.7667 22.2493 59.1825 21.0286C61.5216 20.6272 63.3103 18.5969 63.3103 16.1452V11.1774C63.3103 5.01504 58.2988 0 52.1379 0C45.9771 0 40.9655 5.01504 40.9655 11.1774V16.1452C40.9655 18.5969 42.7542 20.6272 45.0933 21.0286C45.5092 22.2481 46.2329 23.3233 47.1724 24.168V25.2201L42.5075 26.9696C43.1543 27.4918 43.7423 28.0903 44.2441 28.7768C44.3223 28.8089 44.3914 28.8538 44.4684 28.8889L47.484 27.7574C48.1744 29.67 49.9904 31.0484 52.1379 31.0484C54.2855 31.0484 56.1015 29.67 56.7919 27.7562L62.135 29.7604C63.5807 30.3031 64.5517 31.7039 64.5517 33.2491V36.4024C62.5727 34.6238 59.9663 33.5323 57.1034 33.5323C53.5951 33.5323 50.4632 35.1617 48.4138 37.7001V44.7097C48.4138 39.916 52.3131 36.0161 57.1034 36.0161C61.8938 36.0161 65.7931 39.916 65.7931 44.7097V45.4004C65.0597 44.9729 64.2189 44.7097 63.3103 44.7097H50.8965C49.9667 44.7097 49.1054 44.9832 48.3605 45.4289C48.1392 43.3574 46.6596 41.6721 44.6897 41.1603V38.5H43.4483C41.2583 38.5 39.1368 37.8566 37.3147 36.6419L36 35.7651L34.6853 36.6419C32.8632 37.8566 30.7417 38.5 28.5517 38.5H27.3103V41.1603C25.1737 41.7152 23.5862 43.6442 23.5862 45.9516V45.4004C22.8528 44.9729 22.0121 44.7097 21.1034 44.7097H20.8901C18.9571 44.7097 17.1399 43.9571 15.7742 42.5897L14.8966 41.7104L14.0189 42.5897C12.652 43.9571 10.836 44.7097 8.90302 44.7097H8.68966C7.78105 44.7097 6.94033 44.9729 6.2069 45.4004V44.7097C6.2069 39.916 10.1062 36.0161 14.8966 36.0161C19.6869 36.0161 23.5862 39.916 23.5862 44.7097V37.7001C21.5368 35.1617 18.4049 33.5323 14.8966 33.5323C12.0337 33.5323 9.42733 34.6238 7.44828 36.4024V33.2491C7.44828 31.7039 8.41932 30.3031 9.86496 29.7604L15.2069 27.7562C15.8985 29.67 17.7145 31.0484 19.8621 31.0484C22.0096 31.0484 23.8256 29.67 24.516 27.7562L27.0285 28.6985C27.6868 28.0078 28.4202 27.3923 29.2209 26.8678L24.8276 25.2201V24.148C25.7598 23.3051 26.4921 22.2433 26.9067 21.0286C29.2458 20.6272 31.0345 18.5969 31.0345 16.1452V11.1774C31.0345 5.01504 26.0229 0 19.8621 0C13.7012 0 8.68966 5.01504 8.68966 11.1774V16.1452C8.68966 18.5969 10.4784 20.6272 12.8175 21.0286C13.2321 22.2445 13.9643 23.3051 14.8966 24.148V25.2201L8.99394 27.4354C6.58452 28.3383 4.96552 30.6748 4.96552 33.2491V39.6128C4.17753 41.1427 3.72414 42.8728 3.72414 44.7097V49.6774C3.72414 52.1292 5.51286 54.1594 7.85197 54.5609C8.26657 55.7767 8.99879 56.8373 9.93103 57.6803V58.7524L4.02842 60.9664C1.61901 61.8706 0 64.2071 0 66.7813V74.5161H17.3793V77H54.6207V74.5161H72V66.7813ZM59.5862 18.284V14.0076C60.3251 14.4387 60.8276 15.2313 60.8276 16.1464C60.8276 17.0615 60.3251 17.8528 59.5862 18.284ZM44.6897 18.284C43.9508 17.8528 43.4483 17.0602 43.4483 16.1452C43.4483 15.2301 43.9508 14.4375 44.6897 14.0063V18.284ZM45.931 11.1774C45.0224 11.1774 44.1817 11.4406 43.4483 11.8681V11.1774C43.4483 6.38372 47.3476 2.48387 52.1379 2.48387C56.9283 2.48387 60.8276 6.38372 60.8276 11.1774V11.8681C60.0942 11.4406 59.2534 11.1774 58.3448 11.1774C57.0937 11.1774 55.8693 10.6692 54.9844 9.78509L53.5369 8.33698L52.0646 9.31937C50.2425 10.534 48.121 11.1774 45.931 11.1774ZM54.6207 26.0806C54.6207 27.4505 53.5072 28.5645 52.1379 28.5645C50.7687 28.5645 49.6552 27.4505 49.6552 26.0806V25.6458C50.4335 25.923 51.2663 26.0806 52.1379 26.0806C53.0096 26.0806 53.8424 25.9218 54.6207 25.6458V26.0806ZM52.1379 23.5968C49.3994 23.5968 47.1724 21.3688 47.1724 18.629V13.5734C49.32 13.3757 51.3893 12.7013 53.2193 11.5316L53.229 11.5413C54.2806 12.5934 55.6487 13.289 57.1034 13.5461V18.629C57.1034 21.3688 54.8765 23.5968 52.1379 23.5968ZM22.3448 26.0806C22.3448 27.4505 21.2313 28.5645 19.8621 28.5645C18.4928 28.5645 17.3793 27.4505 17.3793 26.0806V25.6434C18.1576 25.9206 18.9892 26.0806 19.8621 26.0806C20.7349 26.0806 21.5665 25.9206 22.3448 25.6434V26.0806ZM24.8276 18.629C24.8276 21.3688 22.6006 23.5968 19.8621 23.5968C17.1235 23.5968 14.8966 21.3688 14.8966 18.629V13.6613H24.8276V18.629ZM27.3103 18.284V14.0076C28.0492 14.4387 28.5517 15.2313 28.5517 16.1464C28.5517 17.0615 28.0492 17.8528 27.3103 18.284ZM12.4138 18.284C11.6749 17.8528 11.1724 17.0602 11.1724 16.1452C11.1724 15.2301 11.6749 14.4375 12.4138 14.0063V18.284ZM13.6552 11.1774C12.7466 11.1774 11.9058 11.4406 11.1724 11.8681V11.1774C11.1724 6.38372 15.0717 2.48387 19.8621 2.48387C24.6524 2.48387 28.5517 6.38372 28.5517 11.1774V11.8681C27.8183 11.4406 26.9776 11.1774 26.069 11.1774H13.6552ZM7.44828 51.8162C6.70939 51.3851 6.2069 50.5925 6.2069 49.6774C6.2069 48.7623 6.70939 47.9698 7.44828 47.5386V51.8162ZM52.1379 58.7706L49.0442 60.004L40.9655 56.3292V54.3171C42.2081 53.4481 43.2088 52.262 43.8592 50.8769C44.6315 50.8126 45.3516 50.5779 45.9832 50.1989C46.2189 52.4111 47.8901 54.1879 50.0576 54.5597C50.4747 55.7804 51.1984 56.8555 52.1379 57.7003V58.7706ZM36 60.0265L33.5172 56.7155V55.5208C34.304 55.7567 35.1375 55.8871 36 55.8871C36.8625 55.8871 37.696 55.7567 38.4828 55.5208V56.7155L36 60.0265ZM31.8813 58.673L34.2846 61.8797L30.2162 65.1355L27.8941 60.4874L31.8813 58.673ZM40.1187 58.673L44.1072 60.4861L41.785 65.1343L37.7166 61.8785L40.1187 58.673ZM54.6207 59.1781C55.399 59.4552 56.2318 59.6129 57.1034 59.6129C57.9751 59.6129 58.8079 59.454 59.5862 59.1781V59.1993L57.1034 62.5116L54.6207 59.1993V59.1781ZM57.1034 57.129C54.3649 57.129 52.1379 54.9011 52.1379 52.1613V47.1936H62.069V52.1613C62.069 54.9011 59.842 57.129 57.1034 57.129ZM65.7931 49.6774C65.7931 50.5925 65.2906 51.3851 64.5517 51.8162V47.5398C65.2906 47.9698 65.7931 48.7623 65.7931 49.6774ZM49.6552 47.5386V51.815C48.9163 51.3839 48.4138 50.5913 48.4138 49.6762C48.4138 48.7611 48.9163 47.9698 49.6552 47.5386ZM45.931 45.9516C45.931 46.8879 45.4049 47.6938 44.6387 48.1177C44.6709 47.8133 44.6897 47.5052 44.6897 47.1936V43.8128C45.4285 44.244 45.931 45.0365 45.931 45.9516ZM29.7931 40.9281C32.0055 40.7255 34.1294 39.9827 36 38.7511C37.8706 39.9827 39.9945 40.7255 42.2069 40.9281V47.1936C42.2069 50.6174 39.4223 53.4032 36 53.4032C32.5777 53.4032 29.7931 50.6174 29.7931 47.1936V40.9281ZM27.3103 43.8128V47.1936C27.3103 47.5052 27.3291 47.8133 27.3613 48.1177C26.5951 47.6938 26.069 46.8879 26.069 45.9516C26.069 45.0365 26.5715 44.244 27.3103 43.8128ZM22.3448 47.5386C23.0837 47.9698 23.5862 48.7623 23.5862 49.6774C23.5862 50.5925 23.0837 51.3851 22.3448 51.8162V47.5386ZM21.9411 54.5609C24.1087 54.1891 25.7847 52.4123 26.0217 50.2026C26.6527 50.5804 27.371 50.8138 28.1408 50.8781C28.7911 52.2632 29.7919 53.4493 31.0345 54.3183V56.3304L22.9558 60.004L19.8621 58.7706V57.6803C20.7943 56.8373 21.5265 55.7755 21.9411 54.5609ZM9.93103 47.1093C11.7482 46.9176 13.463 46.2548 14.8966 45.1269C16.3301 46.256 18.0449 46.9176 19.8621 47.1093V52.1613C19.8621 54.9011 17.6351 57.129 14.8966 57.129C12.158 57.129 9.93103 54.9011 9.93103 52.1613V47.1093ZM14.8966 59.6129C15.7694 59.6129 16.601 59.4528 17.3793 59.1757V59.1993L14.8966 62.5116L12.4138 59.1993V59.1757C13.1921 59.4528 14.0237 59.6129 14.8966 59.6129ZM2.48276 72.0323V66.7813C2.48276 65.2362 3.4538 63.8354 4.89945 63.2926L10.7378 61.1035L14.8966 66.6509L19.0438 61.1192L20.3203 61.6274C18.4855 63.2532 17.3793 65.6115 17.3793 68.136V72.0323H2.48276ZM52.1379 74.5161H47.1724V69.5484H44.6897V74.5161H27.3103V69.5484H24.8276V74.5161H19.8621V68.136C19.8621 65.7074 21.2895 63.4891 23.502 62.4831L25.6319 61.514L29.3712 68.9935L36 63.6874L42.63 68.9947L46.3681 61.5158L48.498 62.4843C50.7105 63.4891 52.1379 65.7086 52.1379 68.136V74.5161ZM69.5172 72.0323H54.6207V68.136C54.6207 65.6115 53.5145 63.252 51.6797 61.6274L52.9562 61.118L57.1034 66.6509L61.2622 61.1035L67.1005 63.2938C68.5462 63.8354 69.5172 65.2362 69.5172 66.7813V72.0323Z" fill="#383838"/>
</svg>
