<svg width="77" height="77" viewBox="0 0 77 77" fill="none" xmlns="http://www.w3.org/2000/svg">
<path d="M62.0968 72.0311H54.6452V64.5796H62.0968V72.0311Z" fill="#FF7A5A"/>
<path d="M38.5 57.1281C26.8581 57.1281 17.3871 47.6572 17.3871 36.0155C17.3871 24.3738 26.8581 14.903 38.5 14.903C50.1419 14.903 59.6129 24.3738 59.6129 36.0155C59.6129 47.6572 50.1419 57.1281 38.5 57.1281ZM38.5 21.1125C30.2821 21.1125 23.5968 27.7978 23.5968 36.0155C23.5968 44.2333 30.2821 50.9185 38.5 50.9185C46.7179 50.9185 53.4033 44.2333 53.4033 36.0155C53.4033 27.7978 46.7179 21.1125 38.5 21.1125Z" fill="#FF7A5A"/>
<path d="M38.5 57.1281C26.8581 57.1281 17.3871 47.6572 17.3871 36.0155C17.3871 24.3738 26.8581 14.903 38.5 14.903C50.1419 14.903 59.6129 24.3738 59.6129 36.0155C59.6129 47.6572 50.1419 57.1281 38.5 57.1281ZM38.5 21.1125C30.2821 21.1125 23.5968 27.7978 23.5968 36.0155C23.5968 44.2333 30.2821 50.9185 38.5 50.9185C46.7179 50.9185 53.4033 44.2333 53.4033 36.0155C53.4033 27.7978 46.7179 21.1125 38.5 21.1125Z" fill="#FF7A5A"/>
<path d="M4.96777 57.1281H22.3549V68.3053H4.96777V57.1281Z" fill="#FF7A5A"/>
<path d="M42.9697 60.1981C43.2777 59.6554 43.4677 59.0382 43.4677 58.3713V56.5134C42.6555 56.7108 41.8296 56.8686 40.9839 56.9691V58.3713C40.9839 59.0568 40.4262 59.6132 39.7419 59.6132H37.2581C36.5738 59.6132 36.0161 59.0568 36.0161 58.3713V56.9691C35.1704 56.8698 34.3445 56.7108 33.5323 56.5134V58.3713C33.5323 59.0382 33.7223 59.6554 34.0303 60.1981C32.9883 60.8588 32.2903 62.0163 32.2903 63.3389V70.7904C32.2903 74.2144 35.076 77 38.5 77C41.924 77 44.7097 74.2144 44.7097 70.7904V63.3389C44.7097 62.0163 44.0117 60.8588 42.9697 60.1981ZM42.2258 70.7904C42.2258 72.8446 40.5542 74.5162 38.5 74.5162C36.4458 74.5162 34.7742 72.8446 34.7742 70.7904V63.3389C34.7742 62.6534 35.3318 62.097 36.0161 62.097H40.9839C41.6682 62.097 42.2258 62.6534 42.2258 63.3389V70.7904Z" fill="#383838"/>
<path d="M46.3155 28.9279L34.7742 40.4691L30.6845 36.3794L28.9284 38.1355L34.7742 43.9812L48.0716 30.684L46.3155 28.9279Z" fill="#383838"/>
<path d="M59.5496 34.7736C59.5744 35.1872 59.6129 35.5958 59.6129 36.0155C59.6129 36.4353 59.5744 36.8439 59.5496 37.2575H74.5161V64.5796H64.5806V74.5149H52.1613V52.0835C51.3814 52.7479 50.5493 53.3465 49.6774 53.8942V76.9988H66.3367L77 66.3357V34.7736H59.5496ZM72.76 67.0634L67.0645 72.7589V67.0634H72.76Z" fill="#383838"/>
<path d="M54.6452 54.6443H72.0323V57.1281H54.6452V54.6443Z" fill="#383838"/>
<path d="M54.6452 59.6119H72.0323V62.0958H54.6452V59.6119Z" fill="#383838"/>
<path d="M17.7361 32.2898H3.72581C3.0415 32.2898 2.48387 31.7334 2.48387 31.0479V28.5641C2.48387 27.8785 3.0415 27.3221 3.72581 27.3221H19.2823C19.6735 26.4615 20.1231 25.6331 20.6211 24.8383H6.20968V22.3545H22.4318C23.1931 21.4603 24.0252 20.627 24.9232 19.8706H3.72581C3.0415 19.8706 2.48387 19.3143 2.48387 18.6287V16.1449C2.48387 15.4594 3.0415 14.903 3.72581 14.903H31.0484C31.6296 14.903 32.0966 15.3128 32.2307 15.8531C33.0193 15.6072 33.834 15.4221 34.6587 15.2706C34.2638 13.6387 32.8008 12.4192 31.0484 12.4192V9.93532C33.1026 9.93532 34.7742 8.26371 34.7742 6.20958V3.72575C34.7742 1.67162 33.1026 0 31.0484 0H3.72581C1.67165 0 0 1.67162 0 3.72575V6.20958C0 8.26371 1.67165 9.93532 3.72581 9.93532V12.4192C1.67165 12.4192 0 14.0908 0 16.1449V18.6287C0 20.6829 1.67165 22.3545 3.72581 22.3545V24.8383C1.67165 24.8383 0 26.5099 0 28.5641V31.0479C0 33.102 1.67165 34.7736 3.72581 34.7736H17.4504C17.4989 33.9316 17.5908 33.102 17.7361 32.2898ZM28.5645 12.4192H6.20968V9.93532H28.5645V12.4192ZM2.48387 6.20958V3.72575C2.48387 3.04021 3.0415 2.48383 3.72581 2.48383H31.0484C31.7327 2.48383 32.2903 3.04021 32.2903 3.72575V6.20958C32.2903 6.89511 31.7327 7.45149 31.0484 7.45149H3.72581C3.0415 7.45149 2.48387 6.89511 2.48387 6.20958Z" fill="#383838"/>
<path d="M54.6452 49.5922V52.1604H72.0323V39.7413H59.2639C59.1124 40.5858 58.9274 41.4179 58.679 42.2251H69.5484V49.6766H57.129V45.9298C56.4286 47.24 55.5952 48.4645 54.6452 49.5922Z" fill="#383838"/>
<path d="M54.6452 36.0155C54.6452 27.1135 47.4022 19.8706 38.5 19.8706C29.5978 19.8706 22.3548 27.1135 22.3548 36.0155C22.3548 44.9176 29.5978 52.1604 38.5 52.1604C47.4022 52.1604 54.6452 44.9176 54.6452 36.0155ZM24.8387 36.0155C24.8387 28.4833 30.9677 22.3545 38.5 22.3545C46.0323 22.3545 52.1613 28.4833 52.1613 36.0155C52.1613 43.5478 46.0323 49.6766 38.5 49.6766C30.9677 49.6766 24.8387 43.5478 24.8387 36.0155Z" fill="#383838"/>
<path d="M4.96774 55.8862H22.3548V58.37H4.96774V55.8862Z" fill="#383838"/>
<path d="M4.96774 60.8539H22.3548V63.3377H4.96774V60.8539Z" fill="#383838"/>
<path d="M19.871 65.8215H22.3548V68.3054H19.871V65.8215Z" fill="#383838"/>
<path d="M14.9032 65.8215H17.3871V68.3054H14.9032V65.8215Z" fill="#383838"/>
<path d="M4.96774 65.8215H7.45161V68.3054H4.96774V65.8215Z" fill="#383838"/>
<path d="M9.93548 65.8215H12.4194V68.3054H9.93548V65.8215Z" fill="#383838"/>
</svg>
