<svg width="67" height="67" viewBox="0 0 67 67" fill="none" xmlns="http://www.w3.org/2000/svg">
<path d="M36.2748 19.9208C36.7235 18.3647 36.3166 16.6276 35.1332 15.4443L33.9766 14.2877C32.7943 13.1054 31.0572 12.7005 29.5012 13.1461C28.7183 11.7292 27.2019 10.7889 25.5291 10.7889H23.8938C22.221 10.7889 20.7046 11.7292 19.9217 13.1461C18.3656 12.7005 16.6275 13.1043 15.4463 14.2877L14.2897 15.4443C13.1074 16.6266 12.6994 18.3647 13.1481 19.9208C11.7291 20.7047 10.7888 22.2211 10.7888 23.8928V25.5281C10.7888 27.2009 11.7291 28.7174 13.147 29.5002C12.6983 31.0563 13.1052 32.7933 14.2886 33.9767L15.4452 35.1333C16.6275 36.3156 18.3656 36.7204 19.9206 36.2749C20.7035 37.6928 22.2199 38.6331 23.8927 38.6331H25.528C27.2008 38.6331 28.7172 37.6928 29.5001 36.276C31.054 36.7204 32.7932 36.3167 33.9755 35.1344L35.1321 33.9778C36.3144 32.7955 36.7224 31.0573 36.2737 29.5013C37.6927 28.7174 38.633 27.2009 38.633 25.5292V23.8939C38.633 22.2211 37.6927 20.7047 36.2748 19.9208ZM24.7109 31.1366C21.1618 31.1366 18.2853 28.2601 18.2853 24.711C18.2853 21.162 21.1618 18.2854 24.7109 18.2854C28.26 18.2854 31.1365 21.162 31.1365 24.711C31.1365 28.2601 28.26 31.1366 24.7109 31.1366Z" fill="#FF7A5A"/>
<path d="M45.3871 0H44.7301L44.4275 0.583548C41.553 6.12618 38.1522 11.4343 34.3191 16.361L36.0244 17.6891C39.2112 13.5934 42.0846 9.22871 44.6339 4.69756C46.1619 13.7123 53.2747 20.8294 62.2862 22.364C55.1129 26.3937 48.4961 31.1939 42.5418 36.6911L36.3767 30.5261L34.8486 32.0541L40.9791 38.1846C40.0303 39.0988 39.0988 40.0303 38.1846 40.9791L32.0541 34.8486L30.5261 36.3767L36.6911 42.5418C30.5488 49.1953 25.2612 56.6647 20.9634 64.8279C10.7524 64.4907 2.50818 56.2465 2.17102 46.0355C5.84521 44.1 9.40918 41.9236 12.837 39.5603L9.60694 44.9084L15.6294 43.403L18.4996 49.1423L22.967 37.5168L20.9494 36.7419L18.2402 43.791L16.7878 40.8851L14.1651 41.5411L17.7464 35.6083L15.8963 34.492L15.6942 34.827C10.9556 38.4515 5.87331 41.6837 0.581387 44.4275L0 44.7301V45.3871C0 57.3045 9.69555 67 21.6129 67H22.2699L22.5725 66.4165C32.3664 47.5268 47.5279 32.3664 66.4165 22.5725L67 22.2699V21.6129C67 9.69555 57.3045 0 45.3871 0ZM46.525 2.21208C56.3427 2.78374 64.2163 10.6584 64.7879 20.475C54.9659 19.9055 47.0945 12.033 46.525 2.21208Z" fill="#383838"/>
<path d="M4.80023 40.1006L6.30556 34.0792L0.566258 31.209L12.1918 26.7416L12.9677 28.7592L5.91761 31.4684L8.82347 32.9208L8.16752 35.5446L14.0992 31.9612L15.2176 33.8123L4.80023 40.1006Z" fill="#383838"/>
<path d="M41.3066 17.8685L39.5646 16.589C39.986 16.0152 40.401 15.4359 40.8116 14.8524L42.5807 16.093C42.1614 16.6895 41.7367 17.2817 41.3066 17.8685ZM43.8158 14.2959L42.0241 13.0888C42.4229 12.4966 42.8141 11.9011 43.201 11.3025L45.0175 12.4739C44.6231 13.0845 44.2232 13.6929 43.8158 14.2959Z" fill="#383838"/>
<path d="M28.2319 49.312L26.5028 48.0141C27.0648 47.2674 27.6353 46.5283 28.2146 45.7967L29.9079 47.1388C29.3406 47.8553 28.7808 48.5793 28.2319 49.312Z" fill="#383838"/>
<path d="M25.9236 52.5064L24.1481 51.2712C24.6722 50.518 25.206 49.7702 25.7475 49.0321L27.4895 50.3116C26.9589 51.0356 26.4369 51.7672 25.9236 52.5064Z" fill="#383838"/>
<path d="M19.7066 62.5888L18.961 62.4743C15.0674 61.8723 11.4581 59.9229 8.79645 56.9824L10.398 55.5322C12.5593 57.9193 15.4338 59.5608 18.5568 60.206C20.0654 57.5195 21.6961 54.8773 23.4122 52.3465L25.2017 53.5579C23.3776 56.2487 21.6529 59.0659 20.0719 61.9285L19.7066 62.5888Z" fill="#383838"/>
<path d="M24.8548 32.4194C20.6835 32.4194 17.2903 29.025 17.2903 24.8548C17.2903 20.6846 20.6835 17.2903 24.8548 17.2903C29.0261 17.2903 32.4194 20.6846 32.4194 24.8548C32.4194 29.025 29.0261 32.4194 24.8548 32.4194ZM24.8548 19.4516C21.8755 19.4516 19.4516 21.8755 19.4516 24.8548C19.4516 27.8342 21.8755 30.2581 24.8548 30.2581C27.8342 30.2581 30.2581 27.8342 30.2581 24.8548C30.2581 21.8755 27.8342 19.4516 24.8548 19.4516Z" fill="#383838"/>
</svg>
