<svg width="72" height="77" viewBox="0 0 72 77" fill="none" xmlns="http://www.w3.org/2000/svg">
<path d="M64.4754 35.9575V43.397C64.4754 45.0114 63.4351 46.3753 61.9956 46.8886V40.9172V39.6773V35.9575H59.5157V39.6773H57.0359V11.1592C57.0359 9.10841 55.367 7.43949 53.3162 7.43949H48.1284C48.2672 7.05016 48.3565 6.63602 48.3565 6.19957V3.71974C48.3565 1.66893 46.6876 0 44.6367 0H27.2779C25.2271 0 23.5582 1.66893 23.5582 3.71974V6.19957C23.5582 6.63602 23.6475 7.05016 23.7863 7.43949H18.5985C16.5477 7.43949 14.8788 9.10841 14.8788 11.1592V39.6773H12.399V35.9575H9.91913V39.6773V40.9172V46.8886C8.47959 46.3753 7.4393 45.0114 7.4393 43.397V35.9575H4.95947V43.397C4.95947 46.4299 7.15164 48.9506 10.0332 49.4825C10.5651 52.3641 13.0859 54.5563 16.1187 54.5563H29.7578V61.9957H27.6239L25.144 69.4352H18.5985C16.5477 69.4352 14.8788 71.1042 14.8788 73.155V76.8747H57.0359V73.155C57.0359 71.1042 55.367 69.4352 53.3162 69.4352H46.7694L44.2896 61.9957H42.1569V54.5563H55.796C58.8288 54.5563 61.3496 52.3641 61.8815 49.4825C64.7631 48.9506 66.9552 46.4299 66.9552 43.397V35.9575H64.4754ZM26.038 6.19957V3.71974C26.038 3.03655 26.5935 2.47983 27.2779 2.47983H44.6367C45.3212 2.47983 45.8767 3.03655 45.8767 3.71974V6.19957C45.8767 6.88277 45.3212 7.43949 44.6367 7.43949H42.1569H29.7578H27.2779C26.5935 7.43949 26.038 6.88277 26.038 6.19957ZM30.9977 9.91932H40.917V11.1592C40.917 11.8424 40.3615 12.3991 39.6771 12.3991H32.2376C31.5532 12.3991 30.9977 11.8424 30.9977 11.1592V9.91932ZM17.3586 11.1592C17.3586 10.476 17.9141 9.91932 18.5985 9.91932H27.2779H28.5179V11.1592C28.5179 13.2101 30.1868 14.879 32.2376 14.879H39.6771C41.7279 14.879 43.3968 13.2101 43.3968 11.1592V9.91932H44.6367H53.3162C54.0006 9.91932 54.5561 10.476 54.5561 11.1592V39.6773H17.3586V11.1592ZM39.6771 61.9957H37.1973V64.4756H42.5029L44.1569 69.4352H42.1569V71.9151H53.3162C54.0006 71.9151 54.5561 72.4705 54.5561 73.155V74.3949H17.3586V73.155C17.3586 72.4705 17.9141 71.9151 18.5985 71.9151H39.6771V69.4352H27.7578L29.4118 64.4756H34.7174V61.9957H32.2376V54.5563H39.6771V61.9957ZM59.5157 48.3567C59.5157 50.4075 57.8468 52.0764 55.796 52.0764H16.1187C14.0679 52.0764 12.399 50.4075 12.399 48.3567V42.1571H59.5157V48.3567Z" fill="#383838"/>
<path d="M68.2759 37H60.8276C58.7743 37 57.1034 35.3175 57.1034 33.25C57.1034 31.1825 58.7743 29.5 60.8276 29.5H68.2759C70.3291 29.5 72 31.1825 72 33.25C72 35.3175 70.3291 37 68.2759 37Z" fill="#FF7A5A"/>
<path d="M11.1724 37H3.72414C1.6709 37 0 35.3175 0 33.25C0 31.1825 1.6709 29.5 3.72414 29.5H11.1724C13.2257 29.5 14.8966 31.1825 14.8966 33.25C14.8966 35.3175 13.2257 37 11.1724 37Z" fill="#FF7A5A"/>
<path d="M47.1724 27H24.8276C22.0891 27 19.8621 24.7575 19.8621 22C19.8621 19.2425 22.0891 17 24.8276 17H47.1724C49.9109 17 52.1379 19.2425 52.1379 22C52.1379 24.7575 49.9109 27 47.1724 27Z" fill="#FF7A5A"/>
</svg>
