<svg width="77" height="77" viewBox="0 0 77 77" fill="none" xmlns="http://www.w3.org/2000/svg">
<path d="M75.7983 71.9151H58.3837V52.0764H75.7983V71.9151Z" fill="#FF7A5A"/>
<path d="M72.0666 17.3588H64.6032V9.91931H72.0666V17.3588Z" fill="#FF7A5A"/>
<path d="M59.6276 17.3588H47.1886V11.1592H59.6276V17.3588Z" fill="#FF7A5A"/>
<path d="M38.4813 52.0764C30.937 52.0764 24.7983 45.9574 24.7983 38.4374C24.7983 30.9173 30.937 24.7983 38.4813 24.7983C46.0255 24.7983 52.1642 30.9173 52.1642 38.4374C52.1642 45.9574 46.0255 52.0764 38.4813 52.0764Z" fill="#FF7A5A"/>
<path d="M39.698 33C40.91 33 41.93 33.3886 42.758 34.1657C43.586 34.9429 44 35.8971 44 37.0286C44 38.16 43.586 39.1143 42.758 39.8914C41.93 40.6686 40.91 41.0571 39.698 41.0571H37.484V45H35V33H39.698ZM39.698 38.8457C40.226 38.8457 40.664 38.6743 41.012 38.3314C41.36 37.9771 41.534 37.5429 41.534 37.0286C41.534 36.5029 41.36 36.0686 41.012 35.7257C40.664 35.3829 40.226 35.2114 39.698 35.2114H37.484V38.8457H39.698Z" fill="#383838"/>
<path d="M34 42H39V43H34V42Z" fill="#383838"/>
<path d="M73.2742 47.1936H60.8548C58.8007 47.1936 57.129 48.8652 57.129 50.9194V73.2742C57.129 75.3284 58.8007 77 60.8548 77H73.2742C75.3284 77 77 75.3284 77 73.2742V50.9194C77 48.8652 75.3284 47.1936 73.2742 47.1936ZM74.5161 73.2742C74.5161 73.9597 73.9585 74.5161 73.2742 74.5161H60.8548C60.1705 74.5161 59.6129 73.9597 59.6129 73.2742V50.9194C59.6129 50.2338 60.1705 49.6774 60.8548 49.6774H73.2742C73.9585 49.6774 74.5161 50.2338 74.5161 50.9194V73.2742Z" fill="#383838"/>
<path d="M64.5806 64.0665L62.9748 62.4607L61.2187 64.2168L64.5806 67.5787L72.9103 59.249L71.1542 57.4929L64.5806 64.0665Z" fill="#383838"/>
<path d="M12.4194 52.1613C5.57132 52.1613 0 57.7326 0 64.5806C0 71.4287 5.57132 77 12.4194 77C19.2674 77 24.8387 71.4287 24.8387 64.5806C24.8387 57.7326 19.2674 52.1613 12.4194 52.1613ZM22.2691 65.8226C22.0419 67.6333 21.3265 69.2901 20.2585 70.6636L18.5669 68.9709L16.8108 70.727L18.5024 72.4185C17.1288 73.4866 15.472 74.2019 13.6613 74.4292V72.0323H11.1774V74.4304C9.36668 74.2032 7.70994 73.4878 6.33636 72.4197L8.02787 70.7282L6.27177 68.9709L4.58026 70.6636C3.51219 69.2901 2.79684 67.6333 2.56956 65.8226H4.96774V63.3387H2.56956C2.79684 61.528 3.51219 59.8712 4.58026 58.4976L6.27177 60.1904L8.02787 58.4343L6.33636 56.7428C7.70994 55.6747 9.36668 54.9594 11.1774 54.7321V57.129H13.6613V54.7309C15.472 54.9581 17.1288 55.6735 18.5024 56.7415L16.8108 58.4331L18.5669 60.1892L20.2585 58.4964C21.3265 59.87 22.0419 61.5267 22.2691 63.3375H19.871V65.8213H22.2691V65.8226Z" fill="#383838"/>
<path d="M13.6613 59.6129H11.1774V65.0948L14.0252 67.9426L15.7813 66.1865L13.6613 64.0665V59.6129Z" fill="#383838"/>
<path d="M73.2742 0H45.9516C43.8975 0 42.2258 1.67165 42.2258 3.72581V18.629C42.2258 20.6832 43.8975 22.3548 45.9516 22.3548H73.2742C75.3284 22.3548 77 20.6832 77 18.629V3.72581C77 1.67165 75.3284 0 73.2742 0ZM45.9516 2.48387H73.2742C73.9585 2.48387 74.5161 3.04026 74.5161 3.72581V4.96774H44.7097V3.72581C44.7097 3.04026 45.2673 2.48387 45.9516 2.48387ZM73.2742 19.871H45.9516C45.2673 19.871 44.7097 19.3146 44.7097 18.629V7.45161H74.5161V18.629C74.5161 19.3146 73.9585 19.871 73.2742 19.871Z" fill="#383838"/>
<path d="M47.1936 14.9032H49.6774V17.3871H47.1936V14.9032Z" fill="#383838"/>
<path d="M52.1613 14.9032H54.6452V17.3871H52.1613V14.9032Z" fill="#383838"/>
<path d="M57.129 14.9032H59.6129V17.3871H57.129V14.9032Z" fill="#383838"/>
<path d="M47.1936 9.93548H59.6129V12.4194H47.1936V9.93548Z" fill="#383838"/>
<path d="M2.48387 29.8065V28.5645C2.48387 27.879 3.0415 27.3226 3.72581 27.3226H28.5645C29.0725 27.3226 29.5071 27.6306 29.6996 28.0677C30.333 27.5325 31.0173 27.0581 31.7414 26.6445C31.3017 25.9192 30.6137 25.3765 29.8077 25.0834V14.9032H32.2916V11.8307L19.1345 1.06558C17.4529 -0.309242 14.8399 -0.309242 13.1558 1.06558L0 11.8307V14.9032H2.48387V25.0672C1.04198 25.5814 0 26.9475 0 28.5645V32.2903H26.3464C26.801 31.4036 27.34 30.5678 27.9696 29.8065H2.48387ZM12.4194 14.9032V24.8387H9.93548V14.9032H12.4194ZM22.3548 14.9032V24.8387H19.871V14.9032H22.3548ZM17.3871 24.8387H14.9032V14.9032H17.3871V24.8387ZM27.3226 24.8387H24.8387V14.9032H27.3226V24.8387ZM14.7281 2.98934C15.5267 2.33732 16.7649 2.33732 17.5622 2.98934L29.0874 12.4194H3.20295L14.7281 2.98934ZM7.45161 14.9032V24.8387H4.96774V14.9032H7.45161Z" fill="#383838"/>
<path d="M43.4677 51.2125C42.6729 51.5242 41.8433 51.7651 40.9839 51.9241V63.3387H54.6452V60.8548H43.4677V51.2125Z" fill="#383838"/>
<path d="M33.5323 63.3387H27.3226V65.8226H36.0161V51.9241C35.1567 51.7651 34.3271 51.5242 33.5323 51.2125V63.3387Z" fill="#383838"/>
<path d="M60.8548 39.7419V24.8387H58.371V37.2581H52.098C52.1352 37.6679 52.1613 38.0802 52.1613 38.5C52.1613 38.9198 52.1352 39.3321 52.098 39.7419H60.8548Z" fill="#383838"/>
<path d="M16.1452 37.2581V34.7742H13.6613V39.7419H24.9021C24.8648 39.3321 24.8387 38.9198 24.8387 38.5C24.8387 38.0802 24.8648 37.6679 24.9021 37.2581H16.1452Z" fill="#383838"/>
</svg>
