<svg width="24" height="20" viewBox="0 0 24 20" fill="none" xmlns="http://www.w3.org/2000/svg">
<path d="M3.92897 3.16683L3.71051 2.94503C3.55143 2.78853 3.45334 2.57897 3.43434 2.3549C3.41125 2.11723 3.49272 1.88134 3.65693 1.71037L5.11616 0.228787C5.46857 -0.0963226 6.01331 -0.0720637 6.33632 0.283189L7.8821 1.85265L6.99996 2.14144L3.92897 3.16683Z" fill="#FF7A5A"/>
<path d="M6.53003 4.62329L5.64789 4.91203L4.58026 3.82805L5.45827 3.53511L7.65538 2.80685L8.53339 2.51391L9.60102 3.5979L6.53003 4.62329Z" fill="#FF7A5A"/>
<path d="M7.37508 6.66568L6.30331 5.57749L9.3743 4.5521L10.2564 4.26331L11.3282 5.3515L10.4461 5.64029L7.37508 6.66568Z" fill="#FF7A5A"/>
<path d="M0.00058104 15.2915V15.2748C-0.00806416 14.606 0.28877 13.9709 0.804394 13.5547C1.26834 13.1796 1.87711 13.0436 2.45325 13.1863C4.7534 13.7555 7.98105 14.0695 11.5425 14.0695C13.1955 14.0695 14.7743 14.0025 16.2212 13.8727L12.6184 10.2148C11.9847 9.55728 11.1451 9.14439 10.2441 9.04712L9.82775 9.01365C9.72923 9.00781 9.63651 8.9645 9.56806 8.89225L8.02636 7.32694L8.90437 7.03395L11.1015 6.3057L11.9795 6.01271L19.321 13.4667C19.7868 13.3789 20.2237 13.2868 20.6318 13.1863C21.208 13.0455 21.8159 13.1813 22.2807 13.5547C22.7963 13.9709 23.0931 14.6061 23.0845 15.2748C23.0912 15.816 22.9037 16.3411 22.5569 16.7522L23.5626 17.7734C24.1011 18.2651 24.1489 19.1054 23.6698 19.6568C23.45 19.8792 23.1516 20.0028 22.8412 19.9999C22.4529 19.9913 22.0831 19.8291 21.8107 19.5479L20.0876 17.7985C17.2736 18.3582 14.4097 18.6178 11.5425 18.5728C7.23485 18.5728 3.51257 18.1166 1.33199 17.3214C0.512025 16.9963 -0.0200819 16.1851 0.00058104 15.2915ZM20.3645 14.5324C20.3433 14.521 20.3219 14.5106 20.3004 14.5006C20.2931 14.4972 20.2861 14.4935 20.2788 14.4903C20.2504 14.4779 20.2217 14.4666 20.1928 14.4564C20.1844 14.4534 20.1757 14.451 20.1671 14.4482C20.1462 14.4414 20.1252 14.4349 20.1041 14.4293C20.0923 14.4261 20.0804 14.4234 20.0685 14.4206C20.0501 14.4163 20.0317 14.4123 20.0133 14.4089C20.0008 14.4065 19.9882 14.4044 19.9755 14.4024C19.957 14.3995 19.9384 14.3973 19.9199 14.3952C19.9077 14.3939 19.8956 14.3924 19.8833 14.3915C19.8623 14.3898 19.8413 14.3891 19.8203 14.3886C19.8105 14.3883 19.8008 14.3877 19.7911 14.3876C19.7607 14.3876 19.7304 14.3886 19.7002 14.3909C19.698 14.391 19.6958 14.3912 19.6936 14.3914C19.3992 14.4148 19.1148 14.545 18.8994 14.7728C18.5151 15.1793 18.4454 15.7963 18.7291 16.2806C19.0127 16.7649 19.58 16.9973 20.1152 16.8486C20.6165 16.7093 20.9742 16.2679 21.0187 15.7496L21.019 15.745C21.0218 15.7114 21.0233 15.6774 21.0234 15.6431C21.0242 15.4341 20.9732 15.2283 20.875 15.0446C20.7566 14.8221 20.5771 14.6461 20.3645 14.5324ZM3.2983 16.8987C3.98127 16.8987 4.53494 16.3365 4.53494 15.6431C4.53494 14.9496 3.98127 14.3875 3.2983 14.3875C2.61532 14.3875 2.06165 14.9496 2.06165 15.6431C2.06365 16.3357 2.61613 16.8966 3.2983 16.8987Z" fill="#FF7A5A"/>
<path d="M3.2983 15.2245C3.52597 15.2245 3.71051 15.4119 3.71051 15.6431C3.71051 15.8742 3.52597 16.0616 3.2983 16.0616C3.07062 16.0616 2.88608 15.8742 2.88608 15.6431C2.88675 15.4122 3.07091 15.2252 3.2983 15.2245Z" fill="#FF7A5A"/>
<path d="M19.7868 16.0616C19.7014 16.0616 19.6221 16.0353 19.5563 15.9901C19.5234 15.9675 19.4939 15.9403 19.4687 15.9093C19.4603 15.899 19.4524 15.8882 19.445 15.8771C19.4301 15.8548 19.4174 15.831 19.407 15.806C19.3861 15.7559 19.3746 15.7008 19.3746 15.6431C19.3746 15.5853 19.3861 15.5302 19.407 15.4801C19.4174 15.4551 19.4301 15.4313 19.445 15.4091C19.4524 15.3979 19.4603 15.3872 19.4687 15.3768C19.4939 15.3458 19.5234 15.3186 19.5563 15.296C19.6221 15.2509 19.7014 15.2245 19.7868 15.2245C20.0145 15.2245 20.199 15.4119 20.199 15.6431C20.199 15.8742 20.0145 16.0616 19.7868 16.0616Z" fill="#FF7A5A"/>
</svg>
