<svg width="40" height="40" viewBox="0 0 40 40" fill="none" xmlns="http://www.w3.org/2000/svg">
<path d="M12.6911 35.5371C12.4424 35.324 12.1227 35.2174 11.803 35.1819C11.1992 35.1464 10.3822 35.5016 10.169 36.1054C10.098 36.0699 10.027 36.0344 9.99144 35.9989C9.20997 35.6792 8.35746 35.7858 7.68255 36.2831C7.00765 36.7804 6.61691 37.5618 6.68795 38.3788C6.72348 38.7696 6.86556 39.1603 7.07869 39.48C7.11421 39.551 7.57599 40.1194 7.68255 39.9773C7.71807 39.9418 7.39838 39.4089 7.32734 39.3379C7.18525 39.0537 7.11421 38.734 7.11421 38.4143C7.07869 37.7039 7.4339 37.0645 8.00224 36.6383C8.57058 36.2475 9.31653 36.1765 9.95592 36.4251C10.2401 36.5317 10.4887 36.7093 10.7019 36.9224C10.7729 36.9935 11.0926 37.4197 11.1636 37.4197C11.3057 37.3487 10.8795 36.7093 10.8439 36.6383C10.7019 36.4607 10.5243 36.3186 10.3467 36.212C10.3822 36.1765 10.4532 36.141 10.4887 36.1054C10.7374 35.9278 11.0216 35.7858 11.3412 35.7147C11.6965 35.6437 12.0517 35.6437 12.3714 35.8213C12.4779 35.8568 12.8687 36.2475 12.9752 36.212C13.2239 36.141 12.7621 35.5726 12.6911 35.5371Z" fill="#383838"/>
<path d="M24.271 37.2421C23.8803 36.958 23.383 36.7804 22.9212 36.7804C22.8146 36.7804 21.7845 36.9224 21.7135 37.1356C21.5714 36.7804 21.3938 36.4607 21.1806 36.141C20.5057 35.2885 19.4756 34.7556 18.3745 34.6136C17.2023 34.4359 15.959 34.7201 14.9999 35.4305C14.5737 35.7502 14.1829 36.141 13.8988 36.6027C13.8277 36.7093 13.2239 37.8105 13.4015 37.8815C13.4725 37.917 14.0409 36.958 14.1119 36.8514C14.3961 36.4962 14.7513 36.141 15.142 35.8923C16.0301 35.2885 17.1312 35.0043 18.2324 35.1464C19.227 35.2885 20.2216 35.7502 20.861 36.5317C21.1806 36.9224 21.4293 37.3842 21.5359 37.846C21.5714 37.9526 21.6069 39.0537 21.6424 39.0537C21.8911 39.1248 21.8556 37.846 21.8556 37.775C21.82 37.5973 21.7845 37.4197 21.749 37.2421C21.8911 37.2777 22.7081 37.2066 22.8146 37.2066C23.2409 37.2421 23.6671 37.4197 23.9868 37.6684C24.342 37.917 24.5907 38.2723 24.7683 38.663C24.8038 38.7696 24.9814 39.6931 25.0525 39.6931C25.3722 39.7286 25.159 38.5209 25.1235 38.4143C24.9459 37.9526 24.6617 37.5618 24.271 37.2421Z" fill="#383838"/>
<path d="M11.3412 28.0776C11.3412 28.5039 10.986 28.8946 10.5243 28.8946C10.098 28.8946 9.70727 28.5394 9.70727 28.0776C9.70727 27.6514 10.0625 27.2606 10.5243 27.2606C10.986 27.2962 11.3412 27.6514 11.3412 28.0776Z" fill="#383838"/>
<path d="M16.776 24.0282C16.9181 23.4243 17.0602 22.8205 17.2023 22.1811C17.4154 21.151 17.664 20.1209 17.8772 19.0907C17.9482 19.1973 18.0548 19.2683 18.0903 19.3394C18.1613 19.4815 18.2324 19.588 18.3034 19.7301C18.3389 19.8012 18.3389 19.8367 18.3745 19.9077C18.5521 20.405 18.6231 20.9378 18.6231 21.4351C18.6231 22.0035 18.5521 22.6074 18.5876 23.1757C18.5876 23.2112 18.5876 23.2112 18.5876 23.2467C18.6231 23.8151 18.7297 24.3834 18.9783 24.8807C18.9783 24.8807 19.0139 24.9162 19.0139 24.9518C18.3389 24.5965 17.3444 24.1348 16.776 24.0282ZM16.3142 23.1757C16.2432 23.5664 16.1366 23.9572 16.0301 24.3479C16.0301 24.3479 15.6748 24.5965 15.6393 24.6321C15.4262 24.7386 15.2131 24.8097 14.9644 24.8097C14.9999 23.2823 14.9644 20.3695 14.8934 20.3695C14.8223 20.3695 14.7868 23.2823 14.8223 24.8097C14.6092 24.8097 14.3961 24.7386 14.2185 24.6321C14.183 24.5965 13.8633 24.3479 13.8277 24.3479C13.6501 23.6019 13.4725 22.856 13.2949 22.0745C12.9397 20.5471 12.549 19.0197 12.2293 17.4568C11.9096 16.0359 11.6609 14.5795 11.8385 13.0876C11.8741 12.839 11.9096 12.6259 11.9451 12.3772C11.9806 12.2706 11.9806 12.1641 12.0162 12.093C12.1227 11.6668 12.2293 11.2405 12.3714 10.8143C12.6555 11.0629 13.1528 11.4892 13.2239 11.5247C13.7212 11.8089 14.254 11.951 14.8223 11.951C14.8223 12.91 14.8579 13.5849 14.8934 13.5849C14.9289 13.5849 14.9289 12.91 14.9644 11.951C15.5328 11.951 16.1011 11.8089 16.5984 11.5247C16.6694 11.4892 17.1667 11.0984 17.4509 10.8143C17.6285 11.276 17.7351 11.7378 17.8417 12.1996C17.8417 12.2351 17.8417 12.2706 17.8417 12.3062C17.9482 12.8745 18.0193 13.4784 18.0193 14.0822C18.0193 15.5741 17.664 17.066 17.3444 18.5224C17.0247 20.0853 16.6694 21.6128 16.3142 23.1757ZM16.0656 24.3834C16.0656 24.4189 16.0656 24.4189 16.0656 24.4545C16.0301 24.6321 15.9945 24.8452 15.9235 25.0228C15.888 25.1649 15.888 25.4135 15.8169 25.5201C15.7459 25.6267 15.7104 25.5911 15.5328 25.5911C15.3552 25.5911 15.1776 25.5911 14.9999 25.5911C14.9999 25.4846 15.0355 25.2359 15.0355 24.9162C15.2841 24.9162 15.5328 24.8452 15.7459 24.7031C15.7459 24.6676 15.9945 24.4545 16.0656 24.3834ZM14.4671 25.5911C14.2185 25.5911 14.254 25.6622 14.183 25.4491C14.0409 25.1294 14.0053 24.7386 13.9343 24.3834C14.0053 24.49 14.2895 24.7031 14.2895 24.7386C14.4671 24.8452 14.6803 24.9162 14.8934 24.9162C14.8934 25.2359 14.9289 25.4846 14.9289 25.5911H14.4671ZM10.915 25.0228C11.0216 24.8807 11.0571 24.7741 11.0926 24.7386C11.2702 24.3124 11.3412 23.8861 11.3768 23.4243C11.3768 23.2112 11.3768 23.0336 11.3768 22.856C11.3768 21.7548 11.1992 20.6182 11.732 19.6236C11.8385 19.446 11.9451 19.3039 12.0517 19.1263L12.0872 19.0907C12.4069 20.5116 12.7266 21.9324 13.0463 23.3533C13.1173 23.6019 13.1528 23.8151 13.2239 24.0637C12.62 24.1703 11.6254 24.5965 10.915 25.0228ZM12.4424 10.7787C12.5845 10.3525 12.7621 9.96176 12.9752 9.5355C13.2594 8.96716 13.5791 8.43434 13.9343 7.93704C14.0409 8.04361 14.254 8.22121 14.2895 8.25674C14.4671 8.3633 14.6803 8.43434 14.8934 8.43434C14.8934 9.49998 14.8934 10.8143 14.8934 11.8799C14.3606 11.8799 13.8277 11.7378 13.3304 11.4892C13.2594 11.4181 12.7266 10.9919 12.4424 10.7787ZM13.9698 7.866C14.0053 7.83048 14.0053 7.79496 14.0409 7.75944C14.1119 7.65287 14.8223 6.80036 14.9289 6.58723C14.8934 6.76484 14.8934 7.43975 14.8934 8.29226C14.6803 8.29226 14.4671 8.22121 14.2895 8.11465C14.254 8.07913 14.0764 7.93704 13.9698 7.866ZM14.9644 6.58723C15.071 6.80036 15.7459 7.61735 15.959 7.90152C15.8525 7.97256 15.7104 8.11465 15.6748 8.11465C15.4617 8.22121 15.2486 8.29226 14.9999 8.29226C14.9999 7.40422 14.9999 6.72932 14.9644 6.58723ZM15.9945 7.93704C15.9945 7.97256 16.0301 7.97257 16.0301 7.97257C16.4918 8.61195 16.8826 9.32238 17.2023 10.0328C17.3088 10.2459 17.3799 10.4946 17.4864 10.7077C17.2023 10.9564 16.6694 11.3471 16.5984 11.3826C16.1011 11.6313 15.5683 11.7733 15.0355 11.7733C15.0355 10.7432 15.0355 9.39342 15.0355 8.3633C15.2841 8.3633 15.5328 8.29226 15.7459 8.15017C15.7104 8.18569 15.888 8.04361 15.9945 7.93704ZM18.3034 16.9595C18.5521 15.6452 18.6586 14.2954 18.481 12.9811C18.4455 12.8035 18.4455 12.6614 18.41 12.4838C18.3745 12.3417 18.3389 12.1996 18.3389 12.0575V11.8089H25.6919C29.2795 11.8089 31.5174 13.4428 31.5174 16.6042V16.7108C31.5174 19.5525 29.4571 21.4707 25.834 21.4707H19.2625C19.227 20.7247 19.0849 19.9433 18.5876 19.3394C18.5521 19.3039 18.4455 19.1973 18.3389 19.1263C18.1969 19.0197 18.0548 18.9131 17.9482 18.8776C18.0548 18.4158 18.1613 17.9541 18.2324 17.5278C18.2679 17.3147 18.3034 17.1371 18.3034 16.9595ZM23.8803 7.15558C24.3421 7.58183 25.017 7.54631 25.4432 7.12005C25.4432 7.12005 25.4432 7.12005 25.4787 7.12005C25.4787 7.12005 25.4787 7.12005 25.4787 7.15558C25.0525 7.58183 25.088 8.29226 25.5143 8.68299C25.5143 8.68299 25.5143 8.68299 25.5143 8.71851C25.5143 8.71851 25.5143 8.71851 25.4787 8.71851C25.0525 8.29226 24.3421 8.32778 23.9513 8.75403C23.9513 8.75403 23.9513 8.75403 23.9158 8.75403C23.9158 8.75403 23.9158 8.75403 23.9158 8.71851C24.3065 8.29226 24.3065 7.58183 23.8803 7.15558ZM32.2633 9.46446C32.5475 9.46446 32.7961 9.71311 32.7961 9.99728C32.7961 10.2815 32.5475 10.5301 32.2633 10.5301C31.9791 10.5301 31.7305 10.2815 31.7305 9.99728C31.7305 9.67759 31.9791 9.46446 32.2633 9.46446ZM30.7359 25.1294C29.8834 25.1294 29.2085 25.8043 29.2085 26.6568C29.2085 26.6568 29.2085 26.6923 29.173 26.6923C29.173 26.6923 29.1374 26.6923 29.1374 26.6568C29.1374 25.8043 28.4625 25.1294 27.61 25.1294C27.61 25.1294 27.5745 25.1294 27.5745 25.0938C27.5745 25.0938 27.5745 25.0583 27.61 25.0583C28.4625 25.0583 29.1374 24.3834 29.1374 23.5309C29.1374 23.5309 29.1374 23.4954 29.173 23.4954C29.173 23.4954 29.2085 23.4954 29.2085 23.5309C29.2085 24.3834 29.8834 25.0583 30.7359 25.0583C30.7714 25.0938 30.7714 25.0938 30.7359 25.1294C30.7714 25.1294 30.7714 25.1294 30.7359 25.1294ZM24.1289 28.0066L31.3398 38.7696H39.9714L31.766 26.7633C36.0286 25.1649 38.9768 21.7548 38.9768 16.3201V16.2135C38.9768 13.0521 37.9822 10.388 36.0996 8.54091C33.8973 6.33858 30.5583 5.13086 26.2957 5.13086H10.915V20.1919C10.6663 20.9023 10.7019 21.6838 10.7374 22.4297C10.7374 22.6429 10.7729 22.8205 10.7729 23.0336C10.8084 23.5664 10.7729 24.1348 10.6308 24.6321C10.5953 24.7386 10.3111 25.307 10.2046 25.5556C10.169 25.5911 10.169 25.6267 10.169 25.6622C10.3111 25.9819 12.4779 25.0583 13.3304 24.4545C13.437 24.8452 13.508 25.2715 13.6146 25.6622C13.6501 25.7687 13.6501 25.9108 13.6857 26.0174C13.6857 26.0529 13.7212 26.0529 13.7212 26.0884C13.5791 26.3016 13.508 27.3672 13.508 27.4738C13.3304 28.9301 13.1884 30.422 12.8331 31.8429C12.7266 32.3402 12.549 32.873 12.3003 33.2993C12.2648 33.0861 11.803 32.5888 11.6254 32.4112L11.5544 32.3402C11.1636 31.985 10.7019 31.7363 10.2401 31.5942C9.95592 31.4877 9.63622 31.4522 9.31653 31.4166C8.53506 31.3456 7.71807 31.5587 7.04317 31.985C6.43931 32.3402 5.97753 32.873 5.65784 33.5124C5.62232 33.4414 5.55127 33.3703 5.51575 33.3348C5.44471 33.2637 5.33814 33.1927 5.30262 33.1572C4.87637 32.8375 4.30803 32.6599 3.77521 32.5888C2.88717 32.4823 1.96362 32.7664 1.28871 33.3348C1.07559 33.5124 0.897979 33.69 0.720372 33.9031C0.400681 34.3294 0.152031 34.8267 0.0454673 35.3595C0.0454673 35.4305 -0.0255754 35.8568 0.00994597 36.1765C0.00994597 36.4251 0.0809886 36.6383 0.223074 36.6383C0.329638 36.6383 0.400681 36.3541 0.436202 36.1765C0.436202 36.1055 0.471723 36.0344 0.471723 35.9989C0.578287 35.7147 0.684851 35.4305 0.826936 35.1464C1.00454 34.7912 1.35976 34.3649 1.78601 34.0452C1.89258 33.9742 1.99914 33.9031 2.1057 33.8321C3.1003 33.2637 4.20146 33.3703 5.2671 33.69C5.33814 33.7255 5.40919 33.761 5.48023 33.761C5.51575 33.761 5.51575 33.761 5.55127 33.761C5.40919 34.0807 5.33814 34.4004 5.2671 34.7201C5.19606 35.2174 5.23158 35.7502 5.37367 36.2475C5.40919 36.3541 5.79992 37.4197 5.97753 37.3132C6.01305 37.2777 5.69336 36.2475 5.69336 36.1054C5.62232 35.6437 5.62231 35.1464 5.72888 34.6846C5.94201 33.761 6.47483 32.9796 7.2563 32.4823C8.10881 31.9495 9.13893 31.7718 10.098 32.0205C10.5243 32.1271 10.9505 32.3402 11.3412 32.5888C11.4123 32.6599 12.1227 33.3348 12.2648 33.3703C12.1938 33.5124 12.0872 33.619 11.9806 33.761C11.7675 34.0097 11.4833 34.2228 11.1636 34.3649C11.0926 34.4004 10.4887 34.5425 10.4887 34.6136C10.4887 34.8267 11.4123 34.578 11.4833 34.5425C11.8385 34.4004 12.1938 34.1518 12.4424 33.8321C13.0108 33.1572 13.2594 32.3047 13.437 31.4522C13.7212 30.0313 13.8633 28.5749 13.8633 27.1186C13.8633 27.0475 13.8633 26.4081 13.8277 26.124H13.8633C14.0409 26.1595 14.254 26.124 14.4316 26.124C14.8223 26.124 15.2131 26.124 15.6038 26.124C15.7104 26.124 15.9945 26.1595 16.1721 26.1595C16.1366 26.3371 16.2077 26.6213 16.2077 26.7633C16.2077 27.0475 16.2432 27.3672 16.2432 27.6514C16.3498 29.0367 16.4918 30.4576 16.705 31.8429C16.7405 32.056 16.776 32.2336 16.8115 32.4468C16.9181 32.9085 17.0602 33.3348 17.3799 33.69C17.593 33.9387 17.8772 34.1518 18.1969 34.2228C18.1969 34.2228 18.2679 34.2228 18.3389 34.2583C18.5521 34.2939 18.9428 34.2939 18.9073 34.1518C18.9073 34.1163 18.5876 34.0807 18.5521 34.0807C18.481 34.0807 18.41 34.0452 18.3389 34.0097C18.2324 33.9742 18.1258 33.9031 18.0548 33.8321C17.8772 33.7255 17.7706 33.5834 17.664 33.4058C17.8061 33.2993 18.1258 32.873 18.1969 32.8375C18.2324 32.802 18.3034 32.7309 18.3745 32.6954C18.5521 32.5533 18.7652 32.4112 18.9783 32.3047C19.6177 32.0205 20.3637 31.985 21.003 32.2336C21.6424 32.4823 22.1397 32.9441 22.4594 33.5834C22.6015 33.8676 22.6726 34.1518 22.7081 34.4715C22.7081 34.578 22.7081 35.2529 22.7791 35.2529C22.9212 35.2885 23.0278 34.507 23.0278 34.436C23.0278 34.2583 23.0278 34.0807 22.9922 33.8676C23.1343 33.9031 23.5251 33.7966 23.5961 33.7966C23.9158 33.761 24.2355 33.7966 24.5552 33.8321C25.1946 33.9387 25.7984 34.2228 26.2957 34.6491C26.5444 34.8622 26.722 35.1109 26.8996 35.3595C27.0417 35.5726 27.1482 35.8213 27.2193 36.0699C27.2548 36.141 27.2548 36.212 27.2903 36.2831C27.3614 36.6028 27.3969 36.9224 27.4324 37.2421C27.4324 37.3132 27.3614 37.846 27.4679 37.8815C27.7876 37.9881 27.7521 36.3186 27.7166 36.212C27.7166 36.1765 27.7166 36.141 27.6811 36.1054C27.61 35.7147 27.4679 35.3595 27.2548 35.0398C27.0772 34.7556 26.8996 34.507 26.6509 34.2939C26.0826 33.7966 25.3367 33.4769 24.5552 33.4414C24.4486 33.4414 23.1699 33.5479 22.9922 33.7966C22.9567 33.6545 22.9212 33.5124 22.8502 33.3703C22.566 32.6244 21.9621 32.056 21.2162 31.7719C20.3992 31.4522 19.5112 31.5232 18.7652 31.985C18.6586 32.056 18.5166 32.1271 18.41 32.2336V28.0066H24.1289Z" fill="#383838"/>
<path d="M14.9653 17.6344C14.2193 17.6344 13.5799 16.9595 13.6865 16.178C13.7576 15.5386 14.3259 15.0413 14.9653 15.0413C15.7467 15.0413 16.3506 15.7517 16.244 16.5332C16.1375 17.1726 15.6047 17.6344 14.9653 17.6344ZM16.7413 16.4266C16.8124 15.3965 15.9244 14.5085 14.8587 14.544C13.9352 14.6151 13.1892 15.3965 13.1892 16.3201C13.1892 17.2792 14.0062 18.0961 14.9653 18.0961C15.8888 18.0961 16.7058 17.3502 16.7413 16.4266Z" fill="#FF7A5A"/>
<path d="M15.1074 15.432C15.0363 15.432 14.5035 15.4676 14.5746 15.5741C14.5746 15.5741 15.0008 15.5031 15.0363 15.5386C15.285 15.5741 15.4981 15.7162 15.6402 15.8938C15.7823 16.107 15.8178 16.3556 15.7468 16.5687C15.7468 16.6042 15.4981 16.995 15.4981 16.995C15.5691 17.066 15.8178 16.6042 15.8533 16.5332C15.9244 16.2846 15.8888 16.0004 15.7468 15.8228C15.6047 15.6097 15.356 15.4676 15.1074 15.432Z" fill="#FF7A5A"/>
<path d="M16.9545 17.6344C17.1676 17.2792 17.3097 16.8884 17.3097 16.4977C17.3097 16.4266 17.2386 15.4676 17.0966 15.5386C17.1321 15.5386 17.2031 16.4977 17.1676 16.6043C17.1321 16.9595 16.99 17.3502 16.7769 17.6344C16.5282 17.9896 16.2085 18.2738 15.8178 18.4514C15.7468 18.4869 14.9298 18.7 14.9298 18.7C14.9298 18.8066 15.8533 18.5579 15.9244 18.5224C16.3506 18.3093 16.7058 17.9896 16.9545 17.6344Z" fill="#FF7A5A"/>
<path d="M13.1537 17.7054C12.905 17.3502 12.763 16.9239 12.7274 16.4977C12.6919 16.0359 12.7985 15.6097 13.0116 15.2189C13.0471 15.1479 13.651 14.4374 13.651 14.4374C13.5799 14.3309 12.9406 15.1124 12.905 15.1479C12.6564 15.5386 12.5498 15.9649 12.5498 16.4266C12.5498 16.8884 12.7274 17.3502 13.0116 17.7409C13.0471 17.7765 13.6865 18.4514 13.7576 18.3448C13.7931 18.3448 13.1892 17.7409 13.1537 17.7054Z" fill="#FF7A5A"/>
<path d="M15.0008 29.6406C14.8587 29.6406 14.8587 34.0097 14.9653 34.0097C15.1074 34.0097 15.1074 29.6406 15.0008 29.6406Z" fill="#FF7A5A"/>
<path d="M8.18072 33.1572C8.57146 32.9796 9.03323 32.9085 9.45949 32.9085C9.53053 32.9085 10.4896 33.0506 10.4896 33.0506C10.5251 32.9085 9.45949 32.7664 9.38845 32.7664C8.92667 32.7664 8.46489 32.8375 8.03863 33.0506C7.6479 33.2282 7.29269 33.5124 7.00852 33.8676C6.973 33.9387 6.36913 34.7912 6.51122 34.8267C6.51122 34.8267 7.07956 34.0097 7.11508 33.9742C7.43477 33.5834 7.78999 33.3348 8.18072 33.1572Z" fill="#FF7A5A"/>
<path d="M18.7661 36.0699C18.3398 35.8568 17.8425 35.7502 17.3452 35.7858C16.8479 35.7858 16.3506 35.9279 15.8888 36.1765C15.8178 36.212 14.8232 36.9225 14.9298 37.029C14.8942 36.9935 15.9244 36.3186 15.9954 36.2831C16.4217 36.0699 16.8834 35.9634 17.3452 35.9634C17.8425 35.9634 18.3043 36.0699 18.7661 36.2475C18.8371 36.2831 19.8317 36.8869 19.8317 36.9225C19.9383 36.7804 18.8371 36.1055 18.7661 36.0699Z" fill="#FF7A5A"/>
<path d="M20.258 37.4197C20.2224 37.4553 20.6487 38.4143 20.7197 38.4143C20.9329 38.3433 20.4 37.2777 20.258 37.4197Z" fill="#FF7A5A"/>
<path d="M25.7282 35.5371C25.4086 35.2529 25.0178 35.0398 24.5916 34.9333C24.5205 34.8977 23.5614 34.7912 23.597 34.8977C23.597 34.8977 24.5205 35.0398 24.6271 35.0753C24.9823 35.1819 25.3375 35.395 25.6217 35.6792C25.9059 35.9634 26.1545 36.3186 26.2966 36.6738C26.3321 36.7448 26.5097 37.6329 26.5097 37.6329C26.6518 37.6329 26.4387 36.7093 26.4031 36.6383C26.2611 36.212 26.0479 35.8568 25.7282 35.5371Z" fill="#FF7A5A"/>
<path d="M8.96218 36.7804C8.57145 36.8514 8.21624 37.0645 8.00311 37.3842C7.75446 37.7039 7.68342 38.1657 7.75446 38.5564C7.75446 38.6275 8.10967 39.48 8.21624 39.3734C8.21624 39.3734 7.89654 38.663 7.89654 38.5564C7.86102 38.2012 7.93207 37.8105 8.14519 37.5263C8.35832 37.2066 8.71354 36.9935 9.10427 36.958C9.17531 36.958 9.92126 36.9935 9.92126 36.9935C9.9923 36.7804 9.03323 36.7448 8.96218 36.7804Z" fill="#FF7A5A"/>
<path d="M3.81159 34.1163C3.34981 34.1163 2.92356 34.2228 2.53282 34.4715C2.14209 34.6846 1.8224 35.0043 1.57375 35.395C1.53823 35.4661 1.11197 36.3541 1.21853 36.3896C1.21853 36.3896 1.64479 35.5371 1.68031 35.5016C1.92896 35.1819 2.21313 34.8977 2.56834 34.6846C2.95908 34.4715 3.38533 34.3294 3.81159 34.2939C3.88263 34.2939 4.80619 34.3649 4.80619 34.3649C4.84171 34.2228 3.84711 34.1163 3.81159 34.1163Z" fill="#FF7A5A"/>
<path d="M8.50041 11.8089C7.64789 11.8089 6.97299 11.134 6.97299 10.2815C6.97299 10.2815 6.97299 10.2459 6.93747 10.2459C6.93747 10.2459 6.90195 10.2459 6.90195 10.2815C6.90195 11.134 6.22704 11.8089 5.37453 11.8089C5.37453 11.8089 5.33901 11.8089 5.33901 11.8444C5.33901 11.8444 5.33901 11.8799 5.37453 11.8799C6.22704 11.8799 6.90195 12.5548 6.90195 13.4073C6.90195 13.4073 6.90195 13.4428 6.93747 13.4428C6.93747 13.4428 6.97299 13.4428 6.97299 13.4073C6.97299 12.5548 7.64789 11.8799 8.50041 11.8799C8.50041 11.8799 8.50041 11.8444 8.50041 11.8089Z" fill="#FF7A5A"/>
<path d="M19.9383 0.90382C19.1568 1.18799 18.2687 0.797256 17.9846 0.0157873C17.9846 0.0157873 17.9491 -0.0197341 17.9491 0.0157873C17.9491 0.0157873 17.9135 0.0513086 17.9491 0.0513086C18.2332 0.832778 17.8425 1.72081 17.061 2.00498C17.061 2.00498 17.0255 2.0405 17.061 2.0405C17.061 2.0405 17.0965 2.07602 17.0965 2.0405C17.878 1.75633 18.766 2.14707 19.0502 2.92854C19.0502 2.92854 19.0502 2.96406 19.0857 2.92854C19.0857 2.92854 19.1213 2.89301 19.0857 2.89301C18.7661 2.11155 19.1568 1.22351 19.9383 0.939342C19.9738 0.939342 19.9738 0.939342 19.9383 0.90382Z" fill="#FF7A5A"/>
<path d="M22.0696 15.5741C21.6433 16.0004 20.9684 16.0359 20.5421 15.6097C20.5421 15.6097 20.5421 15.6097 20.5066 15.6097C20.5066 15.6097 20.5066 15.6097 20.5066 15.6452C20.9329 16.0714 20.9684 16.7463 20.5421 17.1726C20.5421 17.1726 20.5421 17.1726 20.5421 17.2081C20.5421 17.2081 20.5421 17.2081 20.5777 17.2081C21.0039 16.7819 21.6788 16.7463 22.1051 17.1726C22.1051 17.1726 22.1051 17.1726 22.1406 17.1726C22.1406 17.1726 22.1406 17.1726 22.1406 17.1371C21.7143 16.7108 21.6788 16.0004 22.0696 15.5741C22.1051 15.5741 22.1051 15.5741 22.0696 15.5741C22.1051 15.5386 22.1051 15.5386 22.0696 15.5741Z" fill="#FF7A5A"/>
</svg>
