<svg width="189" height="66" viewBox="0 0 189 66" fill="none" xmlns="http://www.w3.org/2000/svg">
<path d="M14.824 41.5097C14.5336 41.2608 14.1601 41.1363 13.7867 41.0948C13.0814 41.0533 12.1271 41.4682 11.8781 42.1736C11.7951 42.1321 11.7121 42.0906 11.6707 42.0491C10.7578 41.6757 9.76206 41.8002 8.97372 42.381C8.18539 42.9619 7.72899 43.8747 7.81197 44.829C7.85346 45.2854 8.01943 45.7418 8.26837 46.1153C8.30986 46.1982 8.84925 46.8621 8.97372 46.6961C9.01522 46.6546 8.64179 46.0323 8.55881 45.9493C8.39285 45.6174 8.30986 45.2439 8.30986 44.8705C8.26837 44.0407 8.68329 43.2939 9.34715 42.796C10.011 42.3396 10.8823 42.2566 11.6292 42.547C11.9611 42.6715 12.2515 42.8789 12.5005 43.1279C12.5835 43.2109 12.9569 43.7088 13.0399 43.7088C13.2058 43.6258 12.7079 42.8789 12.6664 42.796C12.5005 42.5885 12.293 42.4225 12.0856 42.2981C12.1271 42.2566 12.21 42.2151 12.2515 42.1736C12.542 41.9661 12.8739 41.8002 13.2473 41.7172C13.6622 41.6342 14.0771 41.6342 14.4506 41.8417C14.575 41.8831 15.0314 42.3396 15.1559 42.2981C15.4464 42.2151 14.907 41.5512 14.824 41.5097Z" fill="#383838"/>
<path d="M28.3501 43.5013C27.8937 43.1694 27.3128 42.9619 26.7735 42.9619C26.649 42.9619 25.4457 43.1279 25.3628 43.3768C25.1968 42.9619 24.9893 42.5885 24.7404 42.2151C23.9521 41.2193 22.7488 40.5969 21.4626 40.431C20.0934 40.2235 18.6412 40.5554 17.5209 41.3853C17.023 41.7587 16.5666 42.2151 16.2347 42.7545C16.1517 42.8789 15.4464 44.1652 15.6538 44.2481C15.7368 44.2896 16.4007 43.1694 16.4836 43.0449C16.8156 42.63 17.2305 42.2151 17.6869 41.9246C18.7242 41.2193 20.0104 40.8874 21.2966 41.0533C22.4584 41.2193 23.6201 41.7587 24.367 42.6715C24.7404 43.1279 25.0308 43.6673 25.1553 44.2067C25.1968 44.3311 25.2383 45.6174 25.2798 45.6174C25.5702 45.7003 25.5287 44.2067 25.5287 44.1237C25.4872 43.9162 25.4457 43.7088 25.4042 43.5013C25.5702 43.5428 26.5245 43.4598 26.649 43.4598C27.1469 43.5013 27.6448 43.7088 28.0182 43.9992C28.4331 44.2896 28.7235 44.7045 28.931 45.161C28.9725 45.2854 29.1799 46.3642 29.2629 46.3642C29.6364 46.4057 29.3874 44.995 29.3459 44.8705C29.1385 44.3311 28.8065 43.8747 28.3501 43.5013Z" fill="#383838"/>
<path d="M13.2473 32.7966C13.2473 33.2945 12.8324 33.7509 12.293 33.7509C11.7951 33.7509 11.3387 33.3359 11.3387 32.7966C11.3387 32.2987 11.7536 31.8423 12.293 31.8423C12.8324 31.8838 13.2473 32.2987 13.2473 32.7966Z" fill="#383838"/>
<path d="M19.5955 28.0666C19.7614 27.3612 19.9274 26.6559 20.0934 25.909C20.3423 24.7058 20.6328 23.5025 20.8817 22.2993C20.9647 22.4238 21.0892 22.5067 21.1307 22.5897C21.2136 22.7557 21.2966 22.8802 21.3796 23.0461C21.4211 23.1291 21.4211 23.1706 21.4626 23.2536C21.67 23.8345 21.753 24.4568 21.753 25.0377C21.753 25.7016 21.67 26.4069 21.7115 27.0708C21.7115 27.1123 21.7115 27.1123 21.7115 27.1538C21.753 27.8176 21.8775 28.4815 22.1679 29.0624C22.1679 29.0624 22.2094 29.1038 22.2094 29.1453C21.4211 28.7304 20.2593 28.191 19.5955 28.0666ZM19.0561 27.0708C18.9731 27.5272 18.8486 27.9836 18.7242 28.44C18.7242 28.44 18.3093 28.7304 18.2678 28.7719C18.0188 28.8964 17.7699 28.9794 17.4794 28.9794C17.5209 27.1952 17.4794 23.793 17.3964 23.793C17.3135 23.793 17.272 27.1952 17.3135 28.9794C17.0645 28.9794 16.8156 28.8964 16.6081 28.7719C16.5666 28.7304 16.1932 28.44 16.1517 28.44C15.9443 27.5687 15.7368 26.6974 15.5293 25.7845C15.1144 24.0004 14.658 22.2163 14.2846 20.3907C13.9112 18.731 13.6207 17.0299 13.8282 15.2873C13.8697 14.9968 13.9112 14.7479 13.9527 14.4574C13.9942 14.333 13.9942 14.2085 14.0357 14.1255C14.1601 13.6276 14.2846 13.1297 14.4506 12.6318C14.7825 12.9223 15.3634 13.4202 15.4464 13.4616C16.0272 13.7936 16.6496 13.9595 17.3135 13.9595C17.3135 15.0798 17.355 15.8681 17.3964 15.8681C17.4379 15.8681 17.4379 15.0798 17.4794 13.9595C18.1433 13.9595 18.8071 13.7936 19.388 13.4616C19.471 13.4202 20.0519 12.9638 20.3838 12.6318C20.5913 13.1712 20.7157 13.7106 20.8402 14.25C20.8402 14.2915 20.8402 14.333 20.8402 14.3745C20.9647 15.0383 21.0477 15.7437 21.0477 16.449C21.0477 18.1916 20.6328 19.9343 20.2593 21.6354C19.8859 23.461 19.471 25.2452 19.0561 27.0708ZM18.7657 28.4815C18.7657 28.523 18.7657 28.523 18.7657 28.5645C18.7242 28.7719 18.6827 29.0209 18.5997 29.2283C18.5582 29.3943 18.5582 29.6847 18.4752 29.8092C18.3922 29.9337 18.3507 29.8922 18.1433 29.8922C17.9358 29.8922 17.7284 29.8922 17.5209 29.8922C17.5209 29.7677 17.5624 29.4773 17.5624 29.1038C17.8529 29.1038 18.1433 29.0209 18.3922 28.8549C18.3922 28.8134 18.6827 28.5645 18.7657 28.4815ZM16.8986 29.8922C16.6081 29.8922 16.6496 29.9752 16.5666 29.7262C16.4007 29.3528 16.3592 28.8964 16.2762 28.4815C16.3592 28.6059 16.6911 28.8549 16.6911 28.8964C16.8986 29.0209 17.1475 29.1038 17.3964 29.1038C17.3964 29.4773 17.4379 29.7677 17.4379 29.8922H16.8986ZM12.7494 29.2283C12.8739 29.0624 12.9154 28.9379 12.9569 28.8964C13.1643 28.3985 13.2473 27.9006 13.2888 27.3612C13.2888 27.1123 13.2888 26.9048 13.2888 26.6974C13.2888 25.4111 13.0814 24.0834 13.7037 22.9216C13.8282 22.7142 13.9527 22.5482 14.0771 22.3408L14.1186 22.2993C14.4921 23.9589 14.8655 25.6186 15.2389 27.2782C15.3219 27.5687 15.3634 27.8176 15.4464 28.1081C14.741 28.2325 13.5793 28.7304 12.7494 29.2283ZM14.5336 12.5903C14.6995 12.0924 14.907 11.636 15.1559 11.1381C15.4878 10.4743 15.8613 9.85191 16.2762 9.27103C16.4007 9.39551 16.6496 9.60296 16.6911 9.64445C16.8986 9.76893 17.1475 9.85191 17.3964 9.85191C17.3964 11.0966 17.3964 12.6318 17.3964 13.8766C16.7741 13.8766 16.1517 13.7106 15.5708 13.4202C15.4878 13.3372 14.8655 12.8393 14.5336 12.5903ZM16.3177 9.18805C16.3592 9.14656 16.3592 9.10507 16.4007 9.06358C16.4836 8.9391 17.3135 7.94331 17.4379 7.69437C17.3964 7.90182 17.3964 8.69016 17.3964 9.68595C17.1475 9.68595 16.8986 9.60296 16.6911 9.47849C16.6496 9.437 16.4421 9.27103 16.3177 9.18805ZM17.4794 7.69437C17.6039 7.94331 18.3922 8.89761 18.6412 9.22954C18.5167 9.31252 18.3507 9.47849 18.3093 9.47849C18.0603 9.60296 17.8114 9.68595 17.5209 9.68595C17.5209 8.64866 17.5209 7.86033 17.4794 7.69437ZM18.6827 9.27103C18.6827 9.31252 18.7242 9.31252 18.7242 9.31252C19.2636 10.0594 19.72 10.8892 20.0934 11.719C20.2178 11.968 20.3008 12.2584 20.4253 12.5073C20.0934 12.7978 19.471 13.2542 19.388 13.2957C18.8071 13.5861 18.1848 13.7521 17.5624 13.7521C17.5624 12.5488 17.5624 10.9722 17.5624 9.76893C17.8529 9.76893 18.1433 9.68595 18.3922 9.51998C18.3507 9.56147 18.5582 9.39551 18.6827 9.27103ZM21.3796 19.8098C21.67 18.2746 21.7945 16.698 21.5871 15.1628C21.5456 14.9553 21.5456 14.7894 21.5041 14.5819C21.4626 14.4159 21.4211 14.25 21.4211 14.084V13.7936H30.0098C34.2004 13.7936 36.8144 15.7022 36.8144 19.3949V19.5194C36.8144 22.8387 34.4079 25.0792 30.1758 25.0792H22.4999C22.4584 24.2079 22.2924 23.2951 21.7115 22.5897C21.67 22.5482 21.5456 22.4238 21.4211 22.3408C21.2551 22.2163 21.0892 22.0918 20.9647 22.0503C21.0892 21.5109 21.2136 20.9716 21.2966 20.4737C21.3381 20.2247 21.3796 20.0173 21.3796 19.8098ZM27.8937 8.35823C28.4331 8.85612 29.2215 8.81463 29.7193 8.31673C29.7193 8.31673 29.7193 8.31673 29.7608 8.31673C29.7608 8.31673 29.7608 8.31673 29.7608 8.35823C29.2629 8.85612 29.3044 9.68595 29.8023 10.1423C29.8023 10.1423 29.8023 10.1423 29.8023 10.1838C29.8023 10.1838 29.8023 10.1838 29.7608 10.1838C29.2629 9.68595 28.4331 9.72744 27.9767 10.2253C27.9767 10.2253 27.9767 10.2253 27.9352 10.2253C27.9352 10.2253 27.9352 10.2253 27.9352 10.1838C28.3916 9.68595 28.3916 8.85612 27.8937 8.35823ZM37.6857 11.0552C38.0176 11.0552 38.308 11.3456 38.308 11.6775C38.308 12.0095 38.0176 12.2999 37.6857 12.2999C37.3537 12.2999 37.0633 12.0095 37.0633 11.6775C37.0633 11.3041 37.3537 11.0552 37.6857 11.0552ZM35.9015 29.3528C34.9057 29.3528 34.1174 30.1411 34.1174 31.1369C34.1174 31.1369 34.1174 31.1784 34.0759 31.1784C34.0759 31.1784 34.0344 31.1784 34.0344 31.1369C34.0344 30.1411 33.2461 29.3528 32.2503 29.3528C32.2503 29.3528 32.2088 29.3528 32.2088 29.3113C32.2088 29.3113 32.2088 29.2698 32.2503 29.2698C33.2461 29.2698 34.0344 28.4815 34.0344 27.4857C34.0344 27.4857 34.0344 27.4442 34.0759 27.4442C34.0759 27.4442 34.1174 27.4442 34.1174 27.4857C34.1174 28.4815 34.9057 29.2698 35.9015 29.2698C35.943 29.3113 35.943 29.3113 35.9015 29.3528C35.943 29.3528 35.943 29.3528 35.9015 29.3528ZM28.1842 32.7136L36.6069 45.2854H46.6893L37.1048 31.2614C42.0837 29.3943 45.5275 25.4111 45.5275 19.063V18.9385C45.5275 15.2458 44.3658 12.1339 42.1667 9.97638C39.5943 7.40393 35.6941 5.99323 30.7151 5.99323H12.7494V23.5855C12.459 24.4153 12.5005 25.3281 12.542 26.1995C12.542 26.4484 12.5835 26.6559 12.5835 26.9048C12.625 27.5272 12.5835 28.191 12.4175 28.7719C12.376 28.8964 12.0441 29.5603 11.9196 29.8507C11.8781 29.8922 11.8781 29.9337 11.8781 29.9752C12.0441 30.3486 14.575 29.2698 15.5708 28.5645C15.6953 29.0209 15.7783 29.5188 15.9028 29.9752C15.9443 30.0996 15.9443 30.2656 15.9857 30.3901C15.9857 30.4316 16.0272 30.4316 16.0272 30.4731C15.8613 30.722 15.7783 31.9667 15.7783 32.0912C15.5708 33.7924 15.4049 35.535 14.99 37.1946C14.8655 37.7755 14.658 38.3979 14.3676 38.8958C14.3261 38.6468 13.7867 38.066 13.5793 37.8585L13.4963 37.7755C13.0399 37.3606 12.5005 37.0702 11.9611 36.9042C11.6292 36.7797 11.2557 36.7382 10.8823 36.6967C9.96952 36.6138 9.01522 36.8627 8.22688 37.3606C7.52153 37.7755 6.98215 38.3979 6.60873 39.1447C6.56723 39.0617 6.48425 38.9788 6.44276 38.9373C6.35978 38.8543 6.2353 38.7713 6.19381 38.7298C5.69592 38.3564 5.03206 38.1489 4.40969 38.066C3.37241 37.9415 2.29364 38.2734 1.5053 38.9373C1.25635 39.1447 1.0489 39.3522 0.841442 39.6011C0.468021 40.099 0.177583 40.6799 0.0531088 41.3023C0.0531088 41.3853 -0.0298737 41.8831 0.0116175 42.2566C0.0116175 42.547 0.0946001 42.796 0.260565 42.796C0.385039 42.796 0.468021 42.464 0.509512 42.2566C0.509512 42.1736 0.551004 42.0906 0.551004 42.0491C0.675477 41.7172 0.799951 41.3853 0.965916 41.0533C1.17337 40.6384 1.58828 40.1405 2.08618 39.7671C2.21065 39.6841 2.33513 39.6011 2.4596 39.5182C3.62136 38.8543 4.90758 38.9788 6.15232 39.3522C6.2353 39.3937 6.31829 39.4352 6.40127 39.4352C6.44276 39.4352 6.44276 39.4352 6.48425 39.4352C6.31829 39.8086 6.2353 40.182 6.15232 40.5554C6.06934 41.1363 6.11083 41.7587 6.27679 42.3396C6.31829 42.464 6.77469 43.7088 6.98215 43.5843C7.02364 43.5428 6.65022 42.3395 6.65022 42.1736C6.56723 41.6342 6.56723 41.0533 6.69171 40.5139C6.94065 39.4352 7.56302 38.5224 8.47583 37.9415C9.47162 37.3191 10.6749 37.1117 11.7951 37.4021C12.293 37.5266 12.7909 37.7755 13.2473 38.066C13.3303 38.1489 14.1601 38.9373 14.3261 38.9788C14.2431 39.1447 14.1186 39.2692 13.9942 39.4352C13.7452 39.7256 13.4133 39.9746 13.0399 40.1405C12.9569 40.182 12.2515 40.348 12.2515 40.431C12.2515 40.6799 13.3303 40.3895 13.4133 40.348C13.8282 40.182 14.2431 39.8916 14.5336 39.5182C15.1974 38.7298 15.4878 37.734 15.6953 36.7382C16.0272 35.0786 16.1932 33.3774 16.1932 31.6763C16.1932 31.5933 16.1932 30.8465 16.1517 30.5145H16.1932C16.4007 30.556 16.6496 30.5145 16.8571 30.5145C17.3135 30.5145 17.7699 30.5145 18.2263 30.5145C18.3507 30.5145 18.6827 30.556 18.8901 30.556C18.8486 30.7635 18.9316 31.0954 18.9316 31.2614C18.9316 31.5933 18.9731 31.9667 18.9731 32.2987C19.0976 33.9168 19.2636 35.5765 19.5125 37.1946C19.554 37.4436 19.5955 37.651 19.637 37.9C19.7614 38.4394 19.9274 38.9373 20.3008 39.3522C20.5498 39.6426 20.8817 39.8916 21.2551 39.9746C21.2551 39.9746 21.3381 39.9745 21.4211 40.016C21.67 40.0575 22.1264 40.0575 22.085 39.8916C22.085 39.8501 21.7115 39.8086 21.67 39.8086C21.5871 39.8086 21.5041 39.7671 21.4211 39.7256C21.2966 39.6841 21.1721 39.6011 21.0892 39.5182C20.8817 39.3937 20.7572 39.2277 20.6328 39.0203C20.7987 38.8958 21.1722 38.3979 21.2551 38.3564C21.2966 38.3149 21.3796 38.2319 21.4626 38.1904C21.67 38.0245 21.919 37.8585 22.1679 37.734C22.9148 37.4021 23.7861 37.3606 24.5329 37.651C25.2798 37.9415 25.8607 38.4809 26.2341 39.2277C26.4 39.5596 26.483 39.8916 26.5245 40.265C26.5245 40.3895 26.5245 41.1778 26.6075 41.1778C26.7735 41.2193 26.8979 40.3065 26.8979 40.2235C26.8979 40.016 26.8979 39.8086 26.8565 39.5596C27.0224 39.6011 27.4788 39.4767 27.5618 39.4767C27.9352 39.4352 28.3086 39.4767 28.6821 39.5182C29.4289 39.6426 30.1343 39.9746 30.7151 40.4724C31.0056 40.7214 31.213 41.0118 31.4205 41.3023C31.5865 41.5512 31.7109 41.8417 31.7939 42.1321C31.8354 42.2151 31.8354 42.2981 31.8769 42.381C31.9599 42.7545 32.0014 43.1279 32.0429 43.5013C32.0429 43.5843 31.9599 44.2067 32.0843 44.2481C32.4578 44.3726 32.4163 42.4225 32.3748 42.2981C32.3748 42.2566 32.3748 42.2151 32.3333 42.1736C32.2503 41.7172 32.0843 41.3023 31.8354 40.9288C31.6279 40.5969 31.4205 40.3065 31.13 40.0575C30.4662 39.4767 29.5949 39.1032 28.6821 39.0617C28.5576 39.0617 27.0639 39.1862 26.8565 39.4767C26.815 39.3107 26.7735 39.1447 26.6905 38.9788C26.3586 38.1074 25.6532 37.4436 24.7819 37.1117C23.8276 36.7382 22.7903 36.8212 21.919 37.3606C21.7945 37.4436 21.6286 37.5266 21.5041 37.651V32.7136H28.1842Z" fill="#383838"/>
<path d="M69.9659 21.9674H76.7704V45.078H69.9659V42.3396C67.9328 44.5801 65.0699 45.7003 61.3772 45.7003C57.8504 45.7003 54.863 44.5386 52.3321 42.1736C49.8426 39.8086 48.5564 36.9457 48.5564 33.5019C48.5564 30.0996 49.8011 27.1953 52.3321 24.8303C54.8216 22.4653 57.8504 21.3035 61.3772 21.3035C65.0699 21.3035 67.9328 22.4238 69.9659 24.6643V21.9674ZM57.477 38.1904C58.8462 39.3937 60.5888 40.016 62.7049 40.016C64.8209 40.016 66.5636 39.3937 67.9328 38.1904C69.302 36.9872 70.0073 35.4105 70.0073 33.5019C70.0073 31.5933 69.302 30.0167 67.9328 28.8134C66.5636 27.6102 64.8209 26.9878 62.7049 26.9878C60.5888 26.9878 58.8462 27.6102 57.477 28.8134C56.1078 30.0167 55.4439 31.5933 55.4439 33.5019C55.4024 35.4105 56.1078 36.9872 57.477 38.1904Z" fill="#383838"/>
<path d="M112.038 45.0365H103.657L90.504 29.8922V45.0365H83.2431V12.7148H90.504V26.9878L103.117 12.7148H111.499L97.848 28.44L112.038 45.0365Z" fill="#383838"/>
<path d="M118.677 35.9499C119.589 38.8543 122.079 40.3065 126.103 40.3065C128.717 40.3065 130.668 39.5181 131.995 37.983L137.472 40.7629C134.858 44.0407 131.041 45.7003 125.979 45.7003C121.622 45.7003 118.137 44.5386 115.523 42.2566C112.909 39.9331 111.582 37.0287 111.582 33.5434C111.582 30.0581 112.868 27.1538 115.482 24.8302C118.096 22.5067 121.415 21.345 125.481 21.345C129.34 21.345 132.535 22.5067 135.024 24.8717C137.514 27.1952 138.8 30.0996 138.8 33.5434C138.8 34.3317 138.717 35.1201 138.551 35.9914H118.677V35.9499ZM118.552 31.3444H131.954C131.58 29.7677 130.751 28.606 129.547 27.8176C128.344 27.0293 126.975 26.6559 125.398 26.6559C123.573 26.6559 122.079 27.0708 120.876 27.9006C119.755 28.6889 118.925 29.8507 118.552 31.3444Z" fill="#383838"/>
<path d="M157.761 27.6931H151.828V37.3191C151.828 38.1074 152.036 38.6883 152.492 39.0617C152.948 39.4352 153.612 39.6426 154.484 39.6841C155.355 39.7256 156.434 39.7256 157.761 39.6426V45.0365C153.114 45.4929 149.795 45.1195 147.886 43.8747C145.978 42.63 145.024 40.431 145.024 37.2776V27.6931H140.459V21.9673H145.024V17.2788L151.828 15.4947V21.9673H157.761V27.6931Z" fill="#383838"/>
<path d="M181.785 21.9673H188.589V45.078H181.785V42.3395C179.752 44.5801 176.889 45.7003 173.196 45.7003C169.669 45.7003 166.682 44.5386 164.151 42.1736C161.661 39.8086 160.375 36.9457 160.375 33.5019C160.375 30.0996 161.62 27.1952 164.151 24.8302C166.64 22.4652 169.669 21.3035 173.196 21.3035C176.889 21.3035 179.752 22.4238 181.785 24.6643V21.9673ZM169.254 38.1904C170.624 39.3937 172.366 40.016 174.482 40.016C176.598 40.016 178.341 39.3937 179.71 38.1904C181.079 36.9872 181.785 35.4105 181.785 33.5019C181.785 31.5933 181.079 30.0167 179.71 28.8134C178.341 27.6102 176.598 26.9878 174.482 26.9878C172.366 26.9878 170.624 27.6102 169.254 28.8134C167.885 30.0167 167.221 31.5933 167.221 33.5019C167.18 35.4105 167.885 36.9872 169.254 38.1904Z" fill="#383838"/>
<path d="M17.4795 20.5981C16.6082 20.5981 15.8613 19.8098 15.9858 18.897C16.0688 18.1501 16.7326 17.5692 17.4795 17.5692C18.3923 17.5692 19.0976 18.3991 18.9732 19.3119C18.8487 20.0587 18.2263 20.5981 17.4795 20.5981ZM19.554 19.1874C19.637 17.9842 18.5997 16.9469 17.355 16.9884C16.2762 17.0713 15.4049 17.9842 15.4049 19.0629C15.4049 20.1832 16.3592 21.1375 17.4795 21.1375C18.5583 21.1375 19.5126 20.2662 19.554 19.1874Z" fill="#FF7A5A"/>
<path d="M17.6455 18.0256C17.5625 18.0256 16.9401 18.0671 17.0231 18.1916C17.0231 18.1916 17.521 18.1086 17.5625 18.1501C17.8529 18.1916 18.1019 18.3576 18.2678 18.565C18.4338 18.814 18.4753 19.1044 18.3923 19.3534C18.3923 19.3949 18.1019 19.8513 18.1019 19.8513C18.1848 19.9342 18.4753 19.3949 18.5168 19.3119C18.5998 19.0214 18.5583 18.6895 18.3923 18.482C18.2263 18.2331 17.9359 18.0671 17.6455 18.0256Z" fill="#FF7A5A"/>
<path d="M19.803 20.5981C20.052 20.1832 20.2179 19.7268 20.2179 19.2704C20.2179 19.1874 20.1349 18.0671 19.969 18.1501C20.0105 18.1501 20.0934 19.2704 20.052 19.3949C20.0105 19.8098 19.8445 20.2662 19.5955 20.5981C19.3051 21.013 18.9317 21.3449 18.4753 21.5524C18.3923 21.5939 17.438 21.8428 17.438 21.8428C17.438 21.9673 18.5168 21.6769 18.5998 21.6354C19.0977 21.3864 19.5126 21.013 19.803 20.5981Z" fill="#FF7A5A"/>
<path d="M15.3634 20.6811C15.073 20.2662 14.907 19.7683 14.8655 19.2704C14.8241 18.731 14.9485 18.2331 15.1975 17.7767C15.239 17.6937 15.9443 16.8639 15.9443 16.8639C15.8613 16.7394 15.1145 17.6522 15.073 17.6937C14.7826 18.1501 14.6581 18.648 14.6581 19.1874C14.6581 19.7268 14.8655 20.2662 15.1975 20.7226C15.239 20.7641 15.9858 21.5524 16.0688 21.4279C16.1103 21.4279 15.4049 20.7226 15.3634 20.6811Z" fill="#FF7A5A"/>
<path d="M17.521 34.6221C17.355 34.6221 17.355 39.7256 17.4795 39.7256C17.6455 39.7256 17.6455 34.6221 17.521 34.6221Z" fill="#FF7A5A"/>
<path d="M9.55468 38.7298C10.0111 38.5223 10.5505 38.4393 11.0484 38.4393C11.1313 38.4393 12.2516 38.6053 12.2516 38.6053C12.2931 38.4393 11.0484 38.2734 10.9654 38.2734C10.426 38.2734 9.88661 38.3563 9.38871 38.6053C8.93231 38.8127 8.5174 39.1447 8.18547 39.5596C8.14398 39.6426 7.43862 40.6384 7.60459 40.6799C7.60459 40.6799 8.26845 39.7256 8.30994 39.6841C8.68336 39.2277 9.09827 38.9372 9.55468 38.7298Z" fill="#FF7A5A"/>
<path d="M21.9191 42.1321C21.4212 41.8831 20.8403 41.7586 20.2594 41.8001C19.6785 41.8001 19.0977 41.9661 18.5583 42.2565C18.4753 42.298 17.3135 43.1279 17.438 43.2523C17.3965 43.2108 18.5998 42.4225 18.6827 42.381C19.1806 42.1321 19.72 42.0076 20.2594 42.0076C20.8403 42.0076 21.3797 42.1321 21.9191 42.3395C22.002 42.381 23.1638 43.0864 23.1638 43.1279C23.2883 42.9619 22.002 42.1736 21.9191 42.1321Z" fill="#FF7A5A"/>
<path d="M23.6617 43.7087C23.6202 43.7502 24.1181 44.8705 24.2011 44.8705C24.45 44.7875 23.8277 43.5428 23.6617 43.7087Z" fill="#FF7A5A"/>
<path d="M30.0513 41.5097C29.6779 41.1778 29.2215 40.9288 28.7236 40.8043C28.6406 40.7628 27.5204 40.6384 27.5619 40.7628C27.5619 40.7628 28.6406 40.9288 28.7651 40.9703C29.18 41.0948 29.5949 41.3437 29.9269 41.6757C30.2588 42.0076 30.5492 42.4225 30.7152 42.8374C30.7567 42.9204 30.9641 43.9577 30.9641 43.9577C31.1301 43.9577 30.8812 42.8789 30.8397 42.7959C30.6737 42.298 30.4248 41.8831 30.0513 41.5097Z" fill="#FF7A5A"/>
<path d="M10.4675 42.9619C10.0111 43.0449 9.59616 43.2938 9.34722 43.6672C9.05678 44.0407 8.9738 44.58 9.05678 45.0364C9.05678 45.1194 9.47169 46.1152 9.59616 45.9907C9.59616 45.9907 9.22274 45.1609 9.22274 45.0364C9.18125 44.6215 9.26423 44.1651 9.51318 43.8332C9.76213 43.4598 10.177 43.2108 10.6334 43.1693C10.7164 43.1693 11.5877 43.2108 11.5877 43.2108C11.6707 42.9619 10.5505 42.9204 10.4675 42.9619Z" fill="#FF7A5A"/>
<path d="M4.45125 39.85C3.91186 39.85 3.41397 39.9745 2.95756 40.265C2.50116 40.5139 2.12774 40.8873 1.8373 41.3437C1.79581 41.4267 1.29791 42.464 1.42239 42.5055C1.42239 42.5055 1.92028 41.5097 1.96177 41.4682C2.25221 41.0948 2.58414 40.7628 2.99905 40.5139C3.45546 40.265 3.95335 40.099 4.45125 40.0575C4.53423 40.0575 5.613 40.1405 5.613 40.1405C5.65449 39.9745 4.49274 39.85 4.45125 39.85Z" fill="#FF7A5A"/>
<path d="M9.92809 13.7935C8.9323 13.7935 8.14397 13.0052 8.14397 12.0094C8.14397 12.0094 8.14397 11.9679 8.10248 11.9679C8.10248 11.9679 8.06098 11.9679 8.06098 12.0094C8.06098 13.0052 7.27265 13.7935 6.27686 13.7935C6.27686 13.7935 6.23537 13.7935 6.23537 13.835C6.23537 13.835 6.23537 13.8765 6.27686 13.8765C7.27265 13.8765 8.06098 14.6649 8.06098 15.6606C8.06098 15.6606 8.06099 15.7021 8.10248 15.7021C8.10248 15.7021 8.14397 15.7021 8.14397 15.6606C8.14397 14.6649 8.9323 13.8765 9.92809 13.8765C9.92809 13.8765 9.92809 13.835 9.92809 13.7935Z" fill="#FF7A5A"/>
<path d="M23.2882 1.05572C22.3754 1.38765 21.3382 0.931248 21.0062 0.0184406C21.0062 0.0184406 20.9647 -0.0230507 20.9647 0.0184406C20.9647 0.0184406 20.9232 0.0599318 20.9647 0.0599318C21.2967 0.972739 20.8403 2.01002 19.9275 2.34195C19.9275 2.34195 19.886 2.38344 19.9275 2.38344C19.9275 2.38344 19.9689 2.42493 19.9689 2.38344C20.8818 2.05151 21.919 2.50792 22.251 3.42072C22.251 3.42072 22.251 3.46221 22.2925 3.42072C22.2925 3.42072 22.334 3.37923 22.2925 3.37923C21.919 2.46642 22.3754 1.42914 23.2882 1.09721C23.3297 1.09721 23.3297 1.09721 23.2882 1.05572Z" fill="#FF7A5A"/>
<path d="M25.7777 18.1916C25.2799 18.6895 24.4915 18.731 23.9936 18.2331C23.9936 18.2331 23.9936 18.2331 23.9521 18.2331C23.9521 18.2331 23.9521 18.2331 23.9521 18.2746C24.45 18.7725 24.4915 19.5608 23.9936 20.0587C23.9936 20.0587 23.9936 20.0587 23.9936 20.1002C23.9936 20.1002 23.9936 20.1002 24.0351 20.1002C24.533 19.6023 25.3213 19.5608 25.8192 20.0587C25.8192 20.0587 25.8192 20.0587 25.8607 20.0587C25.8607 20.0587 25.8607 20.0587 25.8607 20.0172C25.3628 19.5193 25.3213 18.6895 25.7777 18.1916C25.8192 18.1916 25.8192 18.1916 25.7777 18.1916C25.8192 18.1501 25.8192 18.1501 25.7777 18.1916Z" fill="#FF7A5A"/>
<path d="M56.8547 60.1807C57.2696 60.3882 57.6015 60.6786 57.8505 61.0521C58.0994 61.4255 58.2239 61.8819 58.2239 62.3383C58.2239 63.0851 57.9749 63.7075 57.4356 64.2054C56.9377 64.7033 56.2738 64.9522 55.527 64.9522H51.5853V55.7827H55.278C55.9834 55.7827 56.6057 56.0316 57.1036 56.488C57.6015 56.9859 57.8505 57.5668 57.8505 58.2721C57.8505 59.0605 57.5185 59.7243 56.8547 60.1807ZM55.278 56.9029H52.83V59.7243H55.278C55.6514 59.7243 55.9834 59.5999 56.2323 59.3094C56.4813 59.019 56.6057 58.6871 56.6057 58.3136C56.6057 57.9402 56.4813 57.6083 56.1908 57.3178C55.9419 57.0274 55.6514 56.9029 55.278 56.9029ZM55.5685 63.7905C55.9834 63.7905 56.3153 63.666 56.6057 63.3756C56.8962 63.0851 57.0206 62.7532 57.0206 62.2968C57.0206 61.8819 56.8962 61.55 56.6057 61.2595C56.3153 60.9691 55.9834 60.8446 55.5685 60.8446H52.83V63.832H55.5685V63.7905Z" fill="#FF7A5A"/>
<path d="M65.6923 64.9522L64.9455 62.8777H60.7963L60.0495 64.9522H58.7633L62.2071 55.7827H63.5763L67.02 64.9522H65.6923ZM61.2528 61.7574H64.5306L62.8709 57.2349L61.2528 61.7574Z" fill="#FF7A5A"/>
<path d="M73.5342 64.9522L71.4596 61.4255H69.302V64.9522H68.0988V55.7827H71.7915C72.5799 55.7827 73.2437 56.0731 73.8246 56.6125C74.364 57.1519 74.6544 57.8572 74.6544 58.6456C74.6544 59.2264 74.4885 59.7658 74.115 60.2637C73.7416 60.7616 73.2852 61.0936 72.7458 61.301L74.9034 64.9937H73.5342V64.9522ZM69.302 56.9029V60.3467H71.75C72.2064 60.3467 72.5799 60.1807 72.9118 59.8488C73.2437 59.5169 73.4097 59.102 73.4097 58.6456C73.4097 58.1892 73.2437 57.7743 72.9118 57.4423C72.5799 57.1104 72.2064 56.9444 71.75 56.9444H69.302V56.9029Z" fill="#FF7A5A"/>
<path d="M81.3345 60.1807C81.7494 60.3882 82.0814 60.6786 82.3303 61.0521C82.5792 61.4255 82.7037 61.8819 82.7037 62.3383C82.7037 63.0851 82.4548 63.7075 81.9154 64.2054C81.4175 64.7033 80.7536 64.9522 80.0068 64.9522H76.0651V55.7827H79.7578C80.4632 55.7827 81.0856 56.0316 81.5835 56.488C82.0814 56.9859 82.3303 57.5668 82.3303 58.2721C82.3303 59.0605 81.9984 59.7243 81.3345 60.1807ZM79.7993 56.9029H77.3514V59.7243H79.7993C80.1728 59.7243 80.5047 59.5999 80.7536 59.3094C81.0026 59.019 81.1271 58.6871 81.1271 58.3136C81.1271 57.9402 81.0026 57.6083 80.7121 57.3178C80.4632 57.0274 80.1728 56.9029 79.7993 56.9029ZM80.0483 63.7905C80.4632 63.7905 80.7951 63.666 81.0856 63.3756C81.376 63.0851 81.5005 62.7532 81.5005 62.2968C81.5005 61.8819 81.376 61.55 81.0856 61.2595C80.7951 60.9691 80.4632 60.8446 80.0483 60.8446H77.3099V63.832H80.0483V63.7905Z" fill="#FF7A5A"/>
<path d="M85.4007 63.7905H89.6743V64.9522H84.1559V55.7827H89.5913V56.9444H85.4007V59.7658H89.2593V60.9276H85.4007V63.7905Z" fill="#FF7A5A"/>
<path d="M96.5618 64.9522L94.4872 61.4255H92.3297V64.9522H91.1264V55.7827H94.8192C95.6075 55.7827 96.2714 56.0731 96.8522 56.6125C97.3916 57.1519 97.6821 57.8572 97.6821 58.6456C97.6821 59.2264 97.5161 59.7658 97.1427 60.2637C96.7693 60.7616 96.3128 61.0936 95.7735 61.301L97.931 64.9937H96.5618V64.9522ZM92.3297 56.9029V60.3467H94.7777C95.2341 60.3467 95.6075 60.1807 95.9394 59.8488C96.2714 59.5169 96.4373 59.102 96.4373 58.6456C96.4373 58.1892 96.2714 57.7743 95.9394 57.4423C95.6075 57.1104 95.2341 56.9444 94.7777 56.9444H92.3297V56.9029Z" fill="#FF7A5A"/>
<path d="M105.399 65.1182C104.528 65.1182 103.823 64.9107 103.2 64.4958C102.578 64.0809 102.163 63.5415 101.914 62.8362L102.951 62.2138C103.325 63.3341 104.113 63.8735 105.399 63.8735C106.022 63.8735 106.52 63.749 106.852 63.5C107.184 63.2511 107.35 62.9192 107.35 62.4628C107.35 62.0064 107.184 61.7159 106.852 61.467C106.52 61.2595 105.98 61.0106 105.192 60.7616C104.819 60.6371 104.528 60.5542 104.321 60.4712C104.113 60.3882 103.864 60.2637 103.574 60.1393C103.283 59.9733 103.034 59.8488 102.91 59.6828C102.785 59.5169 102.62 59.3094 102.495 59.0605C102.371 58.8115 102.329 58.5211 102.329 58.1477C102.329 57.3593 102.62 56.737 103.159 56.2391C103.698 55.7827 104.404 55.5337 105.192 55.5337C105.897 55.5337 106.561 55.6997 107.101 56.0731C107.64 56.4465 108.055 56.9444 108.304 57.5253L107.267 58.1062C106.893 57.1519 106.188 56.6955 105.192 56.6955C104.694 56.6955 104.279 56.82 103.989 57.0689C103.698 57.3179 103.532 57.6498 103.532 58.0647C103.532 58.4796 103.657 58.77 103.947 58.9775C104.238 59.185 104.736 59.3924 105.441 59.6414C105.69 59.7243 105.856 59.7658 105.98 59.8073C106.105 59.8488 106.229 59.8903 106.478 59.9733C106.686 60.0563 106.852 60.1393 106.976 60.1807C107.101 60.2222 107.225 60.3052 107.391 60.3882C107.557 60.4712 107.723 60.5957 107.806 60.6786C107.889 60.7616 108.013 60.8861 108.096 61.0106C108.221 61.135 108.304 61.2595 108.345 61.384C108.387 61.5085 108.428 61.6744 108.47 61.8404C108.511 62.0064 108.511 62.1723 108.511 62.3798C108.511 63.1681 108.221 63.832 107.64 64.2884C107.101 64.8693 106.312 65.1182 105.399 65.1182Z" fill="#FF7A5A"/>
<path d="M114.237 65.1182C112.826 65.1182 111.706 64.6618 110.793 63.749C109.881 62.8362 109.424 61.7159 109.424 60.3467C109.424 59.019 109.881 57.8987 110.793 56.9444C111.706 55.9901 112.826 55.5752 114.237 55.5752C115.067 55.5752 115.855 55.7827 116.561 56.1976C117.266 56.6125 117.805 57.1519 118.22 57.8157L117.141 58.4381C116.893 57.9402 116.478 57.5253 115.98 57.2349C115.44 56.9444 114.901 56.7785 114.237 56.7785C113.158 56.7785 112.328 57.1104 111.665 57.8157C111.001 58.4796 110.669 59.3509 110.669 60.3882C110.669 61.384 111.001 62.2553 111.665 62.9192C112.328 63.583 113.2 63.9564 114.237 63.9564C114.859 63.9564 115.44 63.7905 115.98 63.5C116.519 63.2096 116.893 62.7947 117.141 62.2968L118.22 62.9192C117.847 63.583 117.307 64.1639 116.561 64.5373C115.855 64.9107 115.108 65.1182 114.237 65.1182Z" fill="#FF7A5A"/>
<path d="M125.274 55.7412H126.477V64.9107H125.274V60.7616H120.793V64.9107H119.589V55.7412H120.793V59.6414H125.274V55.7412Z" fill="#FF7A5A"/>
<path d="M136.103 63.7075C135.19 64.6203 134.07 65.1182 132.742 65.1182C131.414 65.1182 130.294 64.6618 129.381 63.7075C128.469 62.7532 128.012 61.6744 128.012 60.3467C128.012 59.019 128.469 57.8987 129.381 56.9859C130.294 56.0731 131.414 55.6167 132.742 55.6167C134.07 55.6167 135.19 56.0731 136.103 56.9859C137.016 57.8987 137.472 59.019 137.472 60.3467C137.472 61.6744 137.016 62.7947 136.103 63.7075ZM130.17 62.8777C130.834 63.583 131.705 63.915 132.701 63.915C133.696 63.915 134.568 63.583 135.232 62.8777C135.895 62.1723 136.269 61.3425 136.269 60.3467C136.269 59.3509 135.937 58.4796 135.232 57.8157C134.568 57.1104 133.696 56.7785 132.701 56.7785C131.705 56.7785 130.834 57.1104 130.17 57.8157C129.506 58.5211 129.132 59.3509 129.132 60.3467C129.174 61.3425 129.506 62.2138 130.17 62.8777Z" fill="#FF7A5A"/>
<path d="M146.6 63.7075C145.687 64.6203 144.567 65.1182 143.239 65.1182C141.912 65.1182 140.791 64.6618 139.879 63.7075C138.966 62.7532 138.509 61.6744 138.509 60.3467C138.509 59.019 138.966 57.8987 139.879 56.9859C140.791 56.0731 141.912 55.6167 143.239 55.6167C144.567 55.6167 145.687 56.0731 146.6 56.9859C147.513 57.8987 147.969 59.019 147.969 60.3467C147.969 61.6744 147.513 62.7947 146.6 63.7075ZM140.667 62.8777C141.331 63.583 142.202 63.915 143.198 63.915C144.194 63.915 145.065 63.583 145.729 62.8777C146.393 62.1723 146.766 61.3425 146.766 60.3467C146.766 59.3509 146.434 58.4796 145.729 57.8157C145.065 57.1104 144.194 56.7785 143.198 56.7785C142.202 56.7785 141.331 57.1104 140.667 57.8157C140.003 58.5211 139.63 59.3509 139.63 60.3467C139.671 61.3425 140.003 62.2138 140.667 62.8777Z" fill="#FF7A5A"/>
<path d="M154.608 63.7905V64.9522H149.422V55.7827H150.625V63.7905H154.608Z" fill="#FF7A5A"/>
</svg>
