<svg width="189" height="47" viewBox="0 0 189 47" fill="none" xmlns="http://www.w3.org/2000/svg">
<path d="M14.824 41.5097C14.5336 41.2607 14.1601 41.1362 13.7867 41.0948C13.0814 41.0533 12.1271 41.4682 11.8781 42.1735C11.7951 42.132 11.7121 42.0905 11.6707 42.0491C10.7578 41.6756 9.76206 41.8001 8.97372 42.381C8.18539 42.9619 7.72899 43.8747 7.81197 44.829C7.85346 45.2854 8.01943 45.7418 8.26837 46.1152C8.30986 46.1982 8.84925 46.862 8.97372 46.6961C9.01522 46.6546 8.64179 46.0322 8.55881 45.9492C8.39285 45.6173 8.30986 45.2439 8.30986 44.8705C8.26837 44.0406 8.68329 43.2938 9.34715 42.7959C10.011 42.3395 10.8823 42.2565 11.6292 42.5469C11.9611 42.6714 12.2515 42.8789 12.5005 43.1278C12.5835 43.2108 12.9569 43.7087 13.0399 43.7087C13.2058 43.6257 12.7079 42.8789 12.6664 42.7959C12.5005 42.5884 12.293 42.4225 12.0856 42.298C12.1271 42.2565 12.21 42.215 12.2515 42.1735C12.542 41.9661 12.8739 41.8001 13.2473 41.7171C13.6622 41.6341 14.0771 41.6341 14.4506 41.8416C14.575 41.8831 15.0314 42.3395 15.1559 42.298C15.4464 42.215 14.907 41.5512 14.824 41.5097Z" fill="#8D8D8D"/>
<path d="M28.3501 43.5012C27.8937 43.1693 27.3128 42.9619 26.7735 42.9619C26.649 42.9619 25.4457 43.1278 25.3628 43.3768C25.1968 42.9619 24.9893 42.5884 24.7404 42.215C23.9521 41.2192 22.7488 40.5969 21.4626 40.4309C20.0934 40.2234 18.6412 40.5554 17.5209 41.3852C17.023 41.7586 16.5666 42.215 16.2347 42.7544C16.1517 42.8789 15.4464 44.1651 15.6538 44.2481C15.7368 44.2896 16.4007 43.1693 16.4836 43.0448C16.8156 42.6299 17.2305 42.215 17.6869 41.9246C18.7242 41.2192 20.0104 40.8873 21.2966 41.0533C22.4584 41.2192 23.6201 41.7586 24.367 42.6714C24.7404 43.1278 25.0308 43.6672 25.1553 44.2066C25.1968 44.3311 25.2383 45.6173 25.2798 45.6173C25.5702 45.7003 25.5287 44.2066 25.5287 44.1236C25.4872 43.9162 25.4457 43.7087 25.4042 43.5012C25.5702 43.5427 26.5245 43.4598 26.649 43.4598C27.1469 43.5012 27.6448 43.7087 28.0182 43.9991C28.4331 44.2896 28.7235 44.7045 28.931 45.1609C28.9725 45.2854 29.1799 46.3641 29.2629 46.3641C29.6364 46.4056 29.3874 44.9949 29.3459 44.8705C29.1385 44.3311 28.8065 43.8747 28.3501 43.5012Z" fill="#8D8D8D"/>
<path d="M13.2473 32.7965C13.2473 33.2944 12.8324 33.7508 12.293 33.7508C11.7951 33.7508 11.3387 33.3359 11.3387 32.7965C11.3387 32.2986 11.7536 31.8422 12.293 31.8422C12.8324 31.8837 13.2473 32.2986 13.2473 32.7965Z" fill="#8D8D8D"/>
<path d="M19.5955 28.0665C19.7614 27.3612 19.9274 26.6558 20.0934 25.909C20.3423 24.7057 20.6328 23.5025 20.8817 22.2992C20.9647 22.4237 21.0892 22.5067 21.1307 22.5897C21.2136 22.7556 21.2966 22.8801 21.3796 23.0461C21.4211 23.129 21.4211 23.1705 21.4626 23.2535C21.67 23.8344 21.753 24.4568 21.753 25.0376C21.753 25.7015 21.67 26.4069 21.7115 27.0707C21.7115 27.1122 21.7115 27.1122 21.7115 27.1537C21.753 27.8176 21.8775 28.4814 22.1679 29.0623C22.1679 29.0623 22.2094 29.1038 22.2094 29.1453C21.4211 28.7304 20.2593 28.191 19.5955 28.0665ZM19.0561 27.0707C18.9731 27.5271 18.8486 27.9835 18.7242 28.4399C18.7242 28.4399 18.3093 28.7304 18.2678 28.7719C18.0188 28.8963 17.7699 28.9793 17.4794 28.9793C17.5209 27.1952 17.4794 23.7929 17.3964 23.7929C17.3135 23.7929 17.272 27.1952 17.3135 28.9793C17.0645 28.9793 16.8156 28.8963 16.6081 28.7719C16.5666 28.7304 16.1932 28.4399 16.1517 28.4399C15.9443 27.5686 15.7368 26.6973 15.5293 25.7845C15.1144 24.0004 14.658 22.2162 14.2846 20.3906C13.9112 18.731 13.6207 17.0298 13.8282 15.2872C13.8697 14.9968 13.9112 14.7478 13.9527 14.4574C13.9942 14.3329 13.9942 14.2084 14.0357 14.1254C14.1601 13.6276 14.2846 13.1297 14.4506 12.6318C14.7825 12.9222 15.3634 13.4201 15.4464 13.4616C16.0272 13.7935 16.6496 13.9595 17.3135 13.9595C17.3135 15.0797 17.355 15.8681 17.3964 15.8681C17.4379 15.8681 17.4379 15.0797 17.4794 13.9595C18.1433 13.9595 18.8071 13.7935 19.388 13.4616C19.471 13.4201 20.0519 12.9637 20.3838 12.6318C20.5913 13.1711 20.7157 13.7105 20.8402 14.2499C20.8402 14.2914 20.8402 14.3329 20.8402 14.3744C20.9647 15.0383 21.0477 15.7436 21.0477 16.449C21.0477 18.1916 20.6328 19.9342 20.2593 21.6354C19.8859 23.461 19.471 25.2451 19.0561 27.0707ZM18.7657 28.4814C18.7657 28.5229 18.7657 28.5229 18.7657 28.5644C18.7242 28.7719 18.6827 29.0208 18.5997 29.2283C18.5582 29.3942 18.5582 29.6847 18.4752 29.8091C18.3922 29.9336 18.3507 29.8921 18.1433 29.8921C17.9358 29.8921 17.7284 29.8921 17.5209 29.8921C17.5209 29.7676 17.5624 29.4772 17.5624 29.1038C17.8529 29.1038 18.1433 29.0208 18.3922 28.8548C18.3922 28.8133 18.6827 28.5644 18.7657 28.4814ZM16.8986 29.8921C16.6081 29.8921 16.6496 29.9751 16.5666 29.7262C16.4007 29.3527 16.3592 28.8963 16.2762 28.4814C16.3592 28.6059 16.6911 28.8548 16.6911 28.8963C16.8986 29.0208 17.1475 29.1038 17.3964 29.1038C17.3964 29.4772 17.4379 29.7676 17.4379 29.8921H16.8986ZM12.7494 29.2283C12.8739 29.0623 12.9154 28.9378 12.9569 28.8963C13.1643 28.3984 13.2473 27.9005 13.2888 27.3612C13.2888 27.1122 13.2888 26.9048 13.2888 26.6973C13.2888 25.4111 13.0814 24.0833 13.7037 22.9216C13.8282 22.7141 13.9527 22.5482 14.0771 22.3407L14.1186 22.2992C14.4921 23.9589 14.8655 25.6185 15.2389 27.2782C15.3219 27.5686 15.3634 27.8176 15.4464 28.108C14.741 28.2325 13.5793 28.7304 12.7494 29.2283ZM14.5336 12.5903C14.6995 12.0924 14.907 11.636 15.1559 11.1381C15.4879 10.4742 15.8613 9.85185 16.2762 9.27097C16.4007 9.39545 16.6496 9.6029 16.6911 9.64439C16.8986 9.76887 17.1475 9.85185 17.3964 9.85185C17.3964 11.0966 17.3964 12.6318 17.3964 13.8765C16.7741 13.8765 16.1517 13.7105 15.5708 13.4201C15.4879 13.3371 14.8655 12.8392 14.5336 12.5903ZM16.3177 9.18799C16.3592 9.1465 16.3592 9.10501 16.4007 9.06352C16.4836 8.93904 17.3135 7.94325 17.4379 7.69431C17.3964 7.90176 17.3964 8.69009 17.3964 9.68588C17.1475 9.68588 16.8986 9.6029 16.6911 9.47843C16.6496 9.43694 16.4421 9.27097 16.3177 9.18799ZM17.4794 7.69431C17.6039 7.94325 18.3922 8.89755 18.6412 9.22948C18.5167 9.31246 18.3507 9.47843 18.3093 9.47843C18.0603 9.6029 17.8114 9.68588 17.5209 9.68588C17.5209 8.6486 17.5209 7.86027 17.4794 7.69431ZM18.6827 9.27097C18.6827 9.31246 18.7242 9.31246 18.7242 9.31246C19.2636 10.0593 19.72 10.8891 20.0934 11.719C20.2178 11.9679 20.3008 12.2583 20.4253 12.5073C20.0934 12.7977 19.471 13.2541 19.388 13.2956C18.8071 13.5861 18.1848 13.752 17.5624 13.752C17.5624 12.5488 17.5624 10.9721 17.5624 9.76887C17.8529 9.76887 18.1433 9.68588 18.3922 9.51992C18.3507 9.56141 18.5582 9.39545 18.6827 9.27097ZM21.3796 19.8097C21.67 18.2746 21.7945 16.6979 21.5871 15.1627C21.5456 14.9553 21.5456 14.7893 21.5041 14.5819C21.4626 14.4159 21.4211 14.2499 21.4211 14.084V13.7935H30.0098C34.2004 13.7935 36.8144 15.7021 36.8144 19.3948V19.5193C36.8144 22.8386 34.4079 25.0791 30.1758 25.0791H22.4999C22.4584 24.2078 22.2924 23.295 21.7115 22.5897C21.67 22.5482 21.5456 22.4237 21.4211 22.3407C21.2551 22.2162 21.0892 22.0918 20.9647 22.0503C21.0892 21.5109 21.2136 20.9715 21.2966 20.4736C21.3381 20.2247 21.3796 20.0172 21.3796 19.8097ZM27.8937 8.35817C28.4331 8.85606 29.2215 8.81457 29.7193 8.31667C29.7193 8.31667 29.7193 8.31667 29.7608 8.31667C29.7608 8.31667 29.7608 8.31667 29.7608 8.35817C29.2629 8.85606 29.3044 9.68588 29.8023 10.1423C29.8023 10.1423 29.8023 10.1423 29.8023 10.1838C29.8023 10.1838 29.8023 10.1838 29.7608 10.1838C29.2629 9.68588 28.4331 9.72738 27.9767 10.2253C27.9767 10.2253 27.9767 10.2253 27.9352 10.2253C27.9352 10.2253 27.9352 10.2253 27.9352 10.1838C28.3916 9.68588 28.3916 8.85606 27.8937 8.35817ZM37.6857 11.0551C38.0176 11.0551 38.308 11.3455 38.308 11.6775C38.308 12.0094 38.0176 12.2998 37.6857 12.2998C37.3537 12.2998 37.0633 12.0094 37.0633 11.6775C37.0633 11.304 37.3537 11.0551 37.6857 11.0551ZM35.9015 29.3527C34.9058 29.3527 34.1174 30.1411 34.1174 31.1369C34.1174 31.1369 34.1174 31.1783 34.0759 31.1783C34.0759 31.1783 34.0344 31.1783 34.0344 31.1369C34.0344 30.1411 33.2461 29.3527 32.2503 29.3527C32.2503 29.3527 32.2088 29.3527 32.2088 29.3112C32.2088 29.3112 32.2088 29.2697 32.2503 29.2697C33.2461 29.2697 34.0344 28.4814 34.0344 27.4856C34.0344 27.4856 34.0344 27.4441 34.0759 27.4441C34.0759 27.4441 34.1174 27.4441 34.1174 27.4856C34.1174 28.4814 34.9058 29.2697 35.9015 29.2697C35.943 29.3112 35.943 29.3112 35.9015 29.3527C35.943 29.3527 35.943 29.3527 35.9015 29.3527ZM28.1842 32.7135L36.6069 45.2854H46.6893L37.1048 31.2613C42.0837 29.3942 45.5275 25.4111 45.5275 19.0629V18.9384C45.5275 15.2457 44.3658 12.1339 42.1667 9.97632C39.5943 7.40387 35.6941 5.99316 30.7151 5.99316H12.7494V23.5855C12.459 24.4153 12.5005 25.3281 12.542 26.1994C12.542 26.4483 12.5835 26.6558 12.5835 26.9047C12.625 27.5271 12.5835 28.191 12.4175 28.7719C12.376 28.8963 12.0441 29.5602 11.9196 29.8506C11.8781 29.8921 11.8781 29.9336 11.8781 29.9751C12.0441 30.3485 14.575 29.2698 15.5708 28.5644C15.6953 29.0208 15.7783 29.5187 15.9028 29.9751C15.9443 30.0996 15.9443 30.2655 15.9857 30.39C15.9857 30.4315 16.0272 30.4315 16.0272 30.473C15.8613 30.7219 15.7783 31.9667 15.7783 32.0912C15.5708 33.7923 15.4049 35.5349 14.99 37.1946C14.8655 37.7755 14.658 38.3978 14.3676 38.8957C14.3261 38.6468 13.7867 38.0659 13.5793 37.8584L13.4963 37.7755C13.0399 37.3605 12.5005 37.0701 11.9611 36.9041C11.6292 36.7797 11.2557 36.7382 10.8823 36.6967C9.96951 36.6137 9.01522 36.8626 8.22688 37.3605C7.52153 37.7755 6.98215 38.3978 6.60873 39.1447C6.56723 39.0617 6.48425 38.9787 6.44276 38.9372C6.35978 38.8542 6.2353 38.7712 6.19381 38.7298C5.69592 38.3563 5.03206 38.1489 4.40969 38.0659C3.37241 37.9414 2.29364 38.2733 1.5053 38.9372C1.25635 39.1447 1.0489 39.3521 0.841442 39.6011C0.468021 40.099 0.177583 40.6798 0.0531088 41.3022C0.0531088 41.3852 -0.0298737 41.8831 0.0116175 42.2565C0.0116175 42.5469 0.0946001 42.7959 0.260565 42.7959C0.385039 42.7959 0.468021 42.464 0.509512 42.2565C0.509512 42.1735 0.551004 42.0905 0.551004 42.0491C0.675477 41.7171 0.799951 41.3852 0.965916 41.0533C1.17337 40.6383 1.58828 40.1405 2.08618 39.767C2.21065 39.6841 2.33513 39.6011 2.4596 39.5181C3.62136 38.8542 4.90758 38.9787 6.15232 39.3521C6.2353 39.3936 6.31829 39.4351 6.40127 39.4351C6.44276 39.4351 6.44276 39.4351 6.48425 39.4351C6.31829 39.8085 6.2353 40.1819 6.15232 40.5554C6.06934 41.1362 6.11083 41.7586 6.27679 42.3395C6.31829 42.464 6.77469 43.7087 6.98215 43.5842C7.02364 43.5427 6.65022 42.3395 6.65022 42.1735C6.56723 41.6341 6.56723 41.0533 6.69171 40.5139C6.94065 39.4351 7.56302 38.5223 8.47583 37.9414C9.47162 37.3191 10.6749 37.1116 11.7951 37.402C12.293 37.5265 12.7909 37.7755 13.2473 38.0659C13.3303 38.1489 14.1601 38.9372 14.3261 38.9787C14.2431 39.1447 14.1186 39.2691 13.9942 39.4351C13.7452 39.7255 13.4133 39.9745 13.0399 40.1405C12.9569 40.1819 12.2515 40.3479 12.2515 40.4309C12.2515 40.6798 13.3303 40.3894 13.4133 40.3479C13.8282 40.1819 14.2431 39.8915 14.5336 39.5181C15.1974 38.7298 15.4878 37.734 15.6953 36.7382C16.0272 35.0785 16.1932 33.3774 16.1932 31.6762C16.1932 31.5933 16.1932 30.8464 16.1517 30.5145H16.1932C16.4007 30.556 16.6496 30.5145 16.8571 30.5145C17.3135 30.5145 17.7699 30.5145 18.2263 30.5145C18.3507 30.5145 18.6827 30.556 18.8901 30.556C18.8486 30.7634 18.9316 31.0954 18.9316 31.2613C18.9316 31.5933 18.9731 31.9667 18.9731 32.2986C19.0976 33.9168 19.2636 35.5764 19.5125 37.1946C19.554 37.4435 19.5955 37.651 19.637 37.8999C19.7614 38.4393 19.9274 38.9372 20.3008 39.3521C20.5498 39.6426 20.8817 39.8915 21.2551 39.9745C21.2551 39.9745 21.3381 39.9745 21.4211 40.016C21.67 40.0575 22.1264 40.0575 22.085 39.8915C22.085 39.85 21.7115 39.8085 21.67 39.8085C21.5871 39.8085 21.5041 39.767 21.4211 39.7255C21.2966 39.6841 21.1721 39.6011 21.0892 39.5181C20.8817 39.3936 20.7572 39.2276 20.6328 39.0202C20.7987 38.8957 21.1721 38.3978 21.2551 38.3563C21.2966 38.3148 21.3796 38.2319 21.4626 38.1904C21.67 38.0244 21.919 37.8584 22.1679 37.734C22.9148 37.402 23.7861 37.3605 24.5329 37.651C25.2798 37.9414 25.8607 38.4808 26.2341 39.2276C26.4 39.5596 26.483 39.8915 26.5245 40.2649C26.5245 40.3894 26.5245 41.1777 26.6075 41.1777C26.7735 41.2192 26.8979 40.3064 26.8979 40.2234C26.8979 40.016 26.8979 39.8085 26.8565 39.5596C27.0224 39.6011 27.4788 39.4766 27.5618 39.4766C27.9352 39.4351 28.3086 39.4766 28.6821 39.5181C29.4289 39.6426 30.1343 39.9745 30.7151 40.4724C31.0056 40.7213 31.213 41.0118 31.4205 41.3022C31.5865 41.5512 31.7109 41.8416 31.7939 42.132C31.8354 42.215 31.8354 42.298 31.8769 42.381C31.9599 42.7544 32.0014 43.1278 32.0429 43.5012C32.0429 43.5842 31.9599 44.2066 32.0843 44.2481C32.4578 44.3726 32.4163 42.4225 32.3748 42.298C32.3748 42.2565 32.3748 42.215 32.3333 42.1735C32.2503 41.7171 32.0844 41.3022 31.8354 40.9288C31.6279 40.5969 31.4205 40.3064 31.13 40.0575C30.4662 39.4766 29.5949 39.1032 28.6821 39.0617C28.5576 39.0617 27.0639 39.1862 26.8565 39.4766C26.815 39.3106 26.7735 39.1447 26.6905 38.9787C26.3586 38.1074 25.6532 37.4435 24.7819 37.1116C23.8276 36.7382 22.7903 36.8212 21.919 37.3605C21.7945 37.4435 21.6286 37.5265 21.5041 37.651V32.7135H28.1842Z" fill="#8D8D8D"/>
<path d="M69.9659 21.9673H76.7704V45.0779H69.9659V42.3395C67.9328 44.58 65.0699 45.7003 61.3772 45.7003C57.8504 45.7003 54.863 44.5385 52.3321 42.1735C49.8426 39.8085 48.5564 36.9456 48.5564 33.5019C48.5564 30.0996 49.8011 27.1952 52.3321 24.8302C54.8216 22.4652 57.8504 21.3034 61.3772 21.3034C65.0699 21.3034 67.9328 22.4237 69.9659 24.6642V21.9673ZM57.477 38.1904C58.8462 39.3936 60.5888 40.016 62.7049 40.016C64.8209 40.016 66.5636 39.3936 67.9328 38.1904C69.302 36.9871 70.0073 35.4105 70.0073 33.5019C70.0073 31.5933 69.302 30.0166 67.9328 28.8134C66.5636 27.6101 64.8209 26.9877 62.7049 26.9877C60.5888 26.9877 58.8462 27.6101 57.477 28.8134C56.1078 30.0166 55.4439 31.5933 55.4439 33.5019C55.4024 35.4105 56.1078 36.9871 57.477 38.1904Z" fill="#8D8D8D"/>
<path d="M112.038 45.0364H103.657L90.504 29.8921V45.0364H83.2431V12.7147H90.504V26.9877L103.117 12.7147H111.499L97.848 28.4399L112.038 45.0364Z" fill="#8D8D8D"/>
<path d="M118.677 35.9498C119.589 38.8542 122.079 40.3064 126.103 40.3064C128.717 40.3064 130.668 39.5181 131.995 37.9829L137.472 40.7628C134.858 44.0406 131.041 45.7003 125.979 45.7003C121.622 45.7003 118.137 44.5385 115.523 42.2565C112.909 39.933 111.582 37.0286 111.582 33.5433C111.582 30.0581 112.868 27.1537 115.482 24.8302C118.096 22.5067 121.415 21.3449 125.481 21.3449C129.34 21.3449 132.535 22.5067 135.024 24.8717C137.514 27.1952 138.8 30.0996 138.8 33.5433C138.8 34.3317 138.717 35.12 138.551 35.9913H118.677V35.9498ZM118.552 31.3443H131.954C131.58 29.7676 130.751 28.6059 129.547 27.8176C128.344 27.0292 126.975 26.6558 125.398 26.6558C123.573 26.6558 122.079 27.0707 120.876 27.9005C119.755 28.6889 118.925 29.8506 118.552 31.3443Z" fill="#8D8D8D"/>
<path d="M157.761 27.6931H151.828V37.319C151.828 38.1074 152.036 38.6883 152.492 39.0617C152.948 39.4351 153.612 39.6426 154.484 39.684C155.355 39.7255 156.434 39.7255 157.761 39.6426V45.0364C153.114 45.4928 149.795 45.1194 147.886 43.8747C145.978 42.6299 145.024 40.4309 145.024 37.2776V27.6931H140.459V21.9673H145.024V17.2788L151.828 15.4947V21.9673H157.761V27.6931Z" fill="#8D8D8D"/>
<path d="M181.785 21.9673H188.589V45.0779H181.785V42.3395C179.752 44.58 176.889 45.7003 173.196 45.7003C169.669 45.7003 166.682 44.5385 164.151 42.1735C161.661 39.8085 160.375 36.9456 160.375 33.5019C160.375 30.0996 161.62 27.1952 164.151 24.8302C166.64 22.4652 169.669 21.3034 173.196 21.3034C176.889 21.3034 179.752 22.4237 181.785 24.6642V21.9673ZM169.254 38.1904C170.624 39.3936 172.366 40.016 174.482 40.016C176.598 40.016 178.341 39.3936 179.71 38.1904C181.079 36.9871 181.785 35.4104 181.785 33.5019C181.785 31.5933 181.079 30.0166 179.71 28.8133C178.341 27.6101 176.598 26.9877 174.482 26.9877C172.366 26.9877 170.624 27.6101 169.254 28.8133C167.885 30.0166 167.221 31.5933 167.221 33.5019C167.18 35.4104 167.885 36.9871 169.254 38.1904Z" fill="#8D8D8D"/>
<path d="M17.4795 20.5981C16.6082 20.5981 15.8613 19.8098 15.9858 18.897C16.0688 18.1501 16.7326 17.5692 17.4795 17.5692C18.3923 17.5692 19.0976 18.3991 18.9732 19.3119C18.8487 20.0587 18.2263 20.5981 17.4795 20.5981ZM19.554 19.1874C19.637 17.9842 18.5997 16.9469 17.355 16.9884C16.2762 17.0713 15.4049 17.9842 15.4049 19.0629C15.4049 20.1832 16.3592 21.1375 17.4795 21.1375C18.5583 21.1375 19.5126 20.2662 19.554 19.1874Z" fill="#FF7A5A"/>
<path d="M17.6455 18.0256C17.5625 18.0256 16.9401 18.0671 17.0231 18.1916C17.0231 18.1916 17.521 18.1086 17.5625 18.1501C17.8529 18.1916 18.1019 18.3576 18.2678 18.565C18.4338 18.814 18.4753 19.1044 18.3923 19.3534C18.3923 19.3949 18.1019 19.8513 18.1019 19.8513C18.1848 19.9342 18.4753 19.3949 18.5168 19.3119C18.5998 19.0214 18.5583 18.6895 18.3923 18.482C18.2263 18.2331 17.9359 18.0671 17.6455 18.0256Z" fill="#FF7A5A"/>
<path d="M19.803 20.5981C20.052 20.1832 20.2179 19.7268 20.2179 19.2704C20.2179 19.1874 20.1349 18.0671 19.969 18.1501C20.0105 18.1501 20.0934 19.2704 20.052 19.3949C20.0105 19.8098 19.8445 20.2662 19.5955 20.5981C19.3051 21.013 18.9317 21.3449 18.4753 21.5524C18.3923 21.5939 17.438 21.8428 17.438 21.8428C17.438 21.9673 18.5168 21.6769 18.5998 21.6354C19.0977 21.3864 19.5126 21.013 19.803 20.5981Z" fill="#FF7A5A"/>
<path d="M15.3634 20.6811C15.073 20.2662 14.907 19.7683 14.8655 19.2704C14.8241 18.731 14.9485 18.2331 15.1975 17.7767C15.239 17.6937 15.9443 16.8639 15.9443 16.8639C15.8613 16.7394 15.1145 17.6522 15.073 17.6937C14.7826 18.1501 14.6581 18.648 14.6581 19.1874C14.6581 19.7268 14.8655 20.2662 15.1975 20.7226C15.239 20.7641 15.9858 21.5524 16.0688 21.4279C16.1103 21.4279 15.4049 20.7226 15.3634 20.6811Z" fill="#FF7A5A"/>
<path d="M17.521 34.6221C17.355 34.6221 17.355 39.7256 17.4795 39.7256C17.6455 39.7256 17.6455 34.6221 17.521 34.6221Z" fill="#FF7A5A"/>
<path d="M9.55468 38.7298C10.0111 38.5223 10.5505 38.4393 11.0484 38.4393C11.1313 38.4393 12.2516 38.6053 12.2516 38.6053C12.2931 38.4393 11.0484 38.2734 10.9654 38.2734C10.426 38.2734 9.88661 38.3563 9.38871 38.6053C8.93231 38.8127 8.5174 39.1447 8.18547 39.5596C8.14398 39.6426 7.43862 40.6384 7.60459 40.6799C7.60459 40.6799 8.26845 39.7256 8.30994 39.6841C8.68336 39.2277 9.09828 38.9372 9.55468 38.7298Z" fill="#FF7A5A"/>
<path d="M21.9191 42.1321C21.4212 41.8831 20.8403 41.7586 20.2594 41.8001C19.6785 41.8001 19.0977 41.9661 18.5583 42.2565C18.4753 42.298 17.3135 43.1279 17.438 43.2523C17.3965 43.2108 18.5998 42.4225 18.6827 42.381C19.1806 42.1321 19.72 42.0076 20.2594 42.0076C20.8403 42.0076 21.3797 42.1321 21.9191 42.3395C22.002 42.381 23.1638 43.0864 23.1638 43.1278C23.2883 42.9619 22.002 42.1736 21.9191 42.1321Z" fill="#FF7A5A"/>
<path d="M23.6617 43.7087C23.6202 43.7502 24.1181 44.8705 24.2011 44.8705C24.45 44.7875 23.8277 43.5428 23.6617 43.7087Z" fill="#FF7A5A"/>
<path d="M30.0513 41.5097C29.6779 41.1778 29.2215 40.9288 28.7236 40.8043C28.6406 40.7628 27.5204 40.6384 27.5619 40.7628C27.5619 40.7628 28.6406 40.9288 28.7651 40.9703C29.18 41.0948 29.5949 41.3437 29.9269 41.6757C30.2588 42.0076 30.5492 42.4225 30.7152 42.8374C30.7567 42.9204 30.9641 43.9577 30.9641 43.9577C31.1301 43.9577 30.8812 42.8789 30.8397 42.7959C30.6737 42.298 30.4248 41.8831 30.0513 41.5097Z" fill="#FF7A5A"/>
<path d="M10.4675 42.9619C10.0111 43.0449 9.59616 43.2938 9.34722 43.6672C9.05678 44.0407 8.9738 44.58 9.05678 45.0364C9.05678 45.1194 9.47169 46.1152 9.59616 45.9907C9.59616 45.9907 9.22274 45.1609 9.22274 45.0364C9.18125 44.6215 9.26423 44.1651 9.51318 43.8332C9.76213 43.4598 10.177 43.2108 10.6334 43.1693C10.7164 43.1693 11.5877 43.2108 11.5877 43.2108C11.6707 42.9619 10.5505 42.9204 10.4675 42.9619Z" fill="#FF7A5A"/>
<path d="M4.45125 39.85C3.91186 39.85 3.41397 39.9745 2.95756 40.265C2.50116 40.5139 2.12774 40.8873 1.8373 41.3437C1.79581 41.4267 1.29791 42.464 1.42239 42.5055C1.42239 42.5055 1.92028 41.5097 1.96177 41.4682C2.25221 41.0948 2.58414 40.7628 2.99905 40.5139C3.45546 40.2649 3.95335 40.099 4.45125 40.0575C4.53423 40.0575 5.613 40.1405 5.613 40.1405C5.65449 39.9745 4.49274 39.85 4.45125 39.85Z" fill="#FF7A5A"/>
<path d="M9.92809 13.7935C8.9323 13.7935 8.14397 13.0052 8.14397 12.0094C8.14397 12.0094 8.14397 11.9679 8.10248 11.9679C8.10248 11.9679 8.06099 11.9679 8.06099 12.0094C8.06099 13.0052 7.27265 13.7935 6.27686 13.7935C6.27686 13.7935 6.23537 13.7935 6.23537 13.835C6.23537 13.835 6.23537 13.8765 6.27686 13.8765C7.27265 13.8765 8.06099 14.6649 8.06099 15.6606C8.06099 15.6606 8.06099 15.7021 8.10248 15.7021C8.10248 15.7021 8.14397 15.7021 8.14397 15.6606C8.14397 14.6649 8.9323 13.8765 9.92809 13.8765C9.92809 13.8765 9.92809 13.835 9.92809 13.7935Z" fill="#FF7A5A"/>
<path d="M23.2882 1.05572C22.3754 1.38765 21.3382 0.931248 21.0062 0.0184406C21.0062 0.0184406 20.9647 -0.0230507 20.9647 0.0184406C20.9647 0.0184406 20.9232 0.0599318 20.9647 0.0599318C21.2967 0.972739 20.8403 2.01002 19.9275 2.34195C19.9275 2.34195 19.886 2.38344 19.9275 2.38344C19.9275 2.38344 19.9689 2.42493 19.9689 2.38344C20.8818 2.05151 21.919 2.50792 22.251 3.42072C22.251 3.42072 22.251 3.46221 22.2925 3.42072C22.2925 3.42072 22.334 3.37923 22.2925 3.37923C21.919 2.46642 22.3754 1.42914 23.2882 1.09721C23.3297 1.09721 23.3297 1.09721 23.2882 1.05572Z" fill="#FF7A5A"/>
<path d="M25.7777 18.1916C25.2799 18.6895 24.4915 18.731 23.9936 18.2331C23.9936 18.2331 23.9936 18.2331 23.9521 18.2331C23.9521 18.2331 23.9521 18.2331 23.9521 18.2746C24.45 18.7725 24.4915 19.5608 23.9936 20.0587C23.9936 20.0587 23.9936 20.0587 23.9936 20.1002C23.9936 20.1002 23.9936 20.1002 24.0351 20.1002C24.533 19.6023 25.3213 19.5608 25.8192 20.0587C25.8192 20.0587 25.8192 20.0587 25.8607 20.0587C25.8607 20.0587 25.8607 20.0587 25.8607 20.0172C25.3628 19.5193 25.3213 18.6895 25.7777 18.1916C25.8192 18.1916 25.8192 18.1916 25.7777 18.1916C25.8192 18.1501 25.8192 18.1501 25.7777 18.1916Z" fill="#FF7A5A"/>
</svg>
