<svg width="16" height="13" viewBox="0 0 16 13" fill="none" xmlns="http://www.w3.org/2000/svg">
<path d="M14.0285 0.824707H1.76278C0.790416 0.824707 0 1.59511 0 2.54285V11.1358C0 12.0835 0.790416 12.8539 1.76278 12.8539H14.0255C14.9979 12.8539 15.7883 12.0835 15.7883 11.1358V2.54576C15.7913 1.59802 15.0009 0.824707 14.0285 0.824707ZM14.986 11.1358C14.986 11.6503 14.5564 12.069 14.0285 12.069H1.76278C1.23484 12.069 0.80533 11.6503 0.80533 11.1358V2.54576C0.80533 2.03119 1.23484 1.61255 1.76278 1.61255H14.0255C14.5535 1.61255 14.983 2.03119 14.983 2.54576V11.1358H14.986Z" fill="#8D8D8D"/>
<path d="M9.77772 6.74907L13.3033 3.66746C13.4673 3.5221 13.4822 3.27499 13.3331 3.11219C13.184 2.95229 12.9304 2.93776 12.7634 3.08312L7.9016 7.33632L6.9531 6.51068C6.95012 6.50778 6.94713 6.50487 6.94713 6.50196C6.92625 6.48161 6.90537 6.46417 6.88151 6.44673L3.02189 3.08021C2.85486 2.93485 2.60133 2.94939 2.4522 3.11219C2.30306 3.27499 2.31798 3.5221 2.48501 3.66746L6.05232 6.77524L2.49992 10.0167C2.33885 10.165 2.32991 10.4121 2.48202 10.572C2.56256 10.6534 2.66994 10.697 2.77731 10.697C2.87574 10.697 2.97417 10.6621 3.05172 10.5924L6.65781 7.30434L7.63614 8.15615C7.71369 8.22301 7.80913 8.25499 7.90458 8.25499C8.00003 8.25499 8.09846 8.22011 8.17302 8.15324L9.1782 7.27527L12.7634 10.5953C12.841 10.668 12.9424 10.7028 13.0408 10.7028C13.1482 10.7028 13.2526 10.6621 13.3331 10.5807C13.4852 10.4238 13.4793 10.1737 13.3182 10.0255L9.77772 6.74907Z" fill="#FF7A5A"/>
</svg>
