<svg width="71" height="89" viewBox="0 0 71 89" fill="none" xmlns="http://www.w3.org/2000/svg">
<path d="M70.6349 35.3175C70.6349 62.8651 35.3175 89 35.3175 89C35.3175 89 0 62.1587 0 35.3175C0 15.8122 15.8122 0 35.3175 0C54.8228 0 70.6349 15.8122 70.6349 35.3175Z" fill="#383838"/>
<path d="M25.4318 49.0927C25.1743 48.872 24.8432 48.7616 24.5121 48.7249C23.8868 48.6881 23.0407 49.0559 22.82 49.6813C22.7465 49.6445 22.6729 49.6077 22.6361 49.5709C21.8268 49.2398 20.944 49.3502 20.2451 49.8652C19.5462 50.3802 19.1416 51.1894 19.2151 52.0355C19.2519 52.4401 19.3991 52.8447 19.6198 53.1758C19.6565 53.2494 20.1348 53.8379 20.2451 53.6908C20.2819 53.654 19.9508 53.1022 19.8773 53.0287C19.7301 52.7344 19.6565 52.4033 19.6565 52.0723C19.6198 51.3366 19.9876 50.6744 20.5762 50.233C21.1647 49.8284 21.9372 49.7548 22.5993 50.0123C22.8936 50.1227 23.1511 50.3066 23.3718 50.5273C23.4454 50.6009 23.7764 51.0423 23.85 51.0423C23.9971 50.9687 23.5557 50.3066 23.5189 50.233C23.3718 50.0491 23.1879 49.902 23.004 49.7916C23.0407 49.7548 23.1143 49.718 23.1511 49.6813C23.4086 49.4973 23.7029 49.3502 24.0339 49.2766C24.4018 49.2031 24.7696 49.2031 25.1007 49.387C25.211 49.4238 25.6157 49.8284 25.726 49.7916C25.9835 49.718 25.5053 49.1295 25.4318 49.0927Z" fill="#FF7A5A"/>
<path d="M37.4236 50.8584C37.0189 50.5641 36.5039 50.3802 36.0257 50.3802C35.9154 50.3802 34.8486 50.5273 34.7751 50.748C34.6279 50.3802 34.444 50.0491 34.2233 49.718C33.5244 48.8352 32.4576 48.2834 31.3173 48.1363C30.1034 47.9524 28.8159 48.2466 27.8228 48.9823C27.3813 49.3134 26.9767 49.718 26.6824 50.1962C26.6089 50.3066 25.9835 51.4469 26.1674 51.5205C26.241 51.5573 26.8296 50.5641 26.9031 50.4537C27.1974 50.0859 27.5653 49.718 27.9699 49.4605C28.8895 48.8352 30.0298 48.5409 31.1702 48.6881C32.2001 48.8352 33.2301 49.3134 33.8922 50.1227C34.2233 50.5273 34.4808 51.0055 34.5911 51.4837C34.6279 51.5941 34.6647 52.7344 34.7015 52.7344C34.959 52.808 34.9222 51.4837 34.9222 51.4101C34.8854 51.2262 34.8486 51.0423 34.8118 50.8584C34.959 50.8951 35.805 50.8216 35.9154 50.8216C36.3568 50.8584 36.7982 51.0423 37.1293 51.2998C37.4971 51.5573 37.7546 51.9251 37.9385 52.3298C37.9753 52.4401 38.1593 53.3965 38.2328 53.3965C38.5639 53.4333 38.3432 52.1826 38.3064 52.0723C38.1225 51.5941 37.8282 51.1894 37.4236 50.8584Z" fill="#FF7A5A"/>
<path d="M24.0339 41.3679C24.0339 41.8093 23.6661 42.214 23.1879 42.214C22.7465 42.214 22.3418 41.8461 22.3418 41.3679C22.3418 40.9265 22.7097 40.5219 23.1879 40.5219C23.6661 40.5586 24.0339 40.9265 24.0339 41.3679Z" fill="#FF7A5A"/>
<path d="M29.662 37.1745C29.8091 36.5491 29.9563 35.9238 30.1034 35.2616C30.3241 34.1949 30.5816 33.1281 30.8023 32.0614C30.8759 32.1717 30.9862 32.2453 31.023 32.3189C31.0966 32.466 31.1702 32.5764 31.2437 32.7235C31.2805 32.7971 31.2805 32.8339 31.3173 32.9074C31.5012 33.4224 31.5748 33.9742 31.5748 34.4892C31.5748 35.0777 31.5012 35.7031 31.538 36.2916C31.538 36.3284 31.538 36.3284 31.538 36.3652C31.5748 36.9537 31.6852 37.5423 31.9426 38.0573C31.9426 38.0573 31.9794 38.0941 31.9794 38.1309C31.2805 37.763 30.2506 37.2848 29.662 37.1745ZM29.1838 36.2916C29.1102 36.6963 28.9999 37.1009 28.8895 37.5055C28.8895 37.5055 28.5217 37.763 28.4849 37.7998C28.2642 37.9101 28.0435 37.9837 27.786 37.9837C27.8228 36.402 27.786 33.3856 27.7124 33.3856C27.6388 33.3856 27.602 36.402 27.6388 37.9837C27.4181 37.9837 27.1974 37.9101 27.0135 37.7998C26.9767 37.763 26.6456 37.5055 26.6089 37.5055C26.4249 36.733 26.241 35.9606 26.0571 35.1513C25.6892 33.5695 25.2846 31.9878 24.9535 30.3693C24.6225 28.8979 24.365 27.3897 24.5489 25.8448C24.5857 25.5873 24.6225 25.3666 24.6593 25.1091C24.6961 24.9987 24.6961 24.8884 24.7328 24.8148C24.8432 24.3734 24.9536 23.932 25.1007 23.4905C25.395 23.748 25.91 24.1894 25.9835 24.2262C26.4985 24.5205 27.0503 24.6676 27.6388 24.6676C27.6388 25.6608 27.6756 26.3597 27.7124 26.3597C27.7492 26.3597 27.7492 25.6608 27.786 24.6676C28.3745 24.6676 28.9631 24.5205 29.4781 24.2262C29.5516 24.1894 30.0666 23.7848 30.3609 23.4905C30.5448 23.9687 30.6552 24.4469 30.7655 24.9251C30.7655 24.9619 30.7655 24.9987 30.7655 25.0355C30.8759 25.6241 30.9495 26.2494 30.9495 26.8747C30.9495 28.4197 30.5816 29.9646 30.2505 31.4728C29.9195 33.0913 29.5516 34.6731 29.1838 36.2916ZM28.9263 37.5423C28.9263 37.5791 28.9263 37.5791 28.9263 37.6159C28.8895 37.7998 28.8527 38.0205 28.7792 38.2044C28.7424 38.3516 28.7424 38.6091 28.6688 38.7194C28.5952 38.8298 28.5585 38.793 28.3745 38.793C28.1906 38.793 28.0067 38.793 27.8228 38.793C27.8228 38.6826 27.8595 38.4251 27.8595 38.0941C28.117 38.0941 28.3745 38.0205 28.5952 37.8734C28.5952 37.8366 28.8527 37.6159 28.9263 37.5423ZM27.271 38.793C27.0135 38.793 27.0503 38.8665 26.9767 38.6458C26.8296 38.3148 26.7928 37.9101 26.7192 37.5423C26.7928 37.6527 27.0871 37.8734 27.0871 37.9101C27.271 38.0205 27.4917 38.0941 27.7124 38.0941C27.7124 38.4251 27.7492 38.6826 27.7492 38.793H27.271ZM23.5925 38.2044C23.7029 38.0573 23.7397 37.9469 23.7764 37.9101C23.9604 37.4687 24.0339 37.0273 24.0707 36.5491C24.0707 36.3284 24.0707 36.1445 24.0707 35.9606C24.0707 34.8202 23.8868 33.6431 24.4386 32.6131C24.5489 32.4292 24.6593 32.2821 24.7696 32.0982L24.8064 32.0614C25.1375 33.5328 25.4685 35.0042 25.7996 36.4755C25.8732 36.733 25.91 36.9537 25.9835 37.2112C25.3582 37.3216 24.3282 37.763 23.5925 38.2044ZM25.1743 23.4538C25.3214 23.0123 25.5053 22.6077 25.726 22.1663C26.0203 21.5777 26.3514 21.026 26.7192 20.511C26.8296 20.6213 27.0503 20.8053 27.0871 20.842C27.271 20.9524 27.4917 21.026 27.7124 21.026C27.7124 22.1295 27.7124 23.4905 27.7124 24.5941C27.1606 24.5941 26.6089 24.4469 26.0939 24.1894C26.0203 24.1159 25.4685 23.6745 25.1743 23.4538ZM26.756 20.4374C26.7928 20.4006 26.7928 20.3638 26.8296 20.327C26.9031 20.2167 27.6388 19.3339 27.7492 19.1132C27.7124 19.2971 27.7124 19.996 27.7124 20.8788C27.4917 20.8788 27.271 20.8053 27.0871 20.6949C27.0503 20.6581 26.8664 20.511 26.756 20.4374ZM27.786 19.1132C27.8963 19.3339 28.5952 20.1799 28.8159 20.4742C28.7056 20.5478 28.5585 20.6949 28.5217 20.6949C28.301 20.8053 28.0803 20.8788 27.8228 20.8788C27.8228 19.9592 27.8228 19.2603 27.786 19.1132ZM28.8527 20.511C28.8527 20.5478 28.8895 20.5478 28.8895 20.5478C29.3677 21.2099 29.7723 21.9456 30.1034 22.6813C30.2138 22.902 30.2873 23.1595 30.3977 23.3802C30.1034 23.6377 29.5516 24.0423 29.4781 24.0791C28.9631 24.3366 28.4113 24.4837 27.8595 24.4837C27.8595 23.417 27.8595 22.0191 27.8595 20.9524C28.117 20.9524 28.3745 20.8788 28.5952 20.7317C28.5585 20.7685 28.7424 20.6213 28.8527 20.511ZM31.2437 29.8543C31.5012 28.4933 31.6116 27.0954 31.4277 25.7344C31.3909 25.5505 31.3909 25.4033 31.3541 25.2194C31.3173 25.0723 31.2805 24.9251 31.2805 24.778V24.5205H38.895C42.6102 24.5205 44.9277 26.2126 44.9277 29.4864V29.5968C44.9277 32.5396 42.7941 34.526 39.0421 34.526H32.2369C32.2001 33.7535 32.053 32.9442 31.538 32.3189C31.5012 32.2821 31.3909 32.1717 31.2805 32.0982C31.1334 31.9878 30.9862 31.8775 30.8759 31.8407C30.9862 31.3625 31.0966 30.8843 31.1702 30.4428C31.207 30.2221 31.2437 30.0382 31.2437 29.8543ZM37.0189 19.7017C37.4971 20.1431 38.1961 20.1063 38.6375 19.6649C38.6375 19.6649 38.6375 19.6649 38.6743 19.6649C38.6743 19.6649 38.6743 19.6649 38.6743 19.7017C38.2328 20.1431 38.2696 20.8788 38.711 21.2835C38.711 21.2835 38.711 21.2835 38.711 21.3202C38.711 21.3202 38.711 21.3202 38.6743 21.3202C38.2328 20.8788 37.4971 20.9156 37.0925 21.357C37.0925 21.357 37.0925 21.357 37.0557 21.357C37.0557 21.357 37.0557 21.357 37.0557 21.3202C37.4604 20.8788 37.4604 20.1431 37.0189 19.7017ZM45.7001 22.0927C45.9944 22.0927 46.2519 22.3502 46.2519 22.6445C46.2519 22.9388 45.9944 23.1963 45.7001 23.1963C45.4059 23.1963 45.1484 22.9388 45.1484 22.6445C45.1484 22.3134 45.4059 22.0927 45.7001 22.0927ZM44.1184 38.3148C43.2356 38.3148 42.5366 39.0137 42.5366 39.8965C42.5366 39.8965 42.5366 39.9333 42.4999 39.9333C42.4999 39.9333 42.4631 39.9333 42.4631 39.8965C42.4631 39.0137 41.7642 38.3148 40.8813 38.3148C40.8813 38.3148 40.8446 38.3148 40.8446 38.278C40.8446 38.278 40.8446 38.2412 40.8813 38.2412C41.7642 38.2412 42.4631 37.5423 42.4631 36.6595C42.4631 36.6595 42.4631 36.6227 42.4999 36.6227C42.4999 36.6227 42.5366 36.6227 42.5366 36.6595C42.5366 37.5423 43.2356 38.2412 44.1184 38.2412C44.1552 38.278 44.1552 38.278 44.1184 38.3148C44.1552 38.3148 44.1552 38.3148 44.1184 38.3148ZM37.2764 41.2943L44.7437 52.4401H53.6824L45.1851 40.0069C49.5993 38.3516 52.6524 34.8202 52.6524 29.1922V29.0818C52.6524 25.808 51.6225 23.0491 49.6729 21.1363C47.3922 18.8557 43.9345 17.605 39.5203 17.605H23.5925V33.2017C23.335 33.9374 23.3718 34.7467 23.4086 35.5191C23.4086 35.7398 23.4454 35.9238 23.4454 36.1445C23.4822 36.6962 23.4454 37.2848 23.2982 37.7998C23.2615 37.9101 22.9672 38.4987 22.8568 38.7562C22.82 38.793 22.82 38.8298 22.82 38.8665C22.9672 39.1976 25.211 38.2412 26.0939 37.6159C26.2042 38.0205 26.2778 38.4619 26.3882 38.8665C26.4249 38.9769 26.4249 39.124 26.4617 39.2344C26.4617 39.2712 26.4985 39.2712 26.4985 39.308C26.3514 39.5287 26.2778 40.6322 26.2778 40.7426C26.0939 42.2507 25.9467 43.7957 25.5789 45.2671C25.4685 45.7821 25.2846 46.3338 25.0271 46.7753C24.9903 46.5546 24.5121 46.0396 24.3282 45.8556L24.2546 45.7821C23.85 45.4142 23.3718 45.1567 22.8936 45.0096C22.5993 44.8992 22.2683 44.8625 21.9372 44.8257C21.1279 44.7521 20.2819 44.9728 19.583 45.4142C18.9576 45.7821 18.4794 46.3338 18.1484 46.996C18.1116 46.9224 18.038 46.8488 18.0012 46.812C17.9277 46.7385 17.8173 46.6649 17.7805 46.6281C17.3391 46.2971 16.7506 46.1131 16.1988 46.0396C15.2792 45.9292 14.3228 46.2235 13.6239 46.812C13.4031 46.996 13.2192 47.1799 13.0353 47.4006C12.7042 47.842 12.4467 48.357 12.3364 48.9088C12.3364 48.9823 12.2628 49.4238 12.2996 49.7548C12.2996 50.0123 12.3732 50.233 12.5203 50.233C12.6307 50.233 12.7042 49.9387 12.741 49.7548C12.741 49.6813 12.7778 49.6077 12.7778 49.5709C12.8882 49.2766 12.9985 48.9823 13.1457 48.6881C13.3296 48.3202 13.6974 47.8788 14.1388 47.5477C14.2492 47.4742 14.3596 47.4006 14.4699 47.327C15.4999 46.7385 16.6402 46.8488 17.7437 47.1799C17.8173 47.2167 17.8909 47.2535 17.9645 47.2535C18.0012 47.2535 18.0012 47.2535 18.038 47.2535C17.8909 47.5845 17.8173 47.9156 17.7437 48.2467C17.6702 48.7616 17.707 49.3134 17.8541 49.8284C17.8909 49.9387 18.2955 51.0423 18.4794 50.9319C18.5162 50.8952 18.1852 49.8284 18.1852 49.6813C18.1116 49.2031 18.1116 48.6881 18.2219 48.2099C18.4427 47.2535 18.9944 46.4442 19.8037 45.9292C20.6865 45.3774 21.7533 45.1935 22.7465 45.451C23.1879 45.5614 23.6293 45.7821 24.0339 46.0396C24.1075 46.1131 24.8432 46.812 24.9903 46.8488C24.9168 46.996 24.8064 47.1063 24.6961 47.2535C24.4753 47.511 24.1811 47.7317 23.85 47.8788C23.7764 47.9156 23.1511 48.0627 23.1511 48.1363C23.1511 48.357 24.1075 48.0995 24.1811 48.0627C24.5489 47.9156 24.9168 47.6581 25.1743 47.327C25.7628 46.6281 26.0203 45.7453 26.2042 44.8625C26.4985 43.3911 26.6456 41.8829 26.6456 40.3747C26.6456 40.3012 26.6456 39.639 26.6089 39.3447H26.6456C26.8296 39.3815 27.0503 39.3447 27.2342 39.3447C27.6388 39.3447 28.0435 39.3447 28.4481 39.3447C28.5585 39.3447 28.8527 39.3815 29.0367 39.3815C28.9999 39.5655 29.0734 39.8597 29.0734 40.0069C29.0734 40.3012 29.1102 40.6322 29.1102 40.9265C29.2206 42.3611 29.3677 43.8325 29.5884 45.2671C29.6252 45.4878 29.662 45.6717 29.6988 45.8924C29.8091 46.3706 29.9563 46.812 30.2873 47.1799C30.508 47.4374 30.8023 47.6581 31.1334 47.7317C31.1334 47.7317 31.207 47.7317 31.2805 47.7684C31.5012 47.8052 31.9059 47.8052 31.8691 47.6581C31.8691 47.6213 31.538 47.5845 31.5012 47.5845C31.4277 47.5845 31.3541 47.5477 31.2805 47.511C31.1702 47.4742 31.0598 47.4006 30.9862 47.327C30.8023 47.2167 30.692 47.0695 30.5816 46.8856C30.7288 46.7753 31.0598 46.3338 31.1334 46.2971C31.1702 46.2603 31.2437 46.1867 31.3173 46.1499C31.5012 46.0028 31.7219 45.8556 31.9426 45.7453C32.6048 45.451 33.3773 45.4142 34.0394 45.6717C34.7015 45.9292 35.2165 46.4074 35.5475 47.0695C35.6947 47.3638 35.7683 47.6581 35.805 47.9892C35.805 48.0995 35.805 48.7984 35.8786 48.7984C36.0258 48.8352 36.1361 48.0259 36.1361 47.9524C36.1361 47.7685 36.1361 47.5845 36.0993 47.3638C36.2465 47.4006 36.6511 47.2902 36.7247 47.2902C37.0557 47.2535 37.3868 47.2903 37.7178 47.327C38.38 47.4374 39.0053 47.7317 39.5203 48.1731C39.7778 48.3938 39.9617 48.6513 40.1456 48.9088C40.2928 49.1295 40.4031 49.387 40.4767 49.6445C40.5135 49.718 40.5135 49.7916 40.5503 49.8652C40.6238 50.1962 40.6606 50.5273 40.6974 50.8584C40.6974 50.9319 40.6238 51.4837 40.7342 51.5205C41.0653 51.6308 41.0285 49.902 40.9917 49.7916C40.9917 49.7548 40.9917 49.718 40.9549 49.6813C40.8813 49.2766 40.7342 48.9088 40.5135 48.5777C40.3296 48.2834 40.1456 48.0259 39.8881 47.8052C39.2996 47.2902 38.5271 46.9592 37.7178 46.9224C37.6075 46.9224 36.2832 47.0328 36.0993 47.2902C36.0625 47.1431 36.0258 46.996 35.9522 46.8488C35.6579 46.0764 35.0326 45.4878 34.2601 45.1935C33.414 44.8625 32.4944 44.936 31.7219 45.4142C31.6116 45.4878 31.4644 45.5614 31.3541 45.6717V41.2943H37.2764Z" fill="#FF7A5A"/>
<path d="M27.7861 30.5531C27.0136 30.5531 26.3514 29.8542 26.4618 29.0449C26.5354 28.3828 27.1239 27.8678 27.7861 27.8678C28.5953 27.8678 29.2207 28.6035 29.1103 29.4128C28.9999 30.0749 28.4482 30.5531 27.7861 30.5531ZM29.6253 29.3024C29.6989 28.2356 28.7792 27.316 27.6757 27.3528C26.7193 27.4264 25.9468 28.2356 25.9468 29.192C25.9468 30.1852 26.7929 31.0313 27.7861 31.0313C28.7425 31.0313 29.5885 30.2588 29.6253 29.3024Z" fill="#F8F8F8"/>
<path d="M27.9332 28.2724C27.8596 28.2724 27.3079 28.3092 27.3814 28.4196C27.3814 28.4196 27.8228 28.346 27.8596 28.3828C28.1171 28.4196 28.3378 28.5667 28.485 28.7506C28.6321 28.9713 28.6689 29.2288 28.5953 29.4495C28.5953 29.4863 28.3378 29.891 28.3378 29.891C28.4114 29.9645 28.6689 29.4863 28.7057 29.4128C28.7792 29.1553 28.7425 28.861 28.5953 28.6771C28.4482 28.4563 28.1907 28.3092 27.9332 28.2724Z" fill="#F8F8F8"/>
<path d="M29.846 30.5531C30.0667 30.1852 30.2139 29.7806 30.2139 29.376C30.2139 29.3024 30.1403 28.3092 29.9931 28.3828C30.0299 28.3828 30.1035 29.376 30.0667 29.4863C30.0299 29.8542 29.8828 30.2588 29.6621 30.5531C29.4046 30.9209 29.0735 31.2152 28.6689 31.3991C28.5953 31.4359 27.7493 31.6566 27.7493 31.6566C27.7493 31.767 28.7057 31.5095 28.7792 31.4727C29.2207 31.252 29.5885 30.9209 29.846 30.5531Z" fill="#F8F8F8"/>
<path d="M25.91 30.6266C25.6525 30.2588 25.5054 29.8174 25.4686 29.376C25.4318 28.8978 25.5422 28.4563 25.7629 28.0517C25.7997 27.9781 26.425 27.2425 26.425 27.2425C26.3515 27.1321 25.6893 27.9414 25.6525 27.9781C25.395 28.3828 25.2847 28.8242 25.2847 29.3024C25.2847 29.7806 25.4686 30.2588 25.7629 30.6634C25.7997 30.7002 26.4618 31.3991 26.5354 31.2888C26.5722 31.2888 25.9468 30.6634 25.91 30.6266Z" fill="#F8F8F8"/>
<path d="M27.8229 42.9863C27.6757 42.9863 27.6757 47.5108 27.7861 47.5108C27.9332 47.5108 27.9332 42.9863 27.8229 42.9863Z" fill="#F8F8F8"/>
<path d="M20.7602 46.628C21.1648 46.4441 21.643 46.3705 22.0844 46.3705C22.158 46.3705 23.1512 46.5176 23.1512 46.5176C23.188 46.3705 22.0844 46.2234 22.0109 46.2234C21.5327 46.2234 21.0545 46.2969 20.613 46.5176C20.2084 46.7016 19.8406 46.9958 19.5463 47.3637C19.5095 47.4373 18.8842 48.3201 19.0313 48.3569C19.0313 48.3569 19.6199 47.5108 19.6566 47.474C19.9877 47.0694 20.3556 46.8119 20.7602 46.628Z" fill="#F8F8F8"/>
<path d="M31.722 49.6444C31.2806 49.4236 30.7656 49.3133 30.2506 49.3501C29.7357 49.3501 29.2207 49.4972 28.7425 49.7547C28.6689 49.7915 27.6389 50.5272 27.7493 50.6375C27.7125 50.6008 28.7793 49.9018 28.8528 49.8651C29.2942 49.6444 29.7724 49.534 30.2506 49.534C30.7656 49.534 31.2438 49.6443 31.722 49.8283C31.7956 49.8651 32.8256 50.4904 32.8256 50.5272C32.9359 50.38 31.7956 49.6811 31.722 49.6444Z" fill="#F8F8F8"/>
<path d="M33.267 51.0422C33.2302 51.079 33.6716 52.0721 33.7452 52.0721C33.9659 51.9986 33.4141 50.895 33.267 51.0422Z" fill="#F8F8F8"/>
<path d="M38.9318 49.0926C38.6008 48.7983 38.1961 48.5776 37.7547 48.4672C37.6811 48.4305 36.688 48.3201 36.7247 48.4305C36.7247 48.4305 37.6811 48.5776 37.7915 48.6144C38.1593 48.7247 38.5272 48.9454 38.8215 49.2397C39.1157 49.534 39.3732 49.9018 39.5204 50.2697C39.5572 50.3433 39.7411 51.2629 39.7411 51.2629C39.8882 51.2629 39.6675 50.3065 39.6307 50.2329C39.4836 49.7915 39.2629 49.4236 38.9318 49.0926Z" fill="#F8F8F8"/>
<path d="M21.5694 50.38C21.1648 50.4536 20.797 50.6743 20.5763 51.0054C20.3188 51.3364 20.2452 51.8146 20.3188 52.2193C20.3188 52.2929 20.6866 53.1757 20.797 53.0653C20.797 53.0653 20.4659 52.3296 20.4659 52.2193C20.4291 51.8514 20.5027 51.4468 20.7234 51.1525C20.9441 50.8215 21.312 50.6007 21.7166 50.564C21.7902 50.564 22.5626 50.6007 22.5626 50.6007C22.6362 50.38 21.643 50.3433 21.5694 50.38Z" fill="#F8F8F8"/>
<path d="M16.2357 47.6212C15.7575 47.6212 15.316 47.7315 14.9114 47.989C14.5068 48.2097 14.1757 48.5408 13.9182 48.9454C13.8814 49.019 13.44 49.9386 13.5504 49.9754C13.5504 49.9754 13.9918 49.0926 14.0286 49.0558C14.2861 48.7247 14.5803 48.4305 14.9482 48.2097C15.3528 47.989 15.7942 47.8419 16.2357 47.8051C16.3092 47.8051 17.2656 47.8787 17.2656 47.8787C17.3024 47.7315 16.2724 47.6212 16.2357 47.6212Z" fill="#F8F8F8"/>
<path d="M21.0912 24.5204C20.2084 24.5204 19.5095 23.8215 19.5095 22.9386C19.5095 22.9386 19.5095 22.9019 19.4727 22.9019C19.4727 22.9019 19.4359 22.9019 19.4359 22.9386C19.4359 23.8215 18.737 24.5204 17.8542 24.5204C17.8542 24.5204 17.8174 24.5204 17.8174 24.5572C17.8174 24.5572 17.8174 24.594 17.8542 24.594C18.737 24.594 19.4359 25.2929 19.4359 26.1757C19.4359 26.1757 19.4359 26.2125 19.4727 26.2125C19.4727 26.2125 19.5095 26.2125 19.5095 26.1757C19.5095 25.2929 20.2084 24.594 21.0912 24.594C21.0912 24.594 21.0912 24.5572 21.0912 24.5204Z" fill="#F8F8F8"/>
<path d="M32.9359 13.2275C32.1266 13.5217 31.207 13.1171 30.9127 12.3079C30.9127 12.3079 30.876 12.2711 30.876 12.3079C30.876 12.3079 30.8392 12.3446 30.876 12.3446C31.1702 13.1539 30.7656 14.0735 29.9563 14.3678C29.9563 14.3678 29.9196 14.4046 29.9563 14.4046C29.9563 14.4046 29.9931 14.4414 29.9931 14.4046C30.8024 14.1103 31.722 14.5149 32.0163 15.3242C32.0163 15.3242 32.0163 15.361 32.0531 15.3242C32.0531 15.3242 32.0899 15.2874 32.0531 15.2874C31.722 14.4782 32.1266 13.5585 32.9359 13.2643C32.9727 13.2643 32.9727 13.2643 32.9359 13.2275Z" fill="#F8F8F8"/>
<path d="M35.143 28.4196C34.7016 28.861 34.0027 28.8978 33.5613 28.4564C33.5613 28.4564 33.5613 28.4564 33.5245 28.4564C33.5245 28.4564 33.5245 28.4564 33.5245 28.4931C33.9659 28.9346 34.0027 29.6335 33.5613 30.0749C33.5613 30.0749 33.5613 30.0749 33.5613 30.1117C33.5613 30.1117 33.5613 30.1117 33.598 30.1117C34.0395 29.6702 34.7384 29.6335 35.1798 30.0749C35.1798 30.0749 35.1798 30.0749 35.2166 30.0749C35.2166 30.0749 35.2166 30.0749 35.2166 30.0381C34.7752 29.5967 34.7384 28.861 35.143 28.4196C35.1798 28.4196 35.1798 28.4196 35.143 28.4196C35.1798 28.3828 35.1798 28.3828 35.143 28.4196Z" fill="#F8F8F8"/>
</svg>
