<svg width="16" height="16" viewBox="0 0 16 16" fill="none" xmlns="http://www.w3.org/2000/svg">
<path d="M11.8899 10.1025C11.5816 9.78201 11.2098 9.61064 10.8157 9.61064C10.4248 9.61064 10.0497 9.77884 9.72875 10.0994L8.72445 11.099C8.64182 11.0546 8.55919 11.0134 8.47973 10.9721C8.36532 10.915 8.25726 10.861 8.16509 10.8039C7.22435 10.2073 6.36942 9.42975 5.54946 8.42373C5.15218 7.92231 4.88522 7.50023 4.69135 7.0718C4.95196 6.83378 5.1935 6.58624 5.42869 6.34823C5.51767 6.25937 5.60666 6.16734 5.69565 6.07848C6.36307 5.41203 6.36307 4.54882 5.69565 3.88238L4.82801 3.016C4.72949 2.91762 4.62779 2.81606 4.53244 2.71451C4.34175 2.51775 4.14153 2.31464 3.93494 2.12423C3.62666 1.81957 3.25799 1.65771 2.87026 1.65771C2.48252 1.65771 2.10749 1.81957 1.78968 2.12423C1.7865 2.1274 1.7865 2.1274 1.78332 2.13057L0.702741 3.2191C0.295935 3.62532 0.0639285 4.12039 0.0130777 4.69481C-0.0631984 5.62148 0.210124 6.48469 0.419884 7.04958C0.934748 8.43643 1.70387 9.72172 2.85119 11.099C4.24323 12.7588 5.91812 14.0695 7.83138 14.993C8.56236 15.3389 9.53806 15.7483 10.6282 15.8181C10.6949 15.8213 10.7648 15.8245 10.8284 15.8245C11.5626 15.8245 12.1791 15.5611 12.6622 15.0374C12.6654 15.0311 12.6717 15.0279 12.6749 15.0216C12.8402 14.8216 13.0309 14.6407 13.2311 14.4471C13.3678 14.317 13.5076 14.1806 13.6443 14.0378C13.9589 13.7109 14.1242 13.3301 14.1242 12.9397C14.1242 12.5462 13.9557 12.1685 13.6347 11.8512L11.8899 10.1025ZM13.0277 13.4443C13.0245 13.4475 13.0245 13.4443 13.0277 13.4443C12.9037 13.5776 12.7766 13.6982 12.64 13.8315C12.4334 14.0282 12.2236 14.2345 12.0266 14.4662C11.7056 14.8089 11.3274 14.9708 10.8316 14.9708C10.7839 14.9708 10.7331 14.9708 10.6854 14.9676C9.74147 14.9073 8.86429 14.5392 8.20641 14.225C6.40756 13.3554 4.82801 12.1209 3.51542 10.5564C2.43167 9.25203 1.70704 8.04608 1.22714 6.75127C0.93157 5.96105 0.823512 5.34539 0.871185 4.76463C0.902966 4.39332 1.04598 4.08548 1.30977 3.82208L2.39353 2.7399C2.54926 2.59391 2.71453 2.51457 2.87661 2.51457C3.07684 2.51457 3.23892 2.63517 3.34063 2.73672C3.3438 2.7399 3.34698 2.74307 3.35016 2.74624C3.54403 2.92714 3.72836 3.11438 3.92223 3.31431C4.02075 3.41586 4.12246 3.51742 4.22416 3.62215L5.0918 4.48853C5.42869 4.82492 5.42869 5.13593 5.0918 5.47233C4.99963 5.56436 4.91064 5.65639 4.81848 5.74525C4.55151 6.01818 4.29726 6.27206 4.02075 6.5196C4.0144 6.52595 4.00804 6.52912 4.00486 6.53547C3.73154 6.80839 3.78239 7.07497 3.8396 7.25586C3.84278 7.26539 3.84595 7.27491 3.84913 7.28443C4.07478 7.83028 4.3926 8.34439 4.87568 8.95689L4.87886 8.96006C5.75604 10.0391 6.68089 10.8801 7.70108 11.5243C7.83138 11.6068 7.96487 11.6735 8.09199 11.7369C8.20641 11.794 8.31447 11.848 8.40663 11.9051C8.41935 11.9115 8.43206 11.921 8.44477 11.9273C8.55283 11.9813 8.65453 12.0067 8.75941 12.0067C9.0232 12.0067 9.18846 11.8417 9.24249 11.7877L10.3294 10.7023C10.4375 10.5944 10.6091 10.4643 10.8093 10.4643C11.0064 10.4643 11.1685 10.5881 11.267 10.696C11.2702 10.6992 11.2702 10.6992 11.2733 10.7023L13.0245 12.451C13.3519 12.7747 13.3519 13.1079 13.0277 13.4443Z" fill="#8D8D8D"/>
<path d="M8.12697 4.36487C8.95965 4.5045 9.71606 4.89802 10.3199 5.501C10.9238 6.10397 11.3147 6.85928 11.4577 7.69075C11.4927 7.90021 11.6738 8.04619 11.8804 8.04619C11.9058 8.04619 11.9281 8.04302 11.9535 8.03984C12.1887 8.00176 12.3444 7.77961 12.3063 7.54477C12.1346 6.53875 11.6579 5.62159 10.9301 4.89485C10.2023 4.16811 9.28382 3.69207 8.27634 3.5207C8.04116 3.48262 7.82186 3.63812 7.78055 3.86979C7.73923 4.10146 7.89178 4.32678 8.12697 4.36487Z" fill="#FF7A5A"/>
<path d="M15.03 7.421C14.7471 5.7644 13.9653 4.25697 12.7639 3.05736C11.5626 1.85776 10.0529 1.07706 8.39394 0.794618C8.16193 0.753361 7.94264 0.912039 7.90132 1.14371C7.86318 1.37855 8.01891 1.59753 8.2541 1.63878C9.73512 1.88949 11.0858 2.59085 12.1601 3.66034C13.2343 4.733 13.9335 6.08176 14.1846 7.56064C14.2195 7.77009 14.4007 7.91607 14.6073 7.91607C14.6327 7.91607 14.6549 7.9129 14.6804 7.90973C14.9124 7.87482 15.0713 7.65267 15.03 7.421Z" fill="#FF7A5A"/>
</svg>
