<svg width="24" height="24" viewBox="0 0 24 24" fill="none" xmlns="http://www.w3.org/2000/svg">
<path d="M18.9777 14.8673C18.4856 14.3557 17.8921 14.0822 17.2631 14.0822C16.6391 14.0822 16.0406 14.3506 15.5282 14.8622L13.9252 16.4578C13.7933 16.3869 13.6614 16.321 13.5346 16.2552C13.352 16.164 13.1795 16.0779 13.0324 15.9867C11.5309 15.0344 10.1663 13.7934 8.85757 12.1877C8.22348 11.3874 7.79737 10.7137 7.48793 10.0299C7.9039 9.64997 8.28943 9.25487 8.66481 8.87497C8.80684 8.73314 8.94888 8.58624 9.09092 8.44441C10.1562 7.38069 10.1562 6.00291 9.09092 4.93919L7.70606 3.55634C7.54881 3.39932 7.38648 3.23723 7.2343 3.07513C6.92993 2.76108 6.61035 2.4369 6.28062 2.13298C5.78857 1.6467 5.20013 1.38837 4.58126 1.38837C3.96239 1.38837 3.3638 1.6467 2.85653 2.13298C2.85146 2.13804 2.85146 2.13804 2.84639 2.14311L1.12166 3.88053C0.472347 4.52889 0.102037 5.31909 0.0208735 6.23592C-0.100872 7.715 0.335383 9.09278 0.670183 9.99441C1.49197 12.208 2.71957 14.2594 4.55082 16.4578C6.77268 19.107 9.44601 21.199 12.4998 22.673C13.6665 23.2251 15.2239 23.8786 16.9638 23.99C17.0703 23.9951 17.1819 24.0001 17.2834 24.0001C18.4552 24.0001 19.4393 23.5797 20.2103 22.7439C20.2154 22.7338 20.2256 22.7287 20.2306 22.7186C20.4944 22.3995 20.7988 22.1108 21.1184 21.8018C21.3365 21.5941 21.5597 21.3763 21.7778 21.1483C22.28 20.6266 22.5438 20.0188 22.5438 19.3957C22.5438 18.7676 22.2749 18.1648 21.7626 17.6583L18.9777 14.8673Z" fill="#8D8D8D"/>
<path d="M12.9716 5.70895C14.3006 5.93183 15.508 6.55993 16.4718 7.52235C17.4356 8.48477 18.0595 9.69033 18.2878 11.0175C18.3436 11.3518 18.6328 11.5848 18.9625 11.5848C19.0031 11.5848 19.0386 11.5797 19.0792 11.5746C19.4545 11.5139 19.7031 11.1593 19.6422 10.7844C19.3683 9.17873 18.6074 7.71484 17.4457 6.55487C16.2841 5.3949 14.8181 4.6351 13.21 4.36157C12.8346 4.30078 12.4846 4.54899 12.4187 4.91876C12.3527 5.28853 12.5962 5.64817 12.9716 5.70895Z" fill="#8D8D8D"/>
<path d="M23.9896 10.5869C23.5381 7.94278 22.2902 5.53673 20.3727 3.62203C18.4552 1.70732 16.0457 0.461242 13.3977 0.0104253C13.0274 -0.0554244 12.6774 0.197844 12.6114 0.567615C12.5505 0.942451 12.7991 1.29196 13.1745 1.35781C15.5384 1.75797 17.6943 2.87742 19.4089 4.58444C21.1235 6.29654 22.2395 8.44931 22.6402 10.8098C22.696 11.1441 22.9852 11.3771 23.3149 11.3771C23.3555 11.3771 23.391 11.372 23.4316 11.367C23.8019 11.3112 24.0555 10.9567 23.9896 10.5869Z" fill="#8D8D8D"/>
</svg>
