<svg width="16" height="17" viewBox="0 0 16 17" fill="none" xmlns="http://www.w3.org/2000/svg">
<path d="M13.875 1.5625C13.4688 1.21875 11.8438 0.03125 8.28125 0.03125C8.28125 0.03125 4.0625 -0.21875 2 1.65625C0.84375 2.8125 0.4375 4.46875 0.40625 6.5625C0.375 8.625 0.3125 12.5312 4.0625 13.5938V15.1875C4.0625 15.1875 4.03125 15.8438 4.46875 16C5 16.1562 5.28125 15.6562 5.78125 15.125C6.0625 14.8125 6.4375 14.4062 6.71875 14.0625C9.28125 14.2812 11.25 13.7812 11.5 13.7188C12 13.5312 14.9375 13.1562 15.4062 9.28125C15.9062 5.25 15.1875 2.71875 13.875 1.5625ZM14.2812 8.96875C13.9062 12.2188 11.5 12.4375 11.0625 12.5938C10.875 12.625 9.15625 13.0625 6.96875 12.9375C6.96875 12.9375 5.34375 14.875 4.84375 15.4062C4.6875 15.5625 4.5 15.5625 4.5 15.2188C4.5 15 4.5 12.5312 4.5 12.5312C1.34375 11.6562 1.53125 8.34375 1.5625 6.625C1.59375 4.875 1.90625 3.46875 2.875 2.5C4.625 0.90625 8.21875 1.15625 8.21875 1.15625C11.25 1.15625 12.6875 2.09375 13.0312 2.375C14.1562 3.34375 14.7188 5.625 14.2812 8.96875ZM9.9375 6.46875C9.90625 5.5625 9.4375 5.0625 8.5625 5C8.28125 5 8.25 5.40625 8.53125 5.40625C9.1875 5.46875 9.5 5.78125 9.5625 6.46875C9.5625 6.75 9.96875 6.71875 9.9375 6.46875ZM10.5938 6.8125C10.5938 7.0625 11 7.09375 11 6.8125C11.0312 5.3125 10.0625 4.0625 8.25 3.9375C7.96875 3.90625 7.9375 4.3125 8.21875 4.34375C9.78125 4.4375 10.625 5.5 10.5938 6.8125ZM12.0625 7.21875C12.0312 4.5 10.1875 2.90625 7.875 2.875C7.625 2.875 7.625 3.28125 7.875 3.28125C9.9375 3.3125 11.625 4.6875 11.6562 7.21875C11.6562 7.5 12.0625 7.5 12.0625 7.21875ZM11.6875 10.2812C11.8438 10 11.8125 9.75 11.5938 9.5625C11.1875 9.1875 10.625 8.78125 10.1562 8.53125C9.8125 8.34375 9.46875 8.46875 9.3125 8.65625L9.03125 9.03125C8.875 9.21875 8.59375 9.1875 8.59375 9.1875C6.5 8.65625 5.9375 6.5625 5.9375 6.5625C5.9375 6.5625 5.9375 6.28125 6.125 6.125L6.5 5.8125C6.6875 5.65625 6.78125 5.3125 6.59375 4.96875C6.5 4.78125 6.28125 4.4375 6.125 4.25C5.96875 4 5.5625 3.5625 5.5625 3.5625C5.40625 3.3125 5.125 3.28125 4.84375 3.4375H4.8125C4.21875 3.75 3.5625 4.40625 3.78125 5.03125C3.78125 5.03125 3.9375 5.59375 4.59375 6.78125C4.90625 7.375 5.25 7.84375 5.5625 8.25C5.90625 8.6875 6.375 9.15625 6.875 9.5625C7.875 10.3438 9.40625 11.1562 10.0625 11.3438H10.0938C10.7188 11.5625 11.375 10.9062 11.6875 10.3125V10.2812Z" fill="#C4C4C4"/>
</svg>
