<svg width="15" height="15" viewBox="0 0 15 15" fill="none" xmlns="http://www.w3.org/2000/svg">
<path fill-rule="evenodd" clip-rule="evenodd" d="M8.26518 0.010382C11.5537 0.010382 13.0538 1.12305 13.4288 1.44513C14.6404 2.52851 15.3039 4.90024 14.8423 8.67744C14.4544 11.9322 12.2352 12.5516 11.4472 12.7716C11.3562 12.797 11.2842 12.8171 11.2364 12.8353L11.2302 12.8369C10.9749 12.9017 9.16832 13.3606 6.82283 13.1574C6.6132 13.4174 6.34715 13.7157 6.11579 13.975C6.06061 14.0369 6.00741 14.0965 5.95741 14.1529C5.8703 14.2469 5.79039 14.3398 5.71475 14.4277C5.38964 14.8056 5.14368 15.0915 4.74584 14.9728C4.34198 14.8264 4.37083 14.2115 4.37083 14.2115V12.7182C0.912217 11.7235 0.966774 8.06897 0.995643 6.13512L0.995719 6.13003C1.02457 4.16823 1.39958 2.61636 2.46692 1.53297C4.37083 -0.223863 8.26518 0.010382 8.26518 0.010382ZM8.52482 4.66601C9.33254 4.72457 9.76525 5.19306 9.79409 6.0422C9.82294 6.27644 9.44793 6.30572 9.44793 6.0422C9.39023 5.39802 9.10176 5.10522 8.49597 5.04666C8.23635 5.04666 8.2652 4.66601 8.52482 4.66601ZM10.7749 6.36428C10.7749 6.62781 10.3999 6.59853 10.3999 6.36428C10.4287 5.1345 9.64986 4.13896 8.2075 4.05112C7.94788 4.02183 7.97673 3.64119 8.23635 3.67047C9.90948 3.78759 10.8037 4.95881 10.7749 6.36428ZM7.89019 2.67493C10.0249 2.70421 11.7268 4.19752 11.7557 6.74493C11.7557 7.00846 11.3807 7.00846 11.3807 6.74493C11.3518 4.3732 9.79409 3.08486 7.89019 3.05557C7.65941 3.05557 7.65941 2.67493 7.89019 2.67493ZM11.323 8.94098C11.5249 9.11666 11.5538 9.35091 11.4095 9.61443V9.64371C11.1211 10.2 10.5153 10.8149 9.93833 10.61H9.90948C9.30369 10.4343 7.89019 9.67299 6.96708 8.94098C6.50553 8.56033 6.07282 8.12112 5.7555 7.71119C5.46703 7.33054 5.14972 6.89133 4.86124 6.335C4.25546 5.22234 4.11122 4.69529 4.11122 4.69529C3.90929 4.10968 4.51508 3.49478 5.06317 3.20198H5.09202C5.35164 3.05557 5.61127 3.08486 5.7555 3.3191C5.7555 3.3191 6.13052 3.72903 6.27475 3.96327C6.41899 4.13896 6.62092 4.46104 6.70746 4.63673C6.88054 4.95881 6.794 5.2809 6.62092 5.4273L6.27475 5.72011C6.10167 5.86651 6.10167 6.13004 6.10167 6.13004C6.10167 6.13004 6.62092 8.09184 8.55367 8.58961C8.55367 8.58961 8.81329 8.61889 8.95753 8.44321L9.21715 8.09184C9.36139 7.91616 9.6787 7.79903 9.99602 7.97472C10.4287 8.20896 10.948 8.58961 11.323 8.94098Z" fill="#383838"/>
</svg>
