<svg width="15" height="15" viewBox="0 0 15 15" fill="none" xmlns="http://www.w3.org/2000/svg">
<path fill-rule="evenodd" clip-rule="evenodd" d="M15 7.43304C15 5.42411 14.2522 3.67188 12.7567 2.17634C11.3058 0.725446 9.55357 0 7.5 0C5.44643 0 3.6942 0.725446 2.2433 2.17634C0.792411 3.62723 0.0669643 5.37946 0.0669643 7.43304C0.0669643 8.77232 0.401786 10.0112 1.07143 11.1496L0 15L3.95089 13.9621C5.04464 14.5647 6.22768 14.8661 7.5 14.8661C9.55357 14.8661 11.317 14.1406 12.7902 12.6897C14.2634 11.2388 15 9.48661 15 7.43304ZM11.25 9.20755C11.2277 9.16291 11.1049 9.08479 10.8817 8.97318C10.212 8.63836 9.78792 8.43747 9.60935 8.3705C9.43078 8.30354 9.29685 8.33702 9.20756 8.47095C9.09596 8.6272 8.89506 8.87273 8.60489 9.20755C8.5156 9.31916 8.38167 9.33032 8.2031 9.24104C7.5781 8.92854 7.07587 8.6272 6.6964 8.33702C6.33926 8.04684 6.00444 7.61157 5.69194 7.03122C5.6473 6.89729 5.63614 6.81916 5.65846 6.79684L5.89283 6.56247C6.02676 6.40622 6.13837 6.22764 6.22765 6.02675C6.2723 5.93746 6.26113 5.82586 6.19417 5.69193L5.62497 4.31916C5.55801 4.11827 5.42408 4.01782 5.22319 4.01782H4.85488C4.67631 4.01782 4.5089 4.08479 4.35265 4.21872C3.92855 4.70979 3.71649 5.23434 3.71649 5.79238C3.71649 6.37273 3.97319 7.00889 4.48658 7.70086C5.49105 9.10711 6.54015 10.0446 7.6339 10.5134C8.54908 10.9151 9.29685 11.0714 9.87721 10.9821C10.0781 10.9598 10.3125 10.8593 10.5803 10.6808C10.8705 10.4799 11.0491 10.2901 11.116 10.1116C11.2723 9.64282 11.3169 9.34148 11.25 9.20755Z" fill="#383838"/>
</svg>
