<svg width="32" height="32" viewBox="0 0 32 32" fill="none" xmlns="http://www.w3.org/2000/svg">
<circle cx="16" cy="16" r="16" fill="white"/>
<g clip-path="url(#clip0_376_1097)">
<path d="M15.7218 11.4722C15.7218 13.6727 13.9353 15.4592 11.7348 15.4592C9.5343 15.4592 7.7478 13.6727 7.7478 11.4722C7.7478 9.27165 9.5343 7.48515 11.7348 7.48515C13.9353 7.48515 15.7218 9.27165 15.7218 11.4722Z" fill="#00A5F8"/>
<path d="M24.0973 10.5142C24.0973 12.1005 22.8095 13.3883 21.223 13.3883C19.6367 13.3883 18.3489 12.1005 18.3489 10.5142C18.3489 8.92769 19.6367 7.63985 21.223 7.63985C22.8095 7.63985 24.0973 8.92769 24.0973 10.5142Z" fill="#F85E60"/>
<path d="M12.0129 19.8478C12.0129 20.9396 11.1267 21.8258 10.0349 21.8258C8.94338 21.8258 8.05688 20.9396 8.05688 19.8478C8.05688 18.7563 8.94338 17.8698 10.0349 17.8698C11.1267 17.8698 12.0129 18.7563 12.0129 19.8478Z" fill="#9D66F0"/>
<path d="M24.5302 19.7398C24.5302 22.4775 22.3075 24.7002 19.5695 24.7002C16.8319 24.7002 14.6091 22.4775 14.6091 19.7398C14.6091 17.0018 16.8319 14.7791 19.5695 14.7791C22.3075 14.7791 24.5302 17.0018 24.5302 19.7398Z" fill="#93C925"/>
</g>
<defs>
<clipPath id="clip0_376_1097">
<rect width="18" height="18" fill="white" transform="translate(7 7)"/>
</clipPath>
</defs>
</svg>
