<svg width="30" height="29" viewBox="0 0 30 29" fill="none" xmlns="http://www.w3.org/2000/svg">
<rect width="30" height="29" fill="#F0F0F0"/>
<g id="&#208;&#179;&#208;&#187;&#208;&#176;&#208;&#178;&#208;&#189;&#208;&#176;&#209;&#143;" clip-path="url(#clip0_0_1)">
<rect width="1920" height="11194" transform="translate(-270 -80)" fill="white"/>
<g id="Group 1000001148">
<g id="Rectangle 1" filter="url(#filter0_b_0_1)">
<rect x="-20" y="-21" width="1420" height="71" rx="35.5" fill="url(#paint0_linear_0_1)"/>
<rect x="-19.5" y="-20.5" width="1419" height="70" rx="35" stroke="white" stroke-opacity="0.1"/>
</g>
<g id="Group 1000001100">
<g id="noun-circle-666339 1">
<g id="Group">
<path id="Vector" d="M14.58 22.1643C10.44 22.1643 7.05 18.85 7.05 14.7367C7.05 10.6235 10.41 7.30919 14.58 7.30919C18.75 7.30919 22.11 10.6531 22.11 14.7367C22.11 18.8204 18.72 22.1643 14.58 22.1643ZM14.58 11.6C12.81 11.6 11.4 13.0204 11.4 14.7367C11.4 16.4531 12.84 17.8735 14.58 17.8735C16.32 17.8735 17.76 16.4531 17.76 14.7367C17.76 13.0204 16.35 11.6 14.58 11.6Z" fill="white"/>
</g>
<g id="Group_2">
<path id="Vector_2" d="M7.53 8.58163C8.80578 8.58163 9.84 7.56148 9.84 6.30306C9.84 5.04464 8.80578 4.02449 7.53 4.02449C6.25422 4.02449 5.22 5.04464 5.22 6.30306C5.22 7.56148 6.25422 8.58163 7.53 8.58163Z" fill="white"/>
</g>
<g id="Group_3">
<path id="Vector_3" d="M20.58 8.52245C18.96 7.01326 16.83 6.1551 14.58 6.1551V1.89388C17.94 1.89388 21.12 3.13673 23.55 5.4153L20.58 8.52245Z" fill="white"/>
</g>
<g id="Group_4">
<path id="Vector_4" d="M14.58 27.5796C10.98 27.5796 7.62 26.1592 5.13 23.5847L8.25 20.6551C9.9 22.3714 12.15 23.3184 14.55 23.3184C17.01 23.3184 19.26 22.3418 20.94 20.5663L24.12 23.4663C21.69 26.0704 18.21 27.5796 14.58 27.5796Z" fill="white"/>
</g>
</g>
</g>
</g>
</g>
<defs>
<filter id="filter0_b_0_1" x="-30" y="-31" width="1440" height="91" filterUnits="userSpaceOnUse" color-interpolation-filters="sRGB">
<feFlood flood-opacity="0" result="BackgroundImageFix"/>
<feGaussianBlur in="BackgroundImageFix" stdDeviation="5"/>
<feComposite in2="SourceAlpha" operator="in" result="effect1_backgroundBlur_0_1"/>
<feBlend mode="normal" in="SourceGraphic" in2="effect1_backgroundBlur_0_1" result="shape"/>
</filter>
<linearGradient id="paint0_linear_0_1" x1="1215.5" y1="31.0003" x2="18" y2="-20.9997" gradientUnits="userSpaceOnUse">
<stop stop-color="#312B2D"/>
<stop offset="0.255208" stop-color="#312B2D" stop-opacity="0.87"/>
<stop offset="0.5" stop-color="#312B2D"/>
<stop offset="0.786458" stop-color="#312B2D" stop-opacity="0.85"/>
<stop offset="1" stop-color="#312B2D"/>
</linearGradient>
<clipPath id="clip0_0_1">
<rect width="1920" height="11194" fill="white" transform="translate(-270 -80)"/>
</clipPath>
</defs>
</svg>
