<svg width="16" height="17" viewBox="0 0 16 17" fill="none" xmlns="http://www.w3.org/2000/svg">
<g id="MapPin">
<path id="Vector" d="M7.99963 1.49988C6.54147 1.50161 5.14353 2.08163 4.11246 3.1127C3.08138 4.14378 2.50136 5.54172 2.49963 6.99988C2.49963 11.7059 7.49963 15.2606 7.71252 15.4095C7.79672 15.4683 7.89694 15.4999 7.99963 15.4999C8.10233 15.4999 8.20255 15.4683 8.28674 15.4095C8.49963 15.2606 13.4996 11.7059 13.4996 6.99988C13.4979 5.54172 12.9179 4.14378 11.8868 3.1127C10.8557 2.08163 9.45779 1.50161 7.99963 1.49988ZM8 5.00006C8.39556 5.00006 8.78224 5.11736 9.11114 5.33712C9.44004 5.55688 9.69638 5.86924 9.84776 6.23469C9.99913 6.60014 10.0387 7.00228 9.96157 7.39024C9.8844 7.7782 9.69392 8.13457 9.41421 8.41427C9.13451 8.69398 8.77814 8.88446 8.39018 8.96163C8.00222 9.0388 7.60009 8.99919 7.23463 8.84782C6.86918 8.69644 6.55682 8.4401 6.33706 8.1112C6.1173 7.7823 6 7.39562 6 7.00006C5.99999 6.73741 6.05172 6.47734 6.15223 6.23468C6.25273 5.99203 6.40005 5.77155 6.58577 5.58583C6.77149 5.40011 6.99197 5.25279 7.23462 5.15228C7.47728 5.05178 7.73735 5.00005 8 5.00006Z" fill="#4B4B4B"/>
</g>
</svg>
