<svg xmlns="http://www.w3.org/2000/svg">
    <symbol id="arrow_dropdown" viewBox="0 0 4 3">
        
            <path d="M2 3L0.267949 0H3.73205L2 3Z"/>
        
    </symbol>
    <symbol id="arrow_link" viewBox="0 0 15 16">
        
            <path
            d="M7.0975 11.5352H10.2021C10.5703 11.5352 10.8687 11.2367 10.8687 10.8685V7.76395M10.3973 11.0638L3.79768 4.46411"/>
        
    </symbol>
    <symbol id="burger" viewBox="0 0 38 38">
        <path d="M5.9375 10.0938H32.0625" stroke-width="1.29167"
            stroke-linecap="round" stroke-linejoin="round" />
        <path d="M13.0625 16.0312H32.0625" stroke-width="1.29167"
            stroke-linecap="round" stroke-linejoin="round" />
        <path d="M5.93848 21.9688H32.0626" stroke-width="1.29167"
            stroke-linecap="round" stroke-linejoin="round" />
        <path d="M13.0635 27.9062H32.0626" stroke-width="1.29167"
            stroke-linecap="round" stroke-linejoin="round" />
    </symbol>
    <symbol id="avito" viewBox="0 0 18 18">
        
            <path fill="var(--avito-1)"
                d="M8.72186 4.47215C8.72186 6.67265 6.93536 8.45915 4.73486 8.45915C2.53436 8.45915 0.747864 6.67265 0.747864 4.47215C0.747864 2.27165 2.53436 0.485153 4.73486 0.485153C6.93536 0.485153 8.72186 2.27165 8.72186 4.47215Z"/>
            <path fill="var(--avito-2)"
                d="M17.0975 3.51422C17.0975 5.10047 15.8096 6.38832 14.2231 6.38832C12.6368 6.38832 11.349 5.10047 11.349 3.51422C11.349 1.92769 12.6368 0.639847 14.2231 0.639847C15.8096 0.639847 17.0975 1.92769 17.0975 3.51422Z"/>
            <path fill="var(--avito-3)"
                d="M5.01301 12.8478C5.01301 13.9396 4.12679 14.8258 3.03498 14.8258C1.94345 14.8258 1.05695 13.9396 1.05695 12.8478C1.05695 11.7563 1.94345 10.8698 3.03498 10.8698C4.12679 10.8698 5.01301 11.7563 5.01301 12.8478Z"/>
            <path fill="var(--avito-4)"
                d="M17.5303 12.7398C17.5303 15.4775 15.3076 17.7002 12.5697 17.7002C9.83197 17.7002 7.60925 15.4775 7.60925 12.7398C7.60925 10.0018 9.83197 7.77908 12.5697 7.77908C15.3076 7.77908 17.5303 10.0018 17.5303 12.7398Z"/>
                
       
    </symbol>
    <symbol id="close" viewBox="0 0 32 32">
        <path d="M25 7L7 25"  stroke-width="2" stroke-linecap="round" stroke-linejoin="round"/>
        <path d="M25 25L7 7" stroke-width="2" stroke-linecap="round" stroke-linejoin="round"/> 
    </symbol>
    <symbol id="logo" viewBox="0 0 30 29">
                   <path
            d="M14.58 22.1643C10.44 22.1643 7.05 18.85 7.05 14.7367C7.05 10.6235 10.41 7.30919 14.58 7.30919C18.75 7.30919 22.11 10.6531 22.11 14.7367C22.11 18.8204 18.72 22.1643 14.58 22.1643ZM14.58 11.6C12.81 11.6 11.4 13.0204 11.4 14.7367C11.4 16.4531 12.84 17.8735 14.58 17.8735C16.32 17.8735 17.76 16.4531 17.76 14.7367C17.76 13.0204 16.35 11.6 14.58 11.6Z"/>
            <path
            d="M7.53 8.58163C8.80578 8.58163 9.84 7.56148 9.84 6.30306C9.84 5.04464 8.80578 4.02449 7.53 4.02449C6.25422 4.02449 5.22 5.04464 5.22 6.30306C5.22 7.56148 6.25422 8.58163 7.53 8.58163Z"/>
            <path
            d="M20.58 8.52245C18.96 7.01326 16.83 6.1551 14.58 6.1551V1.89388C17.94 1.89388 21.12 3.13673 23.55 5.4153L20.58 8.52245Z"/>
            <path
            d="M14.58 27.5796C10.98 27.5796 7.62 26.1592 5.13 23.5847L8.25 20.6551C9.9 22.3714 12.15 23.3184 14.55 23.3184C17.01 23.3184 19.26 22.3418 20.94 20.5663L24.12 23.4663C21.69 26.0704 18.21 27.5796 14.58 27.5796Z"/>
        
    </symbol>
    <symbol id="placemark" viewBox="0 0 16 16">
       
            <path
                d="M7.99951 0.999817C6.54135 1.00155 5.14341 1.58157 4.11234 2.61264C3.08126 3.64372 2.50124 5.04166 2.49951 6.49982C2.49951 11.2059 7.49951 14.7606 7.7124 14.9095C7.7966 14.9683 7.89682 14.9998 7.99951 14.9998C8.10221 14.9998 8.20243 14.9683 8.28662 14.9095C8.49951 14.7606 13.4995 11.2059 13.4995 6.49982C13.4978 5.04166 12.9178 3.64372 11.8867 2.61264C10.8556 1.58157 9.45767 1.00155 7.99951 0.999817ZM7.99988 4.5C8.39544 4.5 8.78212 4.6173 9.11102 4.83706C9.43992 5.05682 9.69626 5.36918 9.84764 5.73463C9.99901 6.10008 10.0386 6.50222 9.96145 6.89018C9.88428 7.27814 9.6938 7.63451 9.41409 7.91421C9.13439 8.19392 8.77802 8.3844 8.39006 8.46157C8.0021 8.53874 7.59996 8.49913 7.23451 8.34776C6.86906 8.19638 6.5567 7.94004 6.33694 7.61114C6.11718 7.28224 5.99988 6.89556 5.99988 6.5C5.99987 6.23735 6.0516 5.97728 6.1521 5.73462C6.25261 5.49197 6.39993 5.27149 6.58565 5.08577C6.77137 4.90005 6.99185 4.75273 7.2345 4.65222C7.47716 4.55172 7.73723 4.49999 7.99988 4.5Z"/>
        
    </symbol>
    <symbol id="phone" viewBox="0 0 16 16">
       
            <path
            d="M13.8732 9.90167L10.9459 8.64709C10.793 8.5813 10.6261 8.5548 10.4604 8.57003C10.2947 8.58525 10.1355 8.64171 9.99719 8.73425L8.432 9.77759C7.47541 9.31233 6.70117 8.5415 6.23169 7.58698L6.23181 7.58685L7.27148 5.99823C7.36198 5.86031 7.41689 5.70212 7.43129 5.53779C7.44569 5.37346 7.41913 5.20813 7.354 5.05658L6.09827 2.12671C6.01279 1.92783 5.86519 1.76199 5.67757 1.65402C5.48994 1.54605 5.2724 1.50175 5.0575 1.52777C4.21304 1.63635 3.43699 2.04864 2.87432 2.68763C2.31166 3.32662 2.00086 4.14859 2 5C2 9.96265 6.03735 14 11 14C11.8514 13.9991 12.6734 13.6883 13.3124 13.1257C13.9514 12.563 14.3637 11.7869 14.4722 10.9424C14.4982 10.7275 14.4538 10.51 14.3459 10.3224C14.2379 10.1348 14.0721 9.98719 13.8732 9.90167Z"/>
            <path
            d="M9.83448 2.98304C10.5973 3.18814 11.2928 3.59011 11.8514 4.14865C12.4099 4.7072 12.8119 5.40272 13.017 6.16553C13.0514 6.29339 13.1352 6.40236 13.2499 6.46852C13.3646 6.53468 13.5009 6.55264 13.6288 6.51845C13.7567 6.48426 13.8659 6.40072 13.9323 6.28615C13.9987 6.17159 14.017 6.03536 13.983 5.90735C13.7323 4.97487 13.2409 4.12465 12.5581 3.44187C11.8754 2.75908 11.0251 2.26771 10.0927 2.01697C9.96465 1.98305 9.82842 2.0013 9.71385 2.06771C9.59929 2.13411 9.51574 2.24325 9.48155 2.37119C9.44736 2.49912 9.46532 2.63539 9.53149 2.75009C9.59765 2.8648 9.70662 2.94857 9.83447 2.98303L9.83448 2.98304Z"/>
            <path
            d="M9.31665 4.91535C9.74041 5.0293 10.1268 5.2526 10.4371 5.56288C10.7473 5.87317 10.9706 6.25954 11.0846 6.68329C11.1191 6.81115 11.2028 6.92012 11.3175 6.98628C11.4322 7.05244 11.5685 7.0704 11.6964 7.03621C11.8244 7.00202 11.9335 6.91848 11.9999 6.80391C12.0663 6.68935 12.0846 6.55312 12.0507 6.42511C11.8911 5.83168 11.5784 5.2906 11.1439 4.85607C10.7093 4.42155 10.1683 4.10884 9.57483 3.94928C9.44683 3.91536 9.3106 3.93361 9.19603 4.00002C9.08146 4.06642 8.99792 4.17557 8.96373 4.3035C8.92954 4.43143 8.9475 4.5677 9.01366 4.6824C9.07983 4.79711 9.18879 4.88089 9.31665 4.91535L9.31665 4.91535Z"/>
       
    </symbol>
    <symbol id="star" viewBox="0 0 19 20">
        
          <path
            d="M8.37878 3.1197C8.60579 2.42104 9.59421 2.42104 9.82122 3.1197L10.9728 6.66397C11.0743 6.97643 11.3655 7.18797 11.694 7.18797H15.4207C16.1553 7.18797 16.4608 8.12801 15.8664 8.55981L12.8515 10.7503C12.5857 10.9434 12.4745 11.2857 12.576 11.5981L13.7276 15.1424C13.9546 15.8411 13.155 16.422 12.5607 15.9902L9.54574 13.7998C9.27995 13.6067 8.92005 13.6067 8.65426 13.7998L5.63933 15.9902C5.04501 16.422 4.24536 15.8411 4.47237 15.1424L5.62398 11.5981C5.7255 11.2857 5.61428 10.9434 5.34849 10.7503L2.33356 8.55981C1.73924 8.12801 2.04468 7.18797 2.7793 7.18797H6.50596C6.83449 7.18797 7.12566 6.97643 7.22718 6.66397L8.37878 3.1197Z"
            fill="var(--star_fill)"/>
        
    </symbol>
    <symbol id="telegram" viewBox="0 0 48 48">
       
            <path
            d="M5.83,23.616c12.568-5.529,28.832-12.27,31.077-13.203c5.889-2.442,7.696-1.974,6.795,3.434 c-0.647,3.887-2.514,16.756-4.002,24.766c-0.883,4.75-2.864,5.313-5.979,3.258c-1.498-0.989-9.059-5.989-10.7-7.163 c-1.498-1.07-3.564-2.357-0.973-4.892c0.922-0.903,6.966-6.674,11.675-11.166c0.617-0.59-0.158-1.559-0.87-1.086 c-6.347,4.209-15.147,10.051-16.267,10.812c-1.692,1.149-3.317,1.676-6.234,0.838c-2.204-0.633-4.357-1.388-5.195-1.676 C1.93,26.43,2.696,24.995,5.83,23.616z">
            </path>
        
    </symbol>
    <symbol id="whatsapp" viewBox="0 0 24 24">
       
            <path
            d="M 12.011719 2 C 6.5057187 2 2.0234844 6.478375 2.0214844 11.984375 C 2.0204844 13.744375 2.4814687 15.462563 3.3554688 16.976562 L 2 22 L 7.2324219 20.763672 C 8.6914219 21.559672 10.333859 21.977516 12.005859 21.978516 L 12.009766 21.978516 C 17.514766 21.978516 21.995047 17.499141 21.998047 11.994141 C 22.000047 9.3251406 20.962172 6.8157344 19.076172 4.9277344 C 17.190172 3.0407344 14.683719 2.001 12.011719 2 z M 12.009766 4 C 14.145766 4.001 16.153109 4.8337969 17.662109 6.3417969 C 19.171109 7.8517969 20.000047 9.8581875 19.998047 11.992188 C 19.996047 16.396187 16.413812 19.978516 12.007812 19.978516 C 10.674812 19.977516 9.3544062 19.642812 8.1914062 19.007812 L 7.5175781 18.640625 L 6.7734375 18.816406 L 4.8046875 19.28125 L 5.2851562 17.496094 L 5.5019531 16.695312 L 5.0878906 15.976562 C 4.3898906 14.768562 4.0204844 13.387375 4.0214844 11.984375 C 4.0234844 7.582375 7.6067656 4 12.009766 4 z M 8.4765625 7.375 C 8.3095625 7.375 8.0395469 7.4375 7.8105469 7.6875 C 7.5815469 7.9365 6.9355469 8.5395781 6.9355469 9.7675781 C 6.9355469 10.995578 7.8300781 12.182609 7.9550781 12.349609 C 8.0790781 12.515609 9.68175 15.115234 12.21875 16.115234 C 14.32675 16.946234 14.754891 16.782234 15.212891 16.740234 C 15.670891 16.699234 16.690438 16.137687 16.898438 15.554688 C 17.106437 14.971687 17.106922 14.470187 17.044922 14.367188 C 16.982922 14.263188 16.816406 14.201172 16.566406 14.076172 C 16.317406 13.951172 15.090328 13.348625 14.861328 13.265625 C 14.632328 13.182625 14.464828 13.140625 14.298828 13.390625 C 14.132828 13.640625 13.655766 14.201187 13.509766 14.367188 C 13.363766 14.534188 13.21875 14.556641 12.96875 14.431641 C 12.71875 14.305641 11.914938 14.041406 10.960938 13.191406 C 10.218937 12.530406 9.7182656 11.714844 9.5722656 11.464844 C 9.4272656 11.215844 9.5585938 11.079078 9.6835938 10.955078 C 9.7955938 10.843078 9.9316406 10.663578 10.056641 10.517578 C 10.180641 10.371578 10.223641 10.267562 10.306641 10.101562 C 10.389641 9.9355625 10.347156 9.7890625 10.285156 9.6640625 C 10.223156 9.5390625 9.737625 8.3065 9.515625 7.8125 C 9.328625 7.3975 9.131125 7.3878594 8.953125 7.3808594 C 8.808125 7.3748594 8.6425625 7.375 8.4765625 7.375 z">
            </path>
        
    </symbol>
    <symbol id="cart" viewBox="0 0 25 25">
        <g clip-path="url(#clip0_332_1075)">
            <path
                d="M18.75 12.5C17.6525 12.5013 16.574 12.2132 15.6234 11.6648C14.6727 11.1164 13.8834 10.327 13.335 9.37633C12.7867 8.42562 12.4987 7.34715 12.5 6.24963C12.5014 5.15212 12.792 4.07436 13.3427 3.125H4.41875L4.375 2.75833C4.28523 1.99854 3.91985 1.29808 3.34811 0.789692C2.77637 0.281307 2.03799 0.000325871 1.27292 0L1.04167 0C0.765399 0 0.500448 0.109747 0.305097 0.305097C0.109747 0.500448 0 0.765399 0 1.04167C0 1.31793 0.109747 1.58289 0.305097 1.77824C0.500448 1.97359 0.765399 2.08333 1.04167 2.08333H1.27292C1.52806 2.08337 1.77431 2.17704 1.96497 2.34658C2.15563 2.51612 2.27744 2.74974 2.30729 3.00312L3.74062 15.1906C3.88943 16.4581 4.49841 17.6269 5.45199 18.475C6.40556 19.3232 7.63735 19.7917 8.91354 19.7917H19.7917C20.0679 19.7917 20.3329 19.6819 20.5282 19.4866C20.7236 19.2912 20.8333 19.0263 20.8333 18.75C20.8333 18.4737 20.7236 18.2088 20.5282 18.0134C20.3329 17.8181 20.0679 17.7083 19.7917 17.7083H8.91354C8.26863 17.7067 7.64001 17.5056 7.1139 17.1327C6.58779 16.7597 6.18997 16.233 5.975 15.625H18.3927C19.6138 15.6251 20.7962 15.1961 21.7331 14.413C22.6701 13.6298 23.3021 12.5424 23.5187 11.3406L23.7667 9.96667C23.1872 10.7523 22.4314 11.3908 21.56 11.8308C20.6887 12.2708 19.7262 12.5 18.75 12.5Z"
                fill="#374957" />
            <path
                d="M7.29158 25.0006C8.44217 25.0006 9.37491 24.0679 9.37491 22.9173C9.37491 21.7667 8.44217 20.834 7.29158 20.834C6.14099 20.834 5.20825 21.7667 5.20825 22.9173C5.20825 24.0679 6.14099 25.0006 7.29158 25.0006Z"
                fill="#374957" />
            <path
                d="M17.7083 25.0006C18.8589 25.0006 19.7917 24.0679 19.7917 22.9173C19.7917 21.7667 18.8589 20.834 17.7083 20.834C16.5577 20.834 15.625 21.7667 15.625 22.9173C15.625 24.0679 16.5577 25.0006 17.7083 25.0006Z"
                fill="#374957" />
            <path
                d="M16.3886 9.31854C16.5678 9.51203 16.7843 9.66718 17.0251 9.77461C17.2659 9.88203 17.526 9.9395 17.7897 9.94354H17.824C18.0824 9.94439 18.3384 9.89391 18.5771 9.79503C18.8159 9.69614 19.0326 9.55082 19.2147 9.3675L23.6647 4.9175C23.8609 4.72163 23.9714 4.4558 23.9717 4.1785C23.972 3.9012 23.8621 3.63514 23.6662 3.43886C23.4703 3.24257 23.2045 3.13213 22.9272 3.13184C22.6499 3.13154 22.3839 3.24142 22.1876 3.43729L17.8261 7.80604L16.5407 6.42688C16.352 6.22479 16.0908 6.10593 15.8145 6.09646C15.5381 6.08698 15.2694 6.18766 15.0673 6.37635C14.8652 6.56505 14.7463 6.82629 14.7369 7.10261C14.7274 7.37893 14.8281 7.6477 15.0168 7.84979L16.3886 9.31854Z"
                fill="#374957" />
        </g>
        <defs>
            <clipPath id="clip0_332_1075">
                <rect width="25" height="25" fill="white" />
            </clipPath>
        </defs>
    </symbol>
    <symbol id="slice" viewBox="0 0 27 27">
        <path
            d="M1.26892 11.7013L13.0814 18.4513C13.2089 18.5241 13.3532 18.5624 13.5 18.5624C13.6468 18.5624 13.7911 18.5241 13.9186 18.4513L25.7311 11.7013C25.8602 11.6275 25.9676 11.5209 26.0423 11.3922C26.1169 11.2636 26.1562 11.1175 26.1562 10.9687C26.1562 10.8199 26.1169 10.6738 26.0423 10.5452C25.9676 10.4165 25.8602 10.3099 25.7311 10.2361L13.9186 3.48608C13.7911 3.41329 13.6468 3.375 13.5 3.375C13.3532 3.375 13.2089 3.41329 13.0814 3.48608L1.26892 10.2361C1.13976 10.3099 1.03241 10.4165 0.957743 10.5452C0.883076 10.6738 0.84375 10.8199 0.84375 10.9687C0.84375 11.1175 0.883076 11.2636 0.957743 11.3922C1.03241 11.5209 1.13976 11.6275 1.26892 11.7013Z"
            fill="#374957" />
        <path
            d="M24.8939 14.4549L13.5 20.9657L2.10609 14.4549C2.00988 14.3999 1.90379 14.3644 1.79387 14.3505C1.68395 14.3365 1.57235 14.3443 1.46545 14.3735C1.35856 14.4027 1.25845 14.4526 1.17085 14.5204C1.08324 14.5883 1.00986 14.6727 0.954896 14.7689C0.899928 14.8651 0.864447 14.9712 0.85048 15.0812C0.836513 15.1911 0.844333 15.3027 0.873494 15.4096C0.902656 15.5165 0.952586 15.6166 1.02044 15.7042C1.08829 15.7918 1.17273 15.8652 1.26893 15.9201L13.0814 22.6701C13.2089 22.743 13.3532 22.7813 13.5 22.7813C13.6468 22.7813 13.7911 22.743 13.9186 22.6701L25.7311 15.9201C25.8273 15.8652 25.9117 15.7918 25.9796 15.7042C26.0474 15.6166 26.0974 15.5165 26.1265 15.4096C26.1557 15.3027 26.1635 15.1911 26.1495 15.0812C26.1356 14.9712 26.1001 14.8651 26.0451 14.7689C25.9902 14.6727 25.9168 14.5883 25.8292 14.5204C25.7416 14.4526 25.6415 14.4027 25.5346 14.3735C25.4277 14.3443 25.3161 14.3365 25.2062 14.3505C25.0962 14.3644 24.9901 14.3999 24.8939 14.4549Z"
            fill="#374957" />
    </symbol>
    <symbol id="slices" viewBox="0 0 27 27">
        <path
            d="M23.1998 17.8337L13.5 23.4919L3.80018 17.8337C3.60689 17.7209 3.37672 17.6896 3.16031 17.7465C2.9439 17.8035 2.75897 17.944 2.6462 18.1373C2.53344 18.3306 2.50208 18.5608 2.55903 18.7772C2.61597 18.9936 2.75655 19.1786 2.94984 19.2913L13.0748 25.1976C13.2039 25.2728 13.3506 25.3125 13.5 25.3125C13.6494 25.3125 13.7961 25.2728 13.9252 25.1976L24.0502 19.2913C24.1459 19.2355 24.2297 19.1613 24.2967 19.0731C24.3638 18.9849 24.4128 18.8844 24.441 18.7772C24.4692 18.6701 24.476 18.5584 24.461 18.4486C24.4461 18.3388 24.4097 18.233 24.3538 18.1373C24.298 18.0416 24.2238 17.9579 24.1356 17.8908C24.0474 17.8237 23.9469 17.7747 23.8397 17.7465C23.7326 17.7183 23.6209 17.7115 23.5111 17.7265C23.4013 17.7414 23.2955 17.7779 23.1998 17.8337Z"
            fill="#374957" />
        <path
            d="M23.1998 12.7712L13.5 18.4294L3.80018 12.7712C3.60689 12.6584 3.37672 12.6271 3.16031 12.684C2.9439 12.741 2.75897 12.8815 2.6462 13.0748C2.53344 13.2681 2.50208 13.4983 2.55903 13.7147C2.61597 13.9311 2.75655 14.1161 2.94984 14.2288L13.0748 20.1351C13.2039 20.2103 13.3506 20.25 13.5 20.25C13.6494 20.25 13.7961 20.2103 13.9252 20.1351L24.0502 14.2288C24.2435 14.1161 24.3841 13.9311 24.441 13.7147C24.4979 13.4983 24.4666 13.2681 24.3538 13.0748C24.2411 12.8815 24.0561 12.741 23.8397 12.684C23.6233 12.6271 23.3931 12.6584 23.1998 12.7712Z"
            fill="#374957" />
        <path
            d="M2.94983 9.16631L13.0748 15.0726C13.2039 15.1478 13.3506 15.1875 13.5 15.1875C13.6494 15.1875 13.7961 15.1478 13.9252 15.0726L24.0502 9.16631C24.1775 9.092 24.2832 8.9856 24.3567 8.85773C24.4301 8.72985 24.4688 8.58496 24.4688 8.4375C24.4688 8.29004 24.4301 8.14515 24.3567 8.01727C24.2832 7.8894 24.1775 7.783 24.0502 7.70869L13.9252 1.80244C13.7961 1.72717 13.6494 1.6875 13.5 1.6875C13.3506 1.6875 13.2039 1.72717 13.0748 1.80244L2.94983 7.70869C2.82246 7.783 2.71678 7.8894 2.64334 8.01727C2.5699 8.14515 2.53125 8.29004 2.53125 8.4375C2.53125 8.58496 2.5699 8.72985 2.64334 8.85773C2.71678 8.9856 2.82246 9.092 2.94983 9.16631Z"
            fill="#374957" />
    </symbol>
    <symbol id="pages" viewBox="0 0 27 27">
        <path
        d="M17.5627 5.20833H12.5002V0.0166667L17.5627 5.20833ZM10.4168 7.29167V0H5.2085C4.37969 0 3.58484 0.32924 2.99879 0.915291C2.41274 1.50134 2.0835 2.2962 2.0835 3.125V19.7917H17.7085V7.29167H10.4168ZM19.7918 7.30208V21.9146H7.29183V25H22.9168V10.4167L19.7918 7.30208Z"
        fill="#374957" />
    </symbol>  
</svg>