<svg xmlns="http://www.w3.org/2000/svg">
    <symbol id="arrow_dropdown" viewBox="0 0 4 3">
        
            <path d="M2 3L0.267949 0H3.73205L2 3Z"/>
        
    </symbol>
    <symbol id="arrow_link" viewBox="0 0 15 16">
        
            <path
            d="M7.0975 11.5352H10.2021C10.5703 11.5352 10.8687 11.2367 10.8687 10.8685V7.76395M10.3973 11.0638L3.79768 4.46411"/>
        
    </symbol>
    <symbol id="avito" viewBox="0 0 18 18">
        
            <path fill="var(--avito-1)"
                d="M8.72186 4.47215C8.72186 6.67265 6.93536 8.45915 4.73486 8.45915C2.53436 8.45915 0.747864 6.67265 0.747864 4.47215C0.747864 2.27165 2.53436 0.485153 4.73486 0.485153C6.93536 0.485153 8.72186 2.27165 8.72186 4.47215Z"/>
            <path fill="var(--avito-2)"
                d="M17.0975 3.51422C17.0975 5.10047 15.8096 6.38832 14.2231 6.38832C12.6368 6.38832 11.349 5.10047 11.349 3.51422C11.349 1.92769 12.6368 0.639847 14.2231 0.639847C15.8096 0.639847 17.0975 1.92769 17.0975 3.51422Z"/>
            <path fill="var(--avito-3)"
                d="M5.01301 12.8478C5.01301 13.9396 4.12679 14.8258 3.03498 14.8258C1.94345 14.8258 1.05695 13.9396 1.05695 12.8478C1.05695 11.7563 1.94345 10.8698 3.03498 10.8698C4.12679 10.8698 5.01301 11.7563 5.01301 12.8478Z"/>
            <path fill="var(--avito-4)"
                d="M17.5303 12.7398C17.5303 15.4775 15.3076 17.7002 12.5697 17.7002C9.83197 17.7002 7.60925 15.4775 7.60925 12.7398C7.60925 10.0018 9.83197 7.77908 12.5697 7.77908C15.3076 7.77908 17.5303 10.0018 17.5303 12.7398Z"/>
                
       
    </symbol>
    <symbol id="burger" viewBox="0 0 38 38">
        <path d="M5.9375 10.0938H32.0625" stroke-width="1.29167"
            stroke-linecap="round" stroke-linejoin="round" />
        <path d="M13.0625 16.0312H32.0625" stroke-width="1.29167"
            stroke-linecap="round" stroke-linejoin="round" />
        <path d="M5.93848 21.9688H32.0626" stroke-width="1.29167"
            stroke-linecap="round" stroke-linejoin="round" />
        <path d="M13.0635 27.9062H32.0626" stroke-width="1.29167"
            stroke-linecap="round" stroke-linejoin="round" />
    </symbol>
    <symbol id="cart" viewBox="0 0 25 25">
        <path
            d="M18.75 12.5C17.6525 12.5013 16.574 12.2132 15.6234 11.6648C14.6727 11.1164 13.8834 10.327 13.335 9.37633C12.7867 8.42562 12.4987 7.34715 12.5 6.24963C12.5014 5.15212 12.792 4.07436 13.3427 3.125H4.41875L4.375 2.75833C4.28523 1.99854 3.91985 1.29808 3.34811 0.789692C2.77637 0.281307 2.03799 0.000325871 1.27292 0L1.04167 0C0.765399 0 0.500448 0.109747 0.305097 0.305097C0.109747 0.500448 0 0.765399 0 1.04167C0 1.31793 0.109747 1.58289 0.305097 1.77824C0.500448 1.97359 0.765399 2.08333 1.04167 2.08333H1.27292C1.52806 2.08337 1.77431 2.17704 1.96497 2.34658C2.15563 2.51612 2.27744 2.74974 2.30729 3.00312L3.74062 15.1906C3.88943 16.4581 4.49841 17.6269 5.45199 18.475C6.40556 19.3232 7.63735 19.7917 8.91354 19.7917H19.7917C20.0679 19.7917 20.3329 19.6819 20.5282 19.4866C20.7236 19.2912 20.8333 19.0263 20.8333 18.75C20.8333 18.4737 20.7236 18.2088 20.5282 18.0134C20.3329 17.8181 20.0679 17.7083 19.7917 17.7083H8.91354C8.26863 17.7067 7.64001 17.5056 7.1139 17.1327C6.58779 16.7597 6.18997 16.233 5.975 15.625H18.3927C19.6138 15.6251 20.7962 15.1961 21.7331 14.413C22.6701 13.6298 23.3021 12.5424 23.5187 11.3406L23.7667 9.96667C23.1872 10.7523 22.4314 11.3908 21.56 11.8308C20.6887 12.2708 19.7262 12.5 18.75 12.5Z"/>
        <path
            d="M7.29158 25.0006C8.44217 25.0006 9.37491 24.0679 9.37491 22.9173C9.37491 21.7667 8.44217 20.834 7.29158 20.834C6.14099 20.834 5.20825 21.7667 5.20825 22.9173C5.20825 24.0679 6.14099 25.0006 7.29158 25.0006Z"/>
        <path
            d="M17.7083 25.0006C18.8589 25.0006 19.7917 24.0679 19.7917 22.9173C19.7917 21.7667 18.8589 20.834 17.7083 20.834C16.5577 20.834 15.625 21.7667 15.625 22.9173C15.625 24.0679 16.5577 25.0006 17.7083 25.0006Z"/>
        <path
            d="M16.3886 9.31854C16.5678 9.51203 16.7843 9.66718 17.0251 9.77461C17.2659 9.88203 17.526 9.9395 17.7897 9.94354H17.824C18.0824 9.94439 18.3384 9.89391 18.5771 9.79503C18.8159 9.69614 19.0326 9.55082 19.2147 9.3675L23.6647 4.9175C23.8609 4.72163 23.9714 4.4558 23.9717 4.1785C23.972 3.9012 23.8621 3.63514 23.6662 3.43886C23.4703 3.24257 23.2045 3.13213 22.9272 3.13184C22.6499 3.13154 22.3839 3.24142 22.1876 3.43729L17.8261 7.80604L16.5407 6.42688C16.352 6.22479 16.0908 6.10593 15.8145 6.09646C15.5381 6.08698 15.2694 6.18766 15.0673 6.37635C14.8652 6.56505 14.7463 6.82629 14.7369 7.10261C14.7274 7.37893 14.8281 7.6477 15.0168 7.84979L16.3886 9.31854Z"/>
    </symbol>
    <symbol id="close" viewBox="0 0 17 17">
       <path d="M13.2812 3.71875L3.71875 13.2812" stroke="white" stroke-width="1.5" stroke-linecap="round" stroke-linejoin="round"/>
<path d="M13.2812 13.2812L3.71875 3.71875" stroke="white" stroke-width="1.5" stroke-linecap="round" stroke-linejoin="round"/> 
    </symbol>
    <symbol id="cloud" viewBox="0 0 27 27">
        <path d="M16.875 4.21875C15.1513 4.22017 13.4619 4.70103 11.9958 5.60756C10.5298 6.5141 9.34473 7.81056 8.57326 9.35201L8.57269 9.35196C7.92663 10.6392 7.59095 12.0598 7.59252 13.5C7.59252 13.7238 7.50362 13.9384 7.34539 14.0966C7.18716 14.2549 6.97255 14.3438 6.74877 14.3438C6.52499 14.3438 6.31038 14.2549 6.15215 14.0966C5.99392 13.9384 5.90502 13.7238 5.90502 13.5C5.9037 12.0727 6.18248 10.659 6.72557 9.33898C5.02496 9.55935 3.472 10.4188 2.38214 11.7427C1.29229 13.0667 0.747268 14.7559 0.857793 16.4671C0.968318 18.1784 1.7261 19.7834 2.97721 20.9562C4.22832 22.1289 5.87893 22.7815 7.59376 22.7812H16.875C19.3365 22.7812 21.6973 21.8034 23.4378 20.0628C25.1784 18.3223 26.1563 15.9615 26.1563 13.5C26.1563 11.0385 25.1784 8.67774 23.4378 6.93717C21.6973 5.19659 19.3365 4.21875 16.875 4.21875ZM20.8465 12.831L15.784 17.8935C15.7057 17.9718 15.6127 18.034 15.5103 18.0764C15.4079 18.1188 15.2982 18.1406 15.1874 18.1406C15.0766 18.1406 14.9669 18.1188 14.8645 18.0764C14.7622 18.034 14.6691 17.9718 14.5908 17.8935L12.0595 15.3622C11.9015 15.204 11.8127 14.9894 11.8128 14.7657C11.8129 14.5421 11.9018 14.3276 12.0599 14.1694C12.2181 14.0112 12.4326 13.9223 12.6563 13.9223C12.8799 13.9222 13.0945 14.0109 13.2528 14.169L15.1874 16.1037L19.6533 11.6378C19.8116 11.4797 20.0261 11.3909 20.2498 11.391C20.4735 11.3911 20.688 11.48 20.8461 11.6381C21.0043 11.7963 21.0932 12.0108 21.0933 12.2345C21.0933 12.4582 21.0046 12.6727 20.8465 12.831H20.8465Z"/>
    </symbol>
    <symbol id="code" viewBox="0 0 27 27">
        <path
            d="M7.79618 8.29983C7.64763 8.13005 7.43436 8.02344 7.20327 8.00343C6.97219 7.98341 6.74223 8.05165 6.56397 8.19313L1.31478 12.3595C1.21626 12.4377 1.13699 12.5355 1.08259 12.6461C1.0282 12.7568 1 12.8774 1 12.9996C1 13.1217 1.0282 13.2424 1.08259 13.353C1.13699 13.4636 1.21626 13.5615 1.31478 13.6397L6.56397 17.806C6.6522 17.8763 6.75411 17.9293 6.86387 17.962C6.97362 17.9947 7.08908 18.0065 7.20362 17.9966C7.31816 17.9868 7.42955 17.9556 7.5314 17.9047C7.63326 17.8538 7.72358 17.7844 7.79721 17.7002C7.87084 17.6161 7.92632 17.5189 7.96049 17.4143C7.99466 17.3097 8.00685 17.1997 7.99635 17.0907C7.98584 16.9816 7.95286 16.8755 7.89929 16.7786C7.84572 16.6817 7.77261 16.5958 7.68415 16.5258L3.24147 12.9996L7.68415 9.47334C7.86238 9.33187 7.97432 9.12876 7.99533 8.90868C8.01634 8.68861 7.9447 8.4696 7.79618 8.29983Z"/>
        <path
            d="M25.6852 12.36L20.436 8.194C20.3478 8.12374 20.2459 8.07074 20.1361 8.03803C20.0264 8.00531 19.9109 7.99353 19.7964 8.00336C19.6818 8.01318 19.5705 8.04442 19.4686 8.09528C19.3667 8.14614 19.2764 8.21563 19.2028 8.29977C19.1292 8.38391 19.0737 8.48105 19.0395 8.58563C19.0053 8.69021 18.9932 8.80019 19.0037 8.90926C19.0142 9.01833 19.0471 9.12436 19.1007 9.22128C19.1543 9.3182 19.2274 9.40411 19.3159 9.47409L23.7585 13L19.3159 16.5259C19.2274 16.5959 19.1543 16.6818 19.1007 16.7787C19.0471 16.8756 19.0142 16.9817 19.0037 17.0907C18.9932 17.1998 19.0053 17.3098 19.0395 17.4144C19.0737 17.519 19.1292 17.6161 19.2028 17.7002C19.2764 17.7844 19.3667 17.8539 19.4686 17.9047C19.5705 17.9556 19.6818 17.9868 19.7964 17.9966C19.9109 18.0065 20.0264 17.9947 20.1361 17.962C20.2459 17.9293 20.3478 17.8763 20.436 17.806L25.6852 13.64C25.7837 13.5619 25.863 13.464 25.9174 13.3534C25.9718 13.2428 26 13.1221 26 13C26 12.8779 25.9718 12.7572 25.9174 12.6466C25.863 12.536 25.7837 12.4381 25.6852 12.36Z"/>
        <path
            d="M16.4734 3.05003C16.274 2.97464 16.054 2.98478 15.8618 3.07822C15.6696 3.17166 15.5208 3.34076 15.4482 3.54837L9.04839 21.8812C9.01239 21.9841 8.9962 22.0933 9.00075 22.2027C9.0053 22.3121 9.0305 22.4195 9.07491 22.5187C9.11932 22.618 9.18206 22.7071 9.25956 22.7811C9.33706 22.8551 9.4278 22.9124 9.52658 22.9498C9.62536 22.9872 9.73025 23.004 9.83526 22.9992C9.94027 22.9944 10.0433 22.968 10.1386 22.9217C10.2338 22.8754 10.3193 22.8099 10.3903 22.7291C10.4612 22.6483 10.5162 22.5538 10.5521 22.4509L16.9518 4.11802C17.0243 3.9103 17.0147 3.68109 16.9249 3.48081C16.8352 3.28053 16.6728 3.12557 16.4734 3.05003Z"/>
    </symbol>
    <symbol id="ellipse" viewBox="0 0 655 320">
        <g filter="url(#filter0_f_189_705)">
            <circle cx="268.5" cy="-28.5" r="86.5" fill="#365FEF"/>
        </g>
        <defs>
            <filter id="filter0_f_189_705" x="-118" y="-415" width="773" height="773" filterUnits="userSpaceOnUse" color-interpolation-filters="sRGB">
            <feFlood flood-opacity="0" result="BackgroundImageFix"/>
            <feBlend mode="normal" in="SourceGraphic" in2="BackgroundImageFix" result="shape"/>
            <feGaussianBlur stdDeviation="150" result="effect1_foregroundBlur_189_705"/>
            </filter>
        </defs> 
    </symbol>
    <symbol id="email" viewBox="0 0 16 13">  
        <path fill-rule="evenodd" clip-rule="evenodd" d="M0.833496 4.66829C0.833496 2.5512 2.54974 0.834961 4.66683 0.834961H11.3335C13.4506 0.834961 15.1668 2.5512 15.1668 4.66829V8.66829C15.1668 10.7854 13.4506 12.5016 11.3335 12.5016H4.66683C2.54974 12.5016 0.833496 10.7854 0.833496 8.66829V4.66829ZM4.3 4.2683C4.07909 4.10262 3.76569 4.14739 3.6 4.3683C3.43431 4.58922 3.47909 4.90262 3.7 5.0683L6.9 7.4683C7.55185 7.95719 8.44815 7.95719 9.1 7.4683L12.3 5.0683C12.5209 4.90262 12.5657 4.58922 12.4 4.3683C12.2343 4.14739 11.9209 4.10262 11.7 4.2683L8.5 6.6683C8.2037 6.89053 7.7963 6.89053 7.5 6.6683L4.3 4.2683Z"/>
    </symbol>
    <symbol id="histogram" viewBox="0 0 27 27">  
        <path d="M3.125 22.8917C2.84873 22.8917 2.58378 22.7819 2.38843 22.5866C2.19308 22.3912 2.08333 22.1263 2.08333 21.85V0H0V21.85C0 22.6788 0.32924 23.4737 0.915291 24.0597C1.50134 24.6458 2.2962 24.975 3.125 24.975H25V22.8917H3.125Z"/>
        <path d="M7.29183 12.5H5.2085V19.7917H7.29183V12.5Z"/>
        <path d="M12.4998 10.4167H10.4165V19.7917H12.4998V10.4167Z"/>
        <path d="M17.7083 13.5417H15.625V19.7917H17.7083V13.5417Z"/>
        <path d="M22.9168 9.375H20.8335V19.7917H22.9168V9.375Z"/>
        <path d="M11.4585 4.59788L16.6668 9.80622L24.6949 1.77809L23.222 0.305176L16.6668 6.86038L11.4585 1.65205L5.51367 7.59684L6.98659 9.06976L11.4585 4.59788Z"/>
    </symbol>
    <symbol id="logo" viewBox="0 0 30 29">
                   <path
            d="M14.58 22.1643C10.44 22.1643 7.05 18.85 7.05 14.7367C7.05 10.6235 10.41 7.30919 14.58 7.30919C18.75 7.30919 22.11 10.6531 22.11 14.7367C22.11 18.8204 18.72 22.1643 14.58 22.1643ZM14.58 11.6C12.81 11.6 11.4 13.0204 11.4 14.7367C11.4 16.4531 12.84 17.8735 14.58 17.8735C16.32 17.8735 17.76 16.4531 17.76 14.7367C17.76 13.0204 16.35 11.6 14.58 11.6Z"/>
            <path
            d="M7.53 8.58163C8.80578 8.58163 9.84 7.56148 9.84 6.30306C9.84 5.04464 8.80578 4.02449 7.53 4.02449C6.25422 4.02449 5.22 5.04464 5.22 6.30306C5.22 7.56148 6.25422 8.58163 7.53 8.58163Z"/>
            <path
            d="M20.58 8.52245C18.96 7.01326 16.83 6.1551 14.58 6.1551V1.89388C17.94 1.89388 21.12 3.13673 23.55 5.4153L20.58 8.52245Z"/>
            <path
            d="M14.58 27.5796C10.98 27.5796 7.62 26.1592 5.13 23.5847L8.25 20.6551C9.9 22.3714 12.15 23.3184 14.55 23.3184C17.01 23.3184 19.26 22.3418 20.94 20.5663L24.12 23.4663C21.69 26.0704 18.21 27.5796 14.58 27.5796Z"/>
        
    </symbol>
    <symbol id="magic" viewBox="0 0 27 27">
        <path d="M13.4202 15.8497L5.15462 24.1153C4.87676 24.4071 4.54334 24.6403 4.17399 24.8013C3.80464 24.9622 3.40682 25.0477 3.00395 25.0526C2.60108 25.0575 2.2013 24.9818 1.82814 24.8299C1.45497 24.678 1.11596 24.453 0.831071 24.1681C0.546177 23.8832 0.321152 23.5442 0.169241 23.171C0.0173294 22.7978 -0.0583987 22.398 -0.0534864 21.9952C-0.0485741 21.5923 0.0368795 21.1945 0.197844 20.8251C0.35881 20.4558 0.592033 20.1224 0.883789 19.8445L9.14942 11.5789L13.4202 15.8497ZM17.813 7.18721C17.2379 6.63759 16.473 6.33086 15.6775 6.33086C14.8821 6.33086 14.1172 6.63759 13.5421 7.18721L10.6255 10.1039L14.8963 14.3747L17.813 11.458C18.3791 10.8916 18.6971 10.1235 18.6971 9.32263C18.6971 8.52177 18.3791 7.75368 17.813 7.18721ZM5.06608 5.35909L6.68066 5.81951L7.14108 7.43409C7.21525 7.69317 7.37177 7.92105 7.58696 8.08328C7.80214 8.2455 8.0643 8.33325 8.33379 8.33325C8.60328 8.33325 8.86544 8.2455 9.08062 8.08328C9.29581 7.92105 9.45233 7.69317 9.5265 7.43409L9.98691 5.81951L11.6015 5.35909C11.8606 5.28492 12.0885 5.1284 12.2507 4.91322C12.4129 4.69803 12.5007 4.43587 12.5007 4.16638C12.5007 3.89689 12.4129 3.63474 12.2507 3.41955C12.0885 3.20436 11.8606 3.04785 11.6015 2.97367L9.98691 2.51326L9.5265 0.898673C9.45233 0.639595 9.29581 0.411712 9.08062 0.249486C8.86544 0.0872595 8.60328 -0.000488281 8.33379 -0.000488281C8.0643 -0.000488281 7.80214 0.0872595 7.58696 0.249486C7.37177 0.411712 7.21525 0.639595 7.14108 0.898673L6.68066 2.51326L5.06608 2.97367C4.807 3.04785 4.57912 3.20436 4.41689 3.41955C4.25467 3.63474 4.16692 3.89689 4.16692 4.16638C4.16692 4.43587 4.25467 4.69803 4.41689 4.91322C4.57912 5.1284 4.807 5.28492 5.06608 5.35909ZM17.5661 17.8591L19.1807 18.3195L19.6411 19.9341C19.7153 20.1932 19.8718 20.421 20.087 20.5833C20.3021 20.7455 20.5643 20.8333 20.8338 20.8333C21.1033 20.8333 21.3654 20.7455 21.5806 20.5833C21.7958 20.421 21.9523 20.1932 22.0265 19.9341L22.4869 18.3195L24.1015 17.8591C24.3606 17.7849 24.5885 17.6284 24.7507 17.4132C24.9129 17.198 25.0007 16.9359 25.0007 16.6664C25.0007 16.3969 24.9129 16.1347 24.7507 15.9195C24.5885 15.7044 24.3606 15.5478 24.1015 15.4737L22.4869 15.0133L22.0265 13.3987C21.9523 13.1396 21.7958 12.9117 21.5806 12.7495C21.3654 12.5873 21.1033 12.4995 20.8338 12.4995C20.5643 12.4995 20.3021 12.5873 20.087 12.7495C19.8718 12.9117 19.7153 13.1396 19.6411 13.3987L19.1807 15.0133L17.5661 15.4737C17.307 15.5478 17.0791 15.7044 16.9169 15.9195C16.7547 16.1347 16.6669 16.3969 16.6669 16.6664C16.6669 16.9359 16.7547 17.198 16.9169 17.4132C17.0791 17.6284 17.307 17.7849 17.5661 17.8591ZM18.4963 4.68721L19.9077 5.09034L20.313 6.50388C20.3789 6.72907 20.5161 6.92683 20.7038 7.06751C20.8916 7.2082 21.12 7.28424 21.3546 7.28424C21.5893 7.28424 21.8176 7.2082 22.0054 7.06751C22.1932 6.92683 22.3303 6.72907 22.3963 6.50388L22.7994 5.09242L24.213 4.68721C24.4381 4.62127 24.6359 4.48412 24.7766 4.29632C24.9173 4.10853 24.9933 3.8802 24.9933 3.64555C24.9933 3.4109 24.9173 3.18257 24.7766 2.99477C24.6359 2.80698 24.4381 2.66983 24.213 2.60388L22.8015 2.20076L22.3963 0.787215C22.3303 0.562024 22.1932 0.364269 22.0054 0.223583C21.8176 0.0828962 21.5893 0.00685557 21.3546 0.00685557C21.12 0.00685557 20.8916 0.0828962 20.7038 0.223583C20.5161 0.364269 20.3789 0.562024 20.313 0.787215L19.9098 2.19867L18.4963 2.60388C18.2711 2.66983 18.0733 2.80698 17.9327 2.99477C17.792 3.18257 17.7159 3.4109 17.7159 3.64555C17.7159 3.8802 17.792 4.10853 17.9327 4.29632C18.0733 4.48412 18.2711 4.62127 18.4963 4.68721Z"/>
    </symbol>
    <symbol id="mail" viewBox="0 0 19 19">  
        <path d="M9.50021 12.4688C11.1398 12.4688 12.469 11.1396 12.469 9.5C12.469 7.8604 11.1398 6.53125 9.50021 6.53125C7.86062 6.53125 6.53146 7.8604 6.53146 9.5C6.53146 11.1396 7.86062 12.4688 9.50021 12.4688Z" stroke-width="1.1875" stroke-linecap="round" stroke-linejoin="round"/>
        <path d="M13.4399 15.4377C12.1171 16.3155 10.539 16.7265 8.95608 16.6054C7.37312 16.4843 5.87595 15.8381 4.70211 14.7692C3.52827 13.7003 2.745 12.27 2.47659 10.7053C2.20818 9.1406 2.47 7.53105 3.22051 6.13207C3.97101 4.73309 5.16722 3.62481 6.61932 2.98308C8.07142 2.34136 9.69623 2.20294 11.236 2.58979C12.7757 2.97665 14.1421 3.86662 15.1184 5.11849C16.0948 6.37036 16.6251 7.91243 16.6252 9.5C16.6252 11.1396 16.0315 12.4688 14.5471 12.4688C13.0627 12.4688 12.469 11.1396 12.469 9.5V6.53125" stroke-width="1.1875" stroke-linecap="round" stroke-linejoin="round"/>
    </symbol>
    <symbol id="message" viewBox="0 0 19 19">  
        <path d="M2.86955 16.1794L3.24047 16.643L3.24047 16.643L2.86955 16.1794ZM5.10797 14.3886L5.47888 14.8523L5.10797 14.3886ZM2.17709 5.33334C2.17709 3.47513 3.68346 1.96875 5.54167 1.96875V0.78125C3.02762 0.78125 0.989586 2.81929 0.989586 5.33334H2.17709ZM2.17709 9.6875V5.33334H0.989586V9.6875H2.17709ZM2.17709 10.0833V9.6875H0.989586V10.0833H2.17709ZM2.17709 15.5612V10.0833H0.989586V15.5612H2.17709ZM2.49864 15.7157C2.36905 15.8194 2.17709 15.7271 2.17709 15.5612H0.989586C0.989586 16.7229 2.33335 17.3687 3.24047 16.643L2.49864 15.7157ZM4.73706 13.925L2.49864 15.7157L3.24047 16.643L5.47888 14.8523L4.73706 13.925ZM13.4583 13.4479H6.09707V14.6354H13.4583V13.4479ZM16.8229 10.0833C16.8229 11.9415 15.3165 13.4479 13.4583 13.4479V14.6354C15.9724 14.6354 18.0104 12.5974 18.0104 10.0833H16.8229ZM16.8229 5.33333V10.0833H18.0104V5.33333H16.8229ZM13.4583 1.96875C15.3165 1.96875 16.8229 3.47512 16.8229 5.33333H18.0104C18.0104 2.81929 15.9724 0.78125 13.4583 0.78125V1.96875ZM5.54167 1.96875H13.4583V0.78125H5.54167V1.96875ZM5.47888 14.8523C5.65435 14.7119 5.87236 14.6354 6.09707 14.6354V13.4479C5.60272 13.4479 5.12308 13.6162 4.73706 13.925L5.47888 14.8523Z" fill="white" fill-opacity="0.8"/>
        <circle cx="5.58125" cy="7.7474" r="0.989583" fill="white" fill-opacity="0.8"/>
        <circle cx="9.53958" cy="7.7474" r="0.989583" fill="white" fill-opacity="0.8"/>
        <circle cx="13.4979" cy="7.7474" r="0.989583" fill="white" fill-opacity="0.8"/>
    </symbol>
    <symbol id="pages" viewBox="0 0 27 27">
        <path
        d="M17.5627 5.20833H12.5002V0.0166667L17.5627 5.20833ZM10.4168 7.29167V0H5.2085C4.37969 0 3.58484 0.32924 2.99879 0.915291C2.41274 1.50134 2.0835 2.2962 2.0835 3.125V19.7917H17.7085V7.29167H10.4168ZM19.7918 7.30208V21.9146H7.29183V25H22.9168V10.4167L19.7918 7.30208Z"/>
    </symbol>
    <symbol id="paintBrush" viewBox="0 0 27 27">
        <path d="M23.1673 2C20.9498 2 18.4592 3.22708 15.7648 5.64704C13.8864 7.33419 12.2733 9.26695 11.1559 10.7358C10.2221 10.4486 9.23422 10.3853 8.27165 10.551C7.30907 10.7167 6.39861 11.1066 5.6134 11.6896C4.82819 12.2726 4.19012 13.0323 3.75043 13.9078C3.31075 14.7832 3.08171 15.75 3.08172 16.7304C3.08172 19.9917 1.39144 21.4453 1.30799 21.515C1.17439 21.6238 1.07766 21.7715 1.03109 21.9378C0.984515 22.104 0.990391 22.2807 1.04791 22.4435C1.10542 22.6063 1.21175 22.7472 1.35228 22.8468C1.49281 22.9465 1.66064 23 1.83268 23H9.32689C10.3035 23 11.2665 22.7701 12.1386 22.3287C13.0106 21.8872 13.7674 21.2467 14.3481 20.4584C14.9288 19.6701 15.3173 18.7561 15.4823 17.7898C15.6473 16.8234 15.5843 15.8317 15.2982 14.8943C16.7613 13.7725 18.6866 12.1532 20.3672 10.2673C22.7778 7.56241 24 5.06213 24 2.83594C24 2.61424 23.9123 2.40162 23.7561 2.24485C23.5999 2.08809 23.3882 2.00001 23.1673 2ZM12.7036 11.4605C13.0016 11.0778 13.3584 10.6337 13.7628 10.1552C14.5949 10.7217 15.3123 11.4418 15.8765 12.2772C15.3999 12.6832 14.9575 13.0413 14.5762 13.3405C14.0919 12.5876 13.4536 11.9467 12.7036 11.4605ZM17.1324 11.1609C16.5112 10.2842 15.7481 9.51807 14.8747 8.89444C16.9158 6.68085 19.661 4.25772 22.2439 3.76301C21.7511 6.35599 19.3374 9.11184 17.1324 11.1609Z"/>
    </symbol>
    <symbol id="paperClip" viewBox="0 0 19 19">  
        <path d="M13.4586 8.42011L8.14053 13.7381C6.74929 15.1294 4.49364 15.1294 3.1024 13.7381V13.7381C1.71115 12.3469 1.71115 10.0912 3.1024 8.7L9.54001 2.26239C10.4675 1.33489 11.9713 1.33489 12.8988 2.26239V2.26239C13.8263 3.18988 13.8263 4.69365 12.8988 5.62114L6.38118 12.1387C5.91743 12.6025 5.16555 12.6025 4.7018 12.1387V12.1387C4.23806 11.675 4.23806 10.9231 4.7018 10.4594L10.0998 5.06135" stroke-width="1.1875" stroke-linecap="round"/>
    </symbol>
    <symbol id="pencil" viewBox="0 0 27 27">
        <path d="M22.7812 21.9375H12.162L20.8461 13.2533L20.8467 13.2528L20.8471 13.2523L23.6249 10.4746C23.7816 10.3179 23.906 10.1318 23.9908 9.92711C24.0756 9.72237 24.1193 9.50293 24.1193 9.28131C24.1193 9.05969 24.0756 8.84025 23.9908 8.6355C23.906 8.43075 23.7817 8.24472 23.625 8.08802L18.912 3.37488C18.5952 3.05897 18.1661 2.88157 17.7187 2.88159C17.2713 2.88161 16.8422 3.05905 16.5254 3.37499L3.86918 16.0313C3.70531 16.1951 3.57706 16.3911 3.49244 16.6068C3.48377 16.6278 3.47645 16.6493 3.46955 16.6708C3.40731 16.8488 3.37535 17.0359 3.375 17.2245V21.9375C3.37551 22.3849 3.55347 22.8138 3.86982 23.1302C4.18618 23.4465 4.6151 23.6245 5.0625 23.625H22.7812C23.005 23.625 23.2196 23.5361 23.3779 23.3779C23.5361 23.2196 23.625 23.005 23.625 22.7812C23.625 22.5575 23.5361 22.3428 23.3779 22.1846C23.2196 22.0264 23.005 21.9375 22.7812 21.9375ZM17.7188 4.56821L22.4317 9.28124L20.25 11.4629L15.537 6.74999L17.7188 4.56821Z"/>
    </symbol> 
    <symbol id="phone" viewBox="0 0 16 16">
       
            <path
            d="M13.8732 9.90167L10.9459 8.64709C10.793 8.5813 10.6261 8.5548 10.4604 8.57003C10.2947 8.58525 10.1355 8.64171 9.99719 8.73425L8.432 9.77759C7.47541 9.31233 6.70117 8.5415 6.23169 7.58698L6.23181 7.58685L7.27148 5.99823C7.36198 5.86031 7.41689 5.70212 7.43129 5.53779C7.44569 5.37346 7.41913 5.20813 7.354 5.05658L6.09827 2.12671C6.01279 1.92783 5.86519 1.76199 5.67757 1.65402C5.48994 1.54605 5.2724 1.50175 5.0575 1.52777C4.21304 1.63635 3.43699 2.04864 2.87432 2.68763C2.31166 3.32662 2.00086 4.14859 2 5C2 9.96265 6.03735 14 11 14C11.8514 13.9991 12.6734 13.6883 13.3124 13.1257C13.9514 12.563 14.3637 11.7869 14.4722 10.9424C14.4982 10.7275 14.4538 10.51 14.3459 10.3224C14.2379 10.1348 14.0721 9.98719 13.8732 9.90167Z"/>
            <path
            d="M9.83448 2.98304C10.5973 3.18814 11.2928 3.59011 11.8514 4.14865C12.4099 4.7072 12.8119 5.40272 13.017 6.16553C13.0514 6.29339 13.1352 6.40236 13.2499 6.46852C13.3646 6.53468 13.5009 6.55264 13.6288 6.51845C13.7567 6.48426 13.8659 6.40072 13.9323 6.28615C13.9987 6.17159 14.017 6.03536 13.983 5.90735C13.7323 4.97487 13.2409 4.12465 12.5581 3.44187C11.8754 2.75908 11.0251 2.26771 10.0927 2.01697C9.96465 1.98305 9.82842 2.0013 9.71385 2.06771C9.59929 2.13411 9.51574 2.24325 9.48155 2.37119C9.44736 2.49912 9.46532 2.63539 9.53149 2.75009C9.59765 2.8648 9.70662 2.94857 9.83447 2.98303L9.83448 2.98304Z"/>
            <path
            d="M9.31665 4.91535C9.74041 5.0293 10.1268 5.2526 10.4371 5.56288C10.7473 5.87317 10.9706 6.25954 11.0846 6.68329C11.1191 6.81115 11.2028 6.92012 11.3175 6.98628C11.4322 7.05244 11.5685 7.0704 11.6964 7.03621C11.8244 7.00202 11.9335 6.91848 11.9999 6.80391C12.0663 6.68935 12.0846 6.55312 12.0507 6.42511C11.8911 5.83168 11.5784 5.2906 11.1439 4.85607C10.7093 4.42155 10.1683 4.10884 9.57483 3.94928C9.44683 3.91536 9.3106 3.93361 9.19603 4.00002C9.08146 4.06642 8.99792 4.17557 8.96373 4.3035C8.92954 4.43143 8.9475 4.5677 9.01366 4.6824C9.07983 4.79711 9.18879 4.88089 9.31665 4.91535L9.31665 4.91535Z"/>
       
    </symbol>
    <symbol id="phone-stroke" viewBox="0 0 19 19">  
        <path d="M6.99979 9.04982C7.6323 10.3429 8.68049 11.3864 9.97647 12.013C10.0713 12.0579 10.1762 12.0774 10.2808 12.0695C10.3854 12.0615 10.4862 12.0265 10.5732 11.9678L12.4814 10.6954C12.5658 10.6391 12.6629 10.6048 12.7639 10.5955C12.8649 10.5862 12.9667 10.6023 13.0599 10.6422L16.6299 12.1722C16.7511 12.2237 16.8524 12.3133 16.9184 12.4273C16.9843 12.5414 17.0114 12.6738 16.9956 12.8046C16.8828 13.6875 16.452 14.4991 15.7839 15.0873C15.1158 15.6755 14.2562 16 13.366 16C10.6168 16 7.98015 14.9079 6.03614 12.9639C4.09213 11.0198 3 8.38321 3 5.63396C3.00005 4.74384 3.32454 3.88425 3.91273 3.21614C4.50092 2.54804 5.31246 2.11724 6.19541 2.0044C6.32621 1.98857 6.45862 2.01568 6.57268 2.08165C6.68674 2.14761 6.77627 2.24886 6.82779 2.37013L8.3591 5.9432C8.39871 6.03562 8.41485 6.1364 8.40608 6.23657C8.39732 6.33674 8.36391 6.43318 8.30885 6.51731L7.04081 8.45483C6.9831 8.54199 6.94898 8.64263 6.94179 8.74691C6.9346 8.8512 6.95458 8.95557 6.99979 9.04982V9.04982Z" stroke-width="1.1875" stroke-linecap="round" stroke-linejoin="round"/> 
    </symbol>
    <symbol id="placemark" viewBox="0 0 16 16">
       
            <path
                d="M7.99951 0.999817C6.54135 1.00155 5.14341 1.58157 4.11234 2.61264C3.08126 3.64372 2.50124 5.04166 2.49951 6.49982C2.49951 11.2059 7.49951 14.7606 7.7124 14.9095C7.7966 14.9683 7.89682 14.9998 7.99951 14.9998C8.10221 14.9998 8.20243 14.9683 8.28662 14.9095C8.49951 14.7606 13.4995 11.2059 13.4995 6.49982C13.4978 5.04166 12.9178 3.64372 11.8867 2.61264C10.8556 1.58157 9.45767 1.00155 7.99951 0.999817ZM7.99988 4.5C8.39544 4.5 8.78212 4.6173 9.11102 4.83706C9.43992 5.05682 9.69626 5.36918 9.84764 5.73463C9.99901 6.10008 10.0386 6.50222 9.96145 6.89018C9.88428 7.27814 9.6938 7.63451 9.41409 7.91421C9.13439 8.19392 8.77802 8.3844 8.39006 8.46157C8.0021 8.53874 7.59996 8.49913 7.23451 8.34776C6.86906 8.19638 6.5567 7.94004 6.33694 7.61114C6.11718 7.28224 5.99988 6.89556 5.99988 6.5C5.99987 6.23735 6.0516 5.97728 6.1521 5.73462C6.25261 5.49197 6.39993 5.27149 6.58565 5.08577C6.77137 4.90005 6.99185 4.75273 7.2345 4.65222C7.47716 4.55172 7.73723 4.49999 7.99988 4.5Z"/>
        
    </symbol>
    <symbol id="plus" viewBox="0 0 26 26">
        <path d="M18.4167 11.9167H14.0833V7.58333C14.0833 7.29602 13.9692 7.02047 13.766 6.8173C13.5629 6.61414 13.2873 6.5 13 6.5C12.7127 6.5 12.4371 6.61414 12.234 6.8173C12.0308 7.02047 11.9167 7.29602 11.9167 7.58333V11.9167H7.58333C7.29602 11.9167 7.02047 12.0308 6.8173 12.234C6.61414 12.4371 6.5 12.7127 6.5 13C6.5 13.2873 6.61414 13.5629 6.8173 13.766C7.02047 13.9692 7.29602 14.0833 7.58333 14.0833H11.9167V18.4167C11.9167 18.704 12.0308 18.9795 12.234 19.1827C12.4371 19.3859 12.7127 19.5 13 19.5C13.2873 19.5 13.5629 19.3859 13.766 19.1827C13.9692 18.9795 14.0833 18.704 14.0833 18.4167V14.0833H18.4167C18.704 14.0833 18.9795 13.9692 19.1827 13.766C19.3859 13.5629 19.5 13.2873 19.5 13C19.5 12.7127 19.3859 12.4371 19.1827 12.234C18.9795 12.0308 18.704 11.9167 18.4167 11.9167Z"/>    
    </symbol>
    <symbol id="rocket" viewBox="0 0 27 27">    
        <path d="M24.325 0.675825C24.0174 0.365367 23.6271 0.149847 23.2005 0.0549233C22.7739 -0.0400002 22.329 -0.0103278 21.9188 0.140408L21.6938 0.220616C16.6683 1.8459 12.0929 4.62447 8.33333 8.33416C6.44572 10.4496 4.80335 12.7716 3.4375 15.256L5.81875 17.7092L3.125 20.4029L4.59792 21.8758L7.29167 19.1821L9.70833 21.5987C12.1922 20.2325 14.5139 18.5902 16.6292 16.7029C20.3512 12.9301 23.1428 8.3417 24.7823 3.30187L24.8604 3.08207C25.0112 2.67186 25.0408 2.22696 24.9459 1.80036C24.851 1.37376 24.6355 0.983422 24.325 0.675825ZM11.4583 14.5842C11.2523 14.5842 11.0509 14.5231 10.8796 14.4086C10.7083 14.2941 10.5748 14.1315 10.496 13.9411C10.4171 13.7508 10.3965 13.5413 10.4367 13.3393C10.4769 13.1372 10.5761 12.9516 10.7218 12.8059C10.8674 12.6602 11.0531 12.561 11.2551 12.5208C11.4572 12.4806 11.6666 12.5013 11.857 12.5801C12.0473 12.659 12.21 12.7925 12.3244 12.9638C12.4389 13.1351 12.5 13.3365 12.5 13.5425C12.5 13.8188 12.3903 14.0837 12.1949 14.2791C11.9996 14.4744 11.7346 14.5842 11.4583 14.5842ZM14.5833 11.4592C14.3773 11.4592 14.1759 11.3981 14.0046 11.2836C13.8333 11.1691 13.6998 11.0065 13.621 10.8161C13.5421 10.6258 13.5215 10.4163 13.5617 10.2143C13.6019 10.0122 13.7011 9.8266 13.8468 9.68092C13.9924 9.53524 14.1781 9.43603 14.3801 9.39584C14.5822 9.35565 14.7916 9.37628 14.982 9.45512C15.1723 9.53396 15.335 9.66747 15.4494 9.83877C15.5639 10.0101 15.625 10.2115 15.625 10.4175C15.625 10.6938 15.5153 10.9587 15.3199 11.1541C15.1246 11.3494 14.8596 11.4592 14.5833 11.4592ZM17.7083 8.33416C17.5023 8.33416 17.3009 8.27307 17.1296 8.15861C16.9583 8.04415 16.8248 7.88146 16.746 7.69112C16.6671 7.50078 16.6465 7.29134 16.6867 7.08927C16.7269 6.88721 16.8261 6.7016 16.9718 6.55592C17.1174 6.41024 17.3031 6.31103 17.5051 6.27084C17.7072 6.23065 17.9166 6.25128 18.107 6.33012C18.2973 6.40896 18.46 6.54247 18.5744 6.71377C18.6889 6.88507 18.75 7.08647 18.75 7.29249C18.75 7.56876 18.6403 7.83371 18.4449 8.02906C18.2496 8.22441 17.9846 8.33416 17.7083 8.33416ZM19.7365 16.4196C19.6058 18.102 19.1185 19.7373 18.3071 21.2168C17.4956 22.6964 16.3786 23.9863 15.0302 25.0008H11.4583V22.9987C13.8481 21.6473 16.0772 20.0297 18.1031 18.1769C18.6771 17.605 19.2156 17.0154 19.7365 16.4196ZM6.82396 6.84249C4.97109 8.86839 3.3535 11.0975 2.00208 13.4873H0V9.91541C1.01456 8.56701 2.30447 7.44998 3.78402 6.63855C5.26357 5.82711 6.89887 5.33986 8.58125 5.20916C7.98542 5.72999 7.39583 6.26853 6.82396 6.84249Z"/>
    </symbol>
    <symbol id="resizer" viewBox="0 0 19 19">    
        <path d="M7.60107 12.293L11.1649 6.4738" stroke="white" stroke-opacity="0.8" stroke-width="0.639726" stroke-linecap="round" stroke-linejoin="round"/>
        <path d="M4.30524 12.7754L10.0964 3.31925" stroke="white" stroke-opacity="0.8" stroke-width="0.639726" stroke-linecap="round" stroke-linejoin="round"/>
        <path d="M10.897 11.8105L12.2334 9.62836" stroke="white" stroke-opacity="0.8" stroke-width="0.639726" stroke-linecap="round" stroke-linejoin="round"/>
    </symbol>
    <symbol id="share" viewBox="0 0 27 27">
        <path d="M18.5627 16.8751C17.9998 16.8749 17.4427 16.9877 16.9242 17.2068C16.4058 17.4259 15.9366 17.7468 15.5444 18.1505L10.6825 15.025C11.0644 14.0443 11.0644 12.956 10.6825 11.9752L15.5444 8.84971C16.2742 9.5963 17.2553 10.0453 18.2973 10.1098C19.3394 10.1742 20.3683 9.84942 21.1845 9.19842C22.0008 8.54742 22.5463 7.61656 22.7152 6.58626C22.8842 5.55597 22.6646 4.49963 22.0991 3.62201C21.5335 2.7444 20.6623 2.10801 19.6542 1.83621C18.6462 1.5644 17.5731 1.67655 16.643 2.1509C15.713 2.62526 14.9921 3.42804 14.6202 4.40362C14.2484 5.37921 14.252 6.45812 14.6303 7.43121L9.76839 10.5567C9.18293 9.95557 8.43149 9.54267 7.61014 9.3708C6.78878 9.19894 5.93483 9.27592 5.15746 9.59191C4.38009 9.90791 3.71461 10.4485 3.2461 11.1447C2.77759 11.8409 2.52734 12.661 2.52734 13.5001C2.52734 14.3393 2.77759 15.1593 3.2461 15.8555C3.71461 16.5517 4.38009 17.0923 5.15746 17.4083C5.93483 17.7243 6.78878 17.8013 7.61014 17.6294C8.43149 17.4576 9.18293 17.0447 9.76839 16.4435L14.6303 19.569C14.3048 20.409 14.2568 21.3311 14.4932 22.2003C14.7296 23.0695 15.2381 23.8402 15.9442 24.3995C16.6503 24.9589 17.517 25.2775 18.4172 25.3087C19.3175 25.3399 20.2041 25.0821 20.9473 24.573C21.6904 24.0639 22.251 23.3303 22.5471 22.4795C22.8432 21.6287 22.8591 20.7055 22.5925 19.8451C22.326 18.9846 21.791 18.2321 21.0658 17.6976C20.3407 17.1632 19.4635 16.875 18.5627 16.8751Z"/>
    </symbol>
    <symbol id="slice" viewBox="0 0 27 27">
        <path
            d="M1.26892 11.7013L13.0814 18.4513C13.2089 18.5241 13.3532 18.5624 13.5 18.5624C13.6468 18.5624 13.7911 18.5241 13.9186 18.4513L25.7311 11.7013C25.8602 11.6275 25.9676 11.5209 26.0423 11.3922C26.1169 11.2636 26.1562 11.1175 26.1562 10.9687C26.1562 10.8199 26.1169 10.6738 26.0423 10.5452C25.9676 10.4165 25.8602 10.3099 25.7311 10.2361L13.9186 3.48608C13.7911 3.41329 13.6468 3.375 13.5 3.375C13.3532 3.375 13.2089 3.41329 13.0814 3.48608L1.26892 10.2361C1.13976 10.3099 1.03241 10.4165 0.957743 10.5452C0.883076 10.6738 0.84375 10.8199 0.84375 10.9687C0.84375 11.1175 0.883076 11.2636 0.957743 11.3922C1.03241 11.5209 1.13976 11.6275 1.26892 11.7013Z"/>
        <path
            d="M24.8939 14.4549L13.5 20.9657L2.10609 14.4549C2.00988 14.3999 1.90379 14.3644 1.79387 14.3505C1.68395 14.3365 1.57235 14.3443 1.46545 14.3735C1.35856 14.4027 1.25845 14.4526 1.17085 14.5204C1.08324 14.5883 1.00986 14.6727 0.954896 14.7689C0.899928 14.8651 0.864447 14.9712 0.85048 15.0812C0.836513 15.1911 0.844333 15.3027 0.873494 15.4096C0.902656 15.5165 0.952586 15.6166 1.02044 15.7042C1.08829 15.7918 1.17273 15.8652 1.26893 15.9201L13.0814 22.6701C13.2089 22.743 13.3532 22.7813 13.5 22.7813C13.6468 22.7813 13.7911 22.743 13.9186 22.6701L25.7311 15.9201C25.8273 15.8652 25.9117 15.7918 25.9796 15.7042C26.0474 15.6166 26.0974 15.5165 26.1265 15.4096C26.1557 15.3027 26.1635 15.1911 26.1495 15.0812C26.1356 14.9712 26.1001 14.8651 26.0451 14.7689C25.9902 14.6727 25.9168 14.5883 25.8292 14.5204C25.7416 14.4526 25.6415 14.4027 25.5346 14.3735C25.4277 14.3443 25.3161 14.3365 25.2062 14.3505C25.0962 14.3644 24.9901 14.3999 24.8939 14.4549Z"/>
    </symbol>
    <symbol id="slices" viewBox="0 0 27 27">
        <path
            d="M23.1998 17.8337L13.5 23.4919L3.80018 17.8337C3.60689 17.7209 3.37672 17.6896 3.16031 17.7465C2.9439 17.8035 2.75897 17.944 2.6462 18.1373C2.53344 18.3306 2.50208 18.5608 2.55903 18.7772C2.61597 18.9936 2.75655 19.1786 2.94984 19.2913L13.0748 25.1976C13.2039 25.2728 13.3506 25.3125 13.5 25.3125C13.6494 25.3125 13.7961 25.2728 13.9252 25.1976L24.0502 19.2913C24.1459 19.2355 24.2297 19.1613 24.2967 19.0731C24.3638 18.9849 24.4128 18.8844 24.441 18.7772C24.4692 18.6701 24.476 18.5584 24.461 18.4486C24.4461 18.3388 24.4097 18.233 24.3538 18.1373C24.298 18.0416 24.2238 17.9579 24.1356 17.8908C24.0474 17.8237 23.9469 17.7747 23.8397 17.7465C23.7326 17.7183 23.6209 17.7115 23.5111 17.7265C23.4013 17.7414 23.2955 17.7779 23.1998 17.8337Z"/>
        <path
            d="M23.1998 12.7712L13.5 18.4294L3.80018 12.7712C3.60689 12.6584 3.37672 12.6271 3.16031 12.684C2.9439 12.741 2.75897 12.8815 2.6462 13.0748C2.53344 13.2681 2.50208 13.4983 2.55903 13.7147C2.61597 13.9311 2.75655 14.1161 2.94984 14.2288L13.0748 20.1351C13.2039 20.2103 13.3506 20.25 13.5 20.25C13.6494 20.25 13.7961 20.2103 13.9252 20.1351L24.0502 14.2288C24.2435 14.1161 24.3841 13.9311 24.441 13.7147C24.4979 13.4983 24.4666 13.2681 24.3538 13.0748C24.2411 12.8815 24.0561 12.741 23.8397 12.684C23.6233 12.6271 23.3931 12.6584 23.1998 12.7712Z"/>
        <path
            d="M2.94983 9.16631L13.0748 15.0726C13.2039 15.1478 13.3506 15.1875 13.5 15.1875C13.6494 15.1875 13.7961 15.1478 13.9252 15.0726L24.0502 9.16631C24.1775 9.092 24.2832 8.9856 24.3567 8.85773C24.4301 8.72985 24.4688 8.58496 24.4688 8.4375C24.4688 8.29004 24.4301 8.14515 24.3567 8.01727C24.2832 7.8894 24.1775 7.783 24.0502 7.70869L13.9252 1.80244C13.7961 1.72717 13.6494 1.6875 13.5 1.6875C13.3506 1.6875 13.2039 1.72717 13.0748 1.80244L2.94983 7.70869C2.82246 7.783 2.71678 7.8894 2.64334 8.01727C2.5699 8.14515 2.53125 8.29004 2.53125 8.4375C2.53125 8.58496 2.5699 8.72985 2.64334 8.85773C2.71678 8.9856 2.82246 9.092 2.94983 9.16631Z"/>
    </symbol>
    <symbol id="star" viewBox="0 0 19 20">
        
          <path
            d="M8.37878 3.1197C8.60579 2.42104 9.59421 2.42104 9.82122 3.1197L10.9728 6.66397C11.0743 6.97643 11.3655 7.18797 11.694 7.18797H15.4207C16.1553 7.18797 16.4608 8.12801 15.8664 8.55981L12.8515 10.7503C12.5857 10.9434 12.4745 11.2857 12.576 11.5981L13.7276 15.1424C13.9546 15.8411 13.155 16.422 12.5607 15.9902L9.54574 13.7998C9.27995 13.6067 8.92005 13.6067 8.65426 13.7998L5.63933 15.9902C5.04501 16.422 4.24536 15.8411 4.47237 15.1424L5.62398 11.5981C5.7255 11.2857 5.61428 10.9434 5.34849 10.7503L2.33356 8.55981C1.73924 8.12801 2.04468 7.18797 2.7793 7.18797H6.50596C6.83449 7.18797 7.12566 6.97643 7.22718 6.66397L8.37878 3.1197Z"
            fill="var(--star_fill)"/>
        
    </symbol>
    <symbol id="telegram" viewBox="0 0 48 48">
       
            <path
            d="M5.83,23.616c12.568-5.529,28.832-12.27,31.077-13.203c5.889-2.442,7.696-1.974,6.795,3.434 c-0.647,3.887-2.514,16.756-4.002,24.766c-0.883,4.75-2.864,5.313-5.979,3.258c-1.498-0.989-9.059-5.989-10.7-7.163 c-1.498-1.07-3.564-2.357-0.973-4.892c0.922-0.903,6.966-6.674,11.675-11.166c0.617-0.59-0.158-1.559-0.87-1.086 c-6.347,4.209-15.147,10.051-16.267,10.812c-1.692,1.149-3.317,1.676-6.234,0.838c-2.204-0.633-4.357-1.388-5.195-1.676 C1.93,26.43,2.696,24.995,5.83,23.616z">
            </path>
        
    </symbol>
    <symbol id="trash" viewBox="0 0 27 27">  
        <path d="M17.7085 4.16667V2.08333C17.7085 1.5308 17.489 1.0009 17.0983 0.610194C16.7076 0.219493 16.1777 0 15.6252 0L9.37516 0C8.82263 0 8.29272 0.219493 7.90202 0.610194C7.51132 1.0009 7.29183 1.5308 7.29183 2.08333V4.16667H2.0835V6.25H4.16683V21.875C4.16683 22.7038 4.49607 23.4987 5.08212 24.0847C5.66817 24.6708 6.46303 25 7.29183 25H17.7085C18.5373 25 19.3322 24.6708 19.9182 24.0847C20.5043 23.4987 20.8335 22.7038 20.8335 21.875V6.25H22.9168V4.16667H17.7085ZM11.4585 17.7083H9.37516V11.4583H11.4585V17.7083ZM15.6252 17.7083H13.5418V11.4583H15.6252V17.7083ZM15.6252 4.16667H9.37516V2.08333H15.6252V4.16667Z"/>
    </symbol>
    <symbol id="user" viewBox="0 0 19 19">  
        <path d="M9.5 11.875C12.1234 11.875 14.25 9.74835 14.25 7.125C14.25 4.50165 12.1234 2.375 9.5 2.375C6.87665 2.375 4.75 4.50165 4.75 7.125C4.75 9.74835 6.87665 11.875 9.5 11.875Z" stroke-width="1.1875" stroke-miterlimit="10"/>
        <path d="M2.29996 16.0306C3.02995 14.767 4.07959 13.7178 5.34344 12.9884C6.60729 12.259 8.04084 11.875 9.50008 11.875C10.9593 11.875 12.3929 12.259 13.6567 12.9885C14.9205 13.718 15.9702 14.7672 16.7001 16.0307" stroke-width="1.1875" stroke-linecap="round" stroke-linejoin="round"/>
    </symbol>
    <symbol id="whatsapp" viewBox="0 0 24 24">
       
            <path
            d="M 12.011719 2 C 6.5057187 2 2.0234844 6.478375 2.0214844 11.984375 C 2.0204844 13.744375 2.4814687 15.462563 3.3554688 16.976562 L 2 22 L 7.2324219 20.763672 C 8.6914219 21.559672 10.333859 21.977516 12.005859 21.978516 L 12.009766 21.978516 C 17.514766 21.978516 21.995047 17.499141 21.998047 11.994141 C 22.000047 9.3251406 20.962172 6.8157344 19.076172 4.9277344 C 17.190172 3.0407344 14.683719 2.001 12.011719 2 z M 12.009766 4 C 14.145766 4.001 16.153109 4.8337969 17.662109 6.3417969 C 19.171109 7.8517969 20.000047 9.8581875 19.998047 11.992188 C 19.996047 16.396187 16.413812 19.978516 12.007812 19.978516 C 10.674812 19.977516 9.3544062 19.642812 8.1914062 19.007812 L 7.5175781 18.640625 L 6.7734375 18.816406 L 4.8046875 19.28125 L 5.2851562 17.496094 L 5.5019531 16.695312 L 5.0878906 15.976562 C 4.3898906 14.768562 4.0204844 13.387375 4.0214844 11.984375 C 4.0234844 7.582375 7.6067656 4 12.009766 4 z M 8.4765625 7.375 C 8.3095625 7.375 8.0395469 7.4375 7.8105469 7.6875 C 7.5815469 7.9365 6.9355469 8.5395781 6.9355469 9.7675781 C 6.9355469 10.995578 7.8300781 12.182609 7.9550781 12.349609 C 8.0790781 12.515609 9.68175 15.115234 12.21875 16.115234 C 14.32675 16.946234 14.754891 16.782234 15.212891 16.740234 C 15.670891 16.699234 16.690438 16.137687 16.898438 15.554688 C 17.106437 14.971687 17.106922 14.470187 17.044922 14.367188 C 16.982922 14.263188 16.816406 14.201172 16.566406 14.076172 C 16.317406 13.951172 15.090328 13.348625 14.861328 13.265625 C 14.632328 13.182625 14.464828 13.140625 14.298828 13.390625 C 14.132828 13.640625 13.655766 14.201187 13.509766 14.367188 C 13.363766 14.534188 13.21875 14.556641 12.96875 14.431641 C 12.71875 14.305641 11.914938 14.041406 10.960938 13.191406 C 10.218937 12.530406 9.7182656 11.714844 9.5722656 11.464844 C 9.4272656 11.215844 9.5585938 11.079078 9.6835938 10.955078 C 9.7955938 10.843078 9.9316406 10.663578 10.056641 10.517578 C 10.180641 10.371578 10.223641 10.267562 10.306641 10.101562 C 10.389641 9.9355625 10.347156 9.7890625 10.285156 9.6640625 C 10.223156 9.5390625 9.737625 8.3065 9.515625 7.8125 C 9.328625 7.3975 9.131125 7.3878594 8.953125 7.3808594 C 8.808125 7.3748594 8.6425625 7.375 8.4765625 7.375 z">
            </path>
        
    </symbol>
    <symbol id="viber" viewBox="0 0 15 15">
       <g clip-path="url(#clip0_602_3117)">
            <path d="M7.12443 0.00218267C5.92068 0.0167139 3.33271 0.214526 1.88521 1.5425C0.808495 2.60937 0.432558 4.18671 0.388495 6.13718C0.351933 8.08062 0.30787 11.7303 3.82584 12.7241V14.2377C3.82584 14.2377 3.80381 14.8433 4.20412 14.9675C4.69725 15.1236 4.97803 14.6577 5.44678 14.157L6.321 13.1684C8.72803 13.3686 10.5716 12.9073 10.784 12.8389C11.2724 12.6828 14.0235 12.3312 14.473 8.68109C14.9343 4.9114 14.2485 2.53625 13.0105 1.46187H13.003C12.6294 1.11781 11.128 0.0237452 7.77365 0.0115577C7.77365 0.0115577 7.52475 -0.00484858 7.12443 0.00218267ZM7.16568 1.06203C7.5074 1.05968 7.71506 1.07421 7.71506 1.07421C10.5543 1.08171 11.9094 1.93625 12.2291 2.22406C13.2716 3.1175 13.8088 5.25875 13.4155 8.40593C13.0419 11.4575 10.8107 11.6506 10.3977 11.7823C10.2219 11.8386 8.59818 12.2389 6.55256 12.1072C6.55256 12.1072 5.02912 13.9456 4.55287 14.4191C4.4774 14.502 4.38928 14.5264 4.33303 14.5142C4.2524 14.4945 4.22803 14.3947 4.23271 14.2578L4.24725 11.7458C1.26365 10.9208 1.43943 7.80781 1.47131 6.18171C1.50787 4.55562 1.81303 3.22531 2.72146 2.32437C3.94443 1.21859 6.14193 1.06953 7.16475 1.06203H7.16568ZM7.39068 2.68765C7.28803 2.68531 7.20271 2.77062 7.20271 2.87328C7.20271 2.97828 7.28803 3.06125 7.39068 3.06125C8.33053 3.04437 9.23662 3.40062 9.91021 4.055C10.5913 4.7164 10.9232 5.60515 10.9358 6.76718C10.9358 6.86984 11.0188 6.95515 11.1238 6.95515V6.94765C11.2265 6.94765 11.3118 6.86468 11.3118 6.76203C11.3582 5.65625 10.948 4.58187 10.1788 3.78593C9.43678 3.06078 8.49646 2.68718 7.39068 2.68718V2.68765ZM4.9199 3.1175C4.78818 3.09781 4.65131 3.125 4.53646 3.19296H4.52662C4.27256 3.34203 4.03584 3.53 3.81131 3.78125C3.64021 3.97906 3.5474 4.17921 3.52303 4.37187C3.5085 4.48671 3.51834 4.60156 3.55256 4.71125L3.56475 4.71875C3.7574 5.285 4.00912 5.82968 4.31662 6.3425C4.71225 7.0625 5.20021 7.72906 5.76693 8.32484L5.78381 8.34921L5.81053 8.3689L5.8274 8.38859L5.84709 8.40546C6.44521 8.97453 7.11178 9.4625 7.83459 9.86281C8.65959 10.3119 9.16021 10.5242 9.46068 10.6123V10.617C9.54881 10.6437 9.62896 10.6559 9.70959 10.6559C9.96599 10.6362 10.2079 10.5341 10.3982 10.3606C10.6424 10.1408 10.8351 9.89937 10.9794 9.64297V9.63828C11.1233 9.36734 11.0746 9.11093 10.8669 8.9375C10.4521 8.57375 10.0002 8.25125 9.52396 7.97328C9.20428 7.79984 8.87943 7.90484 8.74771 8.08062L8.46693 8.43453C8.32303 8.61031 8.06146 8.58593 8.06146 8.58593L8.05396 8.59062C6.1035 8.09234 5.58318 6.1175 5.58318 6.1175C5.58318 6.1175 5.55881 5.8489 5.73928 5.71203L6.09084 5.4289C6.25912 5.29203 6.37631 4.96765 6.19584 4.6475C5.91975 4.1689 5.59771 3.71984 5.23396 3.30453C5.15568 3.20703 5.04365 3.14093 4.91896 3.11656L4.9199 3.1175ZM7.71506 3.67437C7.46615 3.67437 7.46615 4.05031 7.7174 4.05031C8.34225 4.06015 8.93803 4.3189 9.37256 4.76796C9.76818 5.20484 9.97303 5.78609 9.93412 6.37437C9.93646 6.47703 10.0194 6.56 10.1221 6.56L10.1296 6.56984C10.2322 6.56984 10.3176 6.48453 10.3176 6.38187C10.3344 5.63703 10.1029 5.01218 9.64865 4.51156C9.19209 4.01093 8.55506 3.73015 7.74178 3.67437C7.73193 3.67437 7.7249 3.67437 7.71506 3.67437ZM8.02303 4.685C7.76662 4.6775 7.75678 5.06093 8.01084 5.06843C8.62865 5.10031 8.92865 5.4125 8.96803 6.05468C8.97037 6.15734 9.05334 6.23796 9.15365 6.23796H9.16115C9.26615 6.23328 9.34912 6.14281 9.34162 6.03781C9.29756 5.20062 8.841 4.72906 8.03053 4.68546C8.02818 4.68546 8.02584 4.68546 8.02303 4.68546V4.685Z" />
            </g>
            <defs>
            <clipPath id="clip0_602_3117">
            <rect width="15" height="15" fill="white"/>
            </clipPath>
            </defs>     
    </symbol> 
</svg>