<svg width="110" height="41" viewBox="0 0 110 41" fill="none" xmlns="http://www.w3.org/2000/svg">
<path d="M9.56353 21.8882C9.56353 12.4681 27.3983 4.732 50.1775 3.88065C49.7913 3.87715 49.4043 3.8754 49.0153 3.8754C22.2426 3.8754 0.539062 11.8901 0.539062 21.7778C0.539062 31.2572 20.4901 39.0147 45.7315 39.6382C25.1198 38.0151 9.56318 30.6856 9.56318 21.8882H9.56353Z" fill="white"/>
<path d="M9.56353 21.8882C9.56353 12.4681 27.3983 4.732 50.1775 3.88065C49.7913 3.87715 49.4043 3.8754 49.0153 3.8754C22.2426 3.8754 0.539062 11.8901 0.539062 21.7778C0.539062 31.2572 20.4901 39.0147 45.7315 39.6382C25.1198 38.0151 9.56318 30.6856 9.56318 21.8882H9.56353Z" stroke="white" stroke-width="0.268126" stroke-miterlimit="22.9256"/>
<path d="M61.4844 10.9844C59.3222 10.9844 57.194 11.0279 55.1072 11.1113C55.7801 11.1011 56.4569 11.0948 57.1379 11.0948C81.0727 11.0948 100.476 17.5719 100.476 25.5628C100.476 33.1205 83.1136 39.3235 60.9783 39.9726C61.1469 39.9733 61.3151 39.9747 61.4844 39.9747C88.0639 39.9747 109.612 33.4846 109.612 25.4794C109.612 17.4738 88.0639 10.9844 61.4844 10.9844Z" fill="white"/>
<path d="M61.4844 10.9844C59.3222 10.9844 57.194 11.0279 55.1072 11.1113C55.7801 11.1011 56.4569 11.0948 57.1379 11.0948C81.0727 11.0948 100.476 17.5719 100.476 25.5628C100.476 33.1205 83.1136 39.3235 60.9783 39.9726C61.1469 39.9733 61.3151 39.9747 61.4844 39.9747C88.0639 39.9747 109.612 33.4846 109.612 25.4794C109.612 17.4738 88.0639 10.9844 61.4844 10.9844Z" stroke="white" stroke-width="0.268126" stroke-miterlimit="22.9256"/>
<path d="M53.4781 0.85907L53.8518 2.06967L55.0631 2.44364L53.8518 2.81692L53.4781 4.02857L53.1045 2.81692L51.8936 2.44364L53.1045 2.06967L53.4781 0.85907Z" fill="white"/>
<path d="M53.4781 0.85907L53.8518 2.06967L55.0631 2.44364L53.8518 2.81692L53.4781 4.02857L53.1045 2.81692L51.8936 2.44364L53.1045 2.06967L53.4781 0.85907Z" stroke="white" stroke-width="0.268126" stroke-miterlimit="22.9256"/>
<path d="M50.6047 9.11069L50.9787 10.3216L52.1893 10.6949L50.9787 11.0685L50.6047 12.2802L50.2314 11.0685L49.0198 10.6949L50.2314 10.3216L50.6047 9.11069Z" fill="white"/>
<path d="M50.6047 9.11069L50.9787 10.3216L52.1893 10.6949L50.9787 11.0685L50.6047 12.2802L50.2314 11.0685L49.0198 10.6949L50.2314 10.3216L50.6047 9.11069Z" stroke="white" stroke-width="0.268126" stroke-miterlimit="22.9256"/>
<path d="M70.9015 12.8676L71.2751 14.0789L72.4867 14.4522L71.2751 14.8262L70.9015 16.0375L70.5282 14.8262L69.3169 14.4522L70.5282 14.0789L70.9015 12.8676Z" fill="white"/>
<path d="M70.9015 12.8676L71.2751 14.0789L72.4867 14.4522L71.2751 14.8262L70.9015 16.0375L70.5282 14.8262L69.3169 14.4522L70.5282 14.0789L70.9015 12.8676Z" stroke="white" stroke-width="0.268126" stroke-miterlimit="22.9256"/>
<path d="M79.5397 15.0224L79.9133 16.2334L81.1246 16.6077L79.9133 16.981L79.5397 18.1926L79.1657 16.981L77.9551 16.6077L79.1657 16.2334L79.5397 15.0224Z" fill="white"/>
<path d="M79.5397 15.0224L79.9133 16.2334L81.1246 16.6077L79.9133 16.981L79.5397 18.1926L79.1657 16.981L77.9551 16.6077L79.1657 16.2334L79.5397 15.0224Z" stroke="white" stroke-width="0.268126" stroke-miterlimit="22.9256"/>
<path d="M86.1883 18.7983L86.562 20.0096L87.7736 20.3829L86.562 20.7565L86.1883 21.9682L85.8151 20.7565L84.6038 20.3829L85.8151 20.0096L86.1883 18.7983Z" fill="white"/>
<path d="M86.1883 18.7983L86.562 20.0096L87.7736 20.3829L86.562 20.7565L86.1883 21.9682L85.8151 20.7565L84.6038 20.3829L85.8151 20.0096L86.1883 18.7983Z" stroke="white" stroke-width="0.268126" stroke-miterlimit="22.9256"/>
<path d="M35.1752 16.6554V21.297H34.8146C34.3799 20.0271 33.7301 19.0629 32.8616 18.403C31.9962 17.7437 31.0482 17.4121 30.017 17.4121C29.0325 17.4121 28.2134 17.6904 27.5608 18.2438C26.9075 18.7976 26.4434 19.5666 26.1711 20.5585C25.8994 21.5497 25.7634 22.5675 25.7634 23.6085C25.7634 24.8713 25.9124 25.9788 26.211 26.9301C26.5061 27.882 26.9867 28.5812 27.6533 29.0288C28.3161 29.476 29.105 29.6986 30.017 29.6986C30.3353 29.6986 30.6602 29.6653 30.9921 29.5959C31.3265 29.5293 31.6678 29.4298 32.0194 29.3008V26.5621C32.0194 26.0451 31.9833 25.7069 31.91 25.5575C31.8406 25.4054 31.6913 25.2659 31.4691 25.1429C31.2472 25.0209 30.9753 24.9572 30.6567 24.9572H30.3188V24.5993H36.717V24.9572C36.233 24.9905 35.8951 25.057 35.7027 25.1566C35.5134 25.2593 35.3645 25.4251 35.2614 25.6571C35.2018 25.7798 35.1752 26.0812 35.1752 26.5621V29.3008C34.3337 29.6755 33.4585 29.9601 32.5462 30.149C31.6373 30.3418 30.6935 30.4381 29.7145 30.4381C28.465 30.4381 27.4276 30.265 26.6018 29.9271C25.7764 29.5858 25.0467 29.1413 24.4172 28.5876C23.787 28.0338 23.2928 27.4106 22.9353 26.718C22.4842 25.8225 22.2554 24.8212 22.2554 23.7143C22.2554 21.7351 22.9521 20.0611 24.3443 18.6949C25.7365 17.3287 27.4875 16.6459 29.5989 16.6459C30.2522 16.6459 30.8421 16.6954 31.3661 16.7988C31.6514 16.8513 32.1123 17.0006 32.7519 17.2425C33.3888 17.4847 33.7666 17.607 33.8826 17.607C34.0649 17.607 34.2303 17.5411 34.3866 17.4079C34.5422 17.2758 34.6852 17.0234 34.8146 16.6554H35.1752ZM42.6053 28.7866C41.4981 29.7645 40.5034 30.252 39.6215 30.252C39.1039 30.252 38.6731 30.0828 38.3321 29.7414C37.9872 29.4031 37.8179 28.9752 37.8179 28.4649C37.8179 27.7716 38.1127 27.1488 38.7092 26.5947C39.3061 26.0409 40.6022 25.3052 42.6053 24.3869V23.4718C42.6053 22.7852 42.5685 22.3544 42.4921 22.1749C42.4192 21.9962 42.2769 21.8402 42.0711 21.7081C41.8622 21.5753 41.6302 21.5094 41.3716 21.5094C40.9506 21.5094 40.6022 21.6054 40.3302 21.7908C40.1645 21.9068 40.0789 22.0428 40.0789 22.1991C40.0789 22.3348 40.1715 22.5041 40.3509 22.7059C40.5959 22.9849 40.7217 23.2531 40.7217 23.5121C40.7217 23.83 40.6022 24.0991 40.367 24.3242C40.1284 24.5464 39.8203 24.6592 39.4386 24.6592C39.031 24.6592 38.6896 24.5334 38.4141 24.2877C38.1393 24.0427 37.9998 23.7539 37.9998 23.4262C37.9998 22.9586 38.1856 22.5139 38.5529 22.0894C38.9244 21.6653 39.4382 21.3408 40.0986 21.1116C40.7582 20.8862 41.4445 20.774 42.157 20.774C43.0189 20.774 43.6985 20.9563 44.2025 21.3204C44.7033 21.6885 45.0282 22.0831 45.1772 22.5111C45.2701 22.7831 45.3128 23.4094 45.3128 24.3876V27.9118C45.3128 28.3257 45.3297 28.5876 45.3626 28.6937C45.3956 28.7999 45.4422 28.8795 45.5084 28.9321C45.5715 28.9819 45.6479 29.0088 45.7303 29.0088C45.8996 29.0088 46.072 28.8897 46.248 28.651L46.5364 28.883C46.2147 29.3639 45.8799 29.7116 45.5319 29.9271C45.187 30.143 44.7924 30.2524 44.3514 30.2524C43.8345 30.2524 43.4296 30.1294 43.138 29.8875C42.8464 29.6453 42.6677 29.2773 42.6049 28.7873L42.6053 28.7866ZM42.6053 28.0765V25.0367C41.8226 25.4973 41.2391 25.988 40.8577 26.5116C40.6026 26.8628 40.476 27.215 40.476 27.569C40.476 27.8676 40.583 28.1298 40.7982 28.3583C40.9611 28.5339 41.1861 28.6198 41.4774 28.6198C41.8023 28.6198 42.177 28.4375 42.6053 28.0762V28.0765ZM51.0921 16.954V28.2423C51.0921 28.8827 51.1685 29.2934 51.3175 29.4694C51.4664 29.6485 51.7584 29.7512 52.1895 29.7778V30.1255H47.2861V29.7778C47.6874 29.7649 47.9857 29.645 48.1813 29.4266C48.3103 29.2773 48.3737 28.883 48.3737 28.2427V18.8411C48.3737 18.2042 48.3008 17.7998 48.1515 17.6214C48.0018 17.4419 47.7137 17.3427 47.2861 17.3161V16.9547H51.0921V16.954ZM58.0778 28.7866C56.9699 29.7645 55.9755 30.252 55.0937 30.252C54.577 30.252 54.1456 30.0828 53.8042 29.7414C53.4593 29.4031 53.29 28.9752 53.29 28.4649C53.29 27.7716 53.5855 27.1488 54.182 26.5947C54.7789 26.0409 56.0754 25.3052 58.0778 24.3869V23.4718C58.0778 22.7852 58.0413 22.3544 57.9649 22.1749C57.8913 21.9962 57.7497 21.8402 57.5436 21.7081C57.3354 21.5753 57.1027 21.5094 56.8444 21.5094C56.4231 21.5094 56.0754 21.6054 55.8034 21.7908C55.6369 21.9068 55.5511 22.0428 55.5511 22.1991C55.5511 22.3348 55.6439 22.5041 55.823 22.7059C56.0684 22.9849 56.1942 23.2531 56.1942 23.5121C56.1942 23.83 56.0754 24.0991 55.8392 24.3242C55.6008 24.5464 55.2928 24.6592 54.9114 24.6592C54.5038 24.6592 54.1621 24.5334 53.8873 24.2877C53.6114 24.0427 53.4723 23.7539 53.4723 23.4262C53.4723 22.9586 53.6581 22.5139 54.0261 22.0894C54.3972 21.6653 54.9111 21.3408 55.571 21.1116C56.2307 20.8862 56.9176 20.774 57.6302 20.774C58.4917 20.774 59.1709 20.9563 59.6753 21.3204C60.1758 21.6885 60.5007 22.0831 60.65 22.5111C60.7426 22.7831 60.7853 23.4094 60.7853 24.3876V27.9118C60.7853 28.3257 60.8025 28.5876 60.8354 28.6937C60.8687 28.7999 60.9146 28.8795 60.9809 28.9321C61.044 28.9819 61.12 29.0088 61.2035 29.0088C61.3727 29.0088 61.5445 28.8897 61.7201 28.651L62.0089 28.883C61.6871 29.3639 61.3524 29.7116 61.0047 29.9271C60.6598 30.143 60.2652 30.2524 59.8239 30.2524C59.3069 30.2524 58.9025 30.1294 58.6109 29.8875C58.3196 29.6453 58.1398 29.2773 58.0774 28.7873L58.0778 28.7866ZM58.0778 28.0765V25.0367C57.2951 25.4973 56.7115 25.988 56.3302 26.5116C56.0758 26.8628 55.9492 27.215 55.9492 27.569C55.9492 27.8676 56.0551 28.1298 56.2706 28.3583C56.4333 28.5339 56.659 28.6198 56.9502 28.6198C57.2751 28.6198 57.6498 28.4375 58.0778 28.0762V28.0765ZM68.3815 24.559L69.9566 27.5525C70.5003 28.5942 70.931 29.2535 71.2493 29.5325C71.422 29.6814 71.6635 29.7645 71.965 29.7775V30.1252H66.9063V29.7775C67.301 29.7442 67.5463 29.6913 67.6395 29.6215C67.7321 29.549 67.7815 29.4522 67.7815 29.3302C67.7815 29.1473 67.6756 28.8623 67.4696 28.4743L66.6844 26.9991L66.0112 27.9805C65.7101 28.4249 65.5376 28.6902 65.4977 28.7761C65.4479 28.8988 65.4213 29.0081 65.4213 29.1042C65.4213 29.2531 65.4511 29.3797 65.5142 29.4789C65.5737 29.5787 65.6565 29.6548 65.7658 29.7042C65.872 29.7505 66.0679 29.7775 66.3529 29.7775V30.1252H62.7992V29.7775C63.2402 29.7775 63.6415 29.6548 64.0056 29.4126C64.3736 29.1676 64.9039 28.5343 65.6039 27.5035L66.3529 26.3963L64.7879 23.5019C64.2773 22.557 63.8966 21.9769 63.6439 21.7652C63.3891 21.5497 63.107 21.4298 62.7989 21.4039V21.046H67.8278V21.4039L67.5663 21.4137L67.0623 21.5896C67.0093 21.632 66.9824 21.7088 66.9824 21.8115C66.9824 21.9075 66.9988 22.0102 67.0325 22.1129C67.0518 22.1592 67.1415 22.332 67.3045 22.6369L68.0135 23.9597L68.3815 23.4329C68.902 22.7228 69.1607 22.223 69.1607 21.9373C69.1607 21.8013 69.1039 21.6888 68.9879 21.5924C68.875 21.4999 68.6728 21.4372 68.3812 21.4039V21.046H71.5969V21.4039C71.2023 21.4165 70.8339 21.5395 70.4897 21.768C70.1449 21.9969 69.7604 22.4445 69.3331 23.1045L68.3812 24.5597L68.3815 24.559ZM77.1239 30.4939L74.1895 23.7634C73.7486 22.7455 73.4241 22.1227 73.2148 21.8903C73.0028 21.6548 72.7511 21.4925 72.4525 21.4032V21.0453H77.2798V21.4032C76.9616 21.4158 76.739 21.4792 76.6097 21.5889C76.4811 21.6979 76.4145 21.8304 76.4145 21.9864C76.4145 22.2321 76.5767 22.7196 76.9013 23.4423L78.4533 26.9991L79.5142 24.2506C79.8955 23.2727 80.0876 22.5927 80.0876 22.2086C80.0876 21.9699 80.0081 21.7775 79.8489 21.6355C79.6902 21.4929 79.408 21.4161 79.007 21.4035V21.0457H82.0472V21.4035C81.7524 21.4365 81.5068 21.5521 81.321 21.748C81.1321 21.9468 80.817 22.6162 80.3761 23.7634L77.7838 30.4939C77.1309 32.1776 76.6433 33.2158 76.3282 33.6034C75.8807 34.1471 75.3206 34.419 74.6473 34.419C74.1103 34.419 73.6729 34.2669 73.3413 33.9581C73.0063 33.6501 72.8408 33.2785 72.8408 32.8443C72.8408 32.4696 72.9565 32.1584 73.185 31.913C73.4139 31.6673 73.6996 31.5447 74.0343 31.5447C74.3588 31.5447 74.6213 31.648 74.8162 31.8534C75.0153 32.0623 75.118 32.3841 75.1211 32.8183C75.1278 33.0633 75.1579 33.2225 75.2109 33.2919C75.2606 33.3648 75.3367 33.3981 75.4331 33.3981C75.5883 33.3981 75.7545 33.3055 75.9304 33.1159C76.1884 32.8439 76.494 32.2246 76.8421 31.2534L77.1242 30.4942L77.1239 30.4939Z" fill="white"/>
<path d="M35.1752 16.6554V21.297H34.8146C34.3799 20.0271 33.7301 19.0629 32.8616 18.403C31.9962 17.7437 31.0482 17.4121 30.017 17.4121C29.0325 17.4121 28.2134 17.6904 27.5608 18.2438C26.9075 18.7976 26.4434 19.5666 26.1711 20.5585C25.8994 21.5497 25.7634 22.5675 25.7634 23.6085C25.7634 24.8713 25.9124 25.9788 26.211 26.9301C26.5061 27.882 26.9867 28.5812 27.6533 29.0288C28.3161 29.476 29.105 29.6986 30.017 29.6986C30.3353 29.6986 30.6602 29.6653 30.9921 29.5959C31.3265 29.5293 31.6678 29.4298 32.0194 29.3008V26.5621C32.0194 26.0451 31.9833 25.7069 31.91 25.5575C31.8406 25.4054 31.6913 25.2659 31.4691 25.1429C31.2472 25.0209 30.9753 24.9572 30.6567 24.9572H30.3188V24.5993H36.717V24.9572C36.233 24.9905 35.8951 25.057 35.7027 25.1566C35.5134 25.2593 35.3645 25.4251 35.2614 25.6571C35.2018 25.7798 35.1752 26.0812 35.1752 26.5621V29.3008C34.3337 29.6755 33.4585 29.9601 32.5462 30.149C31.6373 30.3418 30.6935 30.4381 29.7145 30.4381C28.465 30.4381 27.4276 30.265 26.6018 29.9271C25.7764 29.5858 25.0467 29.1413 24.4172 28.5876C23.787 28.0338 23.2928 27.4106 22.9353 26.718C22.4842 25.8225 22.2554 24.8212 22.2554 23.7143C22.2554 21.7351 22.9521 20.0611 24.3443 18.6949C25.7365 17.3287 27.4875 16.6459 29.5989 16.6459C30.2522 16.6459 30.8421 16.6954 31.3661 16.7988C31.6514 16.8513 32.1123 17.0006 32.7519 17.2425C33.3888 17.4847 33.7666 17.607 33.8826 17.607C34.0649 17.607 34.2303 17.5411 34.3866 17.4079C34.5422 17.2758 34.6852 17.0234 34.8146 16.6554H35.1752ZM42.6053 28.7866C41.4981 29.7645 40.5034 30.252 39.6215 30.252C39.1039 30.252 38.6731 30.0827 38.3321 29.7414C37.9872 29.4031 37.8179 28.9752 37.8179 28.4649C37.8179 27.7716 38.1127 27.1488 38.7092 26.5947C39.3061 26.0409 40.6022 25.3052 42.6053 24.3869V23.4718C42.6053 22.7852 42.5685 22.3544 42.4921 22.1749C42.4192 21.9962 42.2769 21.8402 42.0711 21.7081C41.8622 21.5753 41.6302 21.5094 41.3716 21.5094C40.9506 21.5094 40.6022 21.6054 40.3302 21.7908C40.1645 21.9068 40.0789 22.0428 40.0789 22.1991C40.0789 22.3348 40.1715 22.5041 40.3509 22.7059C40.5959 22.9849 40.7217 23.2531 40.7217 23.5121C40.7217 23.83 40.6022 24.0991 40.367 24.3242C40.1284 24.5464 39.8203 24.6592 39.4386 24.6592C39.031 24.6592 38.6896 24.5334 38.4141 24.2877C38.1393 24.0427 37.9998 23.7539 37.9998 23.4262C37.9998 22.9586 38.1856 22.5139 38.5529 22.0894C38.9244 21.6653 39.4382 21.3408 40.0986 21.1116C40.7582 20.8862 41.4445 20.774 42.157 20.774C43.0189 20.774 43.6985 20.9563 44.2025 21.3204C44.7033 21.6885 45.0282 22.0831 45.1772 22.5111C45.2701 22.7831 45.3128 23.4094 45.3128 24.3876V27.9118C45.3128 28.3257 45.3297 28.5876 45.3626 28.6937C45.3956 28.7999 45.4422 28.8795 45.5084 28.9321C45.5715 28.9819 45.6479 29.0088 45.7303 29.0088C45.8996 29.0088 46.072 28.8897 46.248 28.651L46.5364 28.883C46.2147 29.3639 45.8799 29.7116 45.5319 29.9271C45.187 30.143 44.7924 30.2524 44.3514 30.2524C43.8345 30.2524 43.4296 30.1294 43.138 29.8875C42.8464 29.6453 42.6677 29.2773 42.6049 28.7873L42.6053 28.7866ZM42.6053 28.0765V25.0367C41.8226 25.4973 41.2391 25.988 40.8577 26.5116C40.6026 26.8628 40.476 27.215 40.476 27.569C40.476 27.8676 40.583 28.1298 40.7982 28.3583C40.9611 28.5339 41.1861 28.6198 41.4774 28.6198C41.8023 28.6198 42.177 28.4375 42.6053 28.0762V28.0765ZM51.0921 16.954V28.2423C51.0921 28.8827 51.1685 29.2934 51.3175 29.4694C51.4664 29.6485 51.7584 29.7512 52.1895 29.7778V30.1255H47.2861V29.7778C47.6874 29.7649 47.9857 29.645 48.1813 29.4266C48.3103 29.2773 48.3737 28.883 48.3737 28.2427V18.8411C48.3737 18.2042 48.3008 17.7998 48.1515 17.6214C48.0018 17.4419 47.7137 17.3427 47.2861 17.3161V16.9547H51.0921V16.954ZM58.0778 28.7866C56.9699 29.7645 55.9755 30.252 55.0937 30.252C54.577 30.252 54.1456 30.0827 53.8042 29.7414C53.4593 29.4031 53.29 28.9752 53.29 28.4649C53.29 27.7716 53.5855 27.1488 54.182 26.5947C54.7789 26.0409 56.0754 25.3052 58.0778 24.3869V23.4718C58.0778 22.7852 58.0413 22.3544 57.9649 22.1749C57.8913 21.9962 57.7497 21.8402 57.5436 21.7081C57.3354 21.5753 57.1027 21.5094 56.8444 21.5094C56.4231 21.5094 56.0754 21.6054 55.8034 21.7908C55.6369 21.9068 55.5511 22.0428 55.5511 22.1991C55.5511 22.3348 55.6439 22.5041 55.823 22.7059C56.0684 22.9849 56.1942 23.2531 56.1942 23.5121C56.1942 23.83 56.0754 24.0991 55.8392 24.3242C55.6008 24.5464 55.2928 24.6592 54.9114 24.6592C54.5038 24.6592 54.1621 24.5334 53.8873 24.2877C53.6114 24.0427 53.4723 23.7539 53.4723 23.4262C53.4723 22.9586 53.6581 22.5139 54.0261 22.0894C54.3972 21.6653 54.9111 21.3408 55.571 21.1116C56.2307 20.8862 56.9176 20.774 57.6302 20.774C58.4917 20.774 59.1709 20.9563 59.6753 21.3204C60.1758 21.6885 60.5007 22.0831 60.65 22.5111C60.7426 22.7831 60.7853 23.4094 60.7853 24.3876V27.9118C60.7853 28.3257 60.8025 28.5876 60.8354 28.6937C60.8687 28.7999 60.9146 28.8795 60.9809 28.9321C61.044 28.9819 61.12 29.0088 61.2035 29.0088C61.3727 29.0088 61.5445 28.8897 61.7201 28.651L62.0089 28.883C61.6871 29.3639 61.3524 29.7116 61.0047 29.9271C60.6598 30.143 60.2652 30.2524 59.8239 30.2524C59.3069 30.2524 58.9025 30.1294 58.6109 29.8875C58.3196 29.6453 58.1398 29.2773 58.0774 28.7873L58.0778 28.7866ZM58.0778 28.0765V25.0367C57.2951 25.4973 56.7115 25.988 56.3302 26.5116C56.0758 26.8628 55.9492 27.215 55.9492 27.569C55.9492 27.8676 56.0551 28.1298 56.2706 28.3583C56.4333 28.5339 56.659 28.6198 56.9502 28.6198C57.2751 28.6198 57.6498 28.4375 58.0778 28.0762V28.0765ZM68.3815 24.559L69.9566 27.5525C70.5003 28.5942 70.931 29.2535 71.2493 29.5325C71.422 29.6814 71.6635 29.7645 71.965 29.7775V30.1252H66.9063V29.7775C67.301 29.7442 67.5463 29.6913 67.6395 29.6215C67.7321 29.549 67.7815 29.4522 67.7815 29.3302C67.7815 29.1473 67.6756 28.8623 67.4696 28.4743L66.6844 26.9991L66.0111 27.9805C65.7101 28.4249 65.5376 28.6902 65.4977 28.7761C65.4479 28.8988 65.4213 29.0081 65.4213 29.1042C65.4213 29.2531 65.4511 29.3797 65.5142 29.4789C65.5737 29.5787 65.6565 29.6548 65.7658 29.7042C65.872 29.7505 66.0679 29.7775 66.3529 29.7775V30.1252H62.7992V29.7775C63.2402 29.7775 63.6415 29.6548 64.0056 29.4126C64.3737 29.1676 64.9039 28.5343 65.6039 27.5035L66.3529 26.3963L64.7879 23.5019C64.2773 22.557 63.8966 21.9769 63.6439 21.7652C63.3891 21.5497 63.107 21.4298 62.7989 21.4039V21.046H67.8278V21.4039L67.5663 21.4137L67.0623 21.5896C67.0094 21.632 66.9824 21.7088 66.9824 21.8115C66.9824 21.9075 66.9988 22.0102 67.0325 22.1129C67.0518 22.1592 67.1415 22.332 67.3045 22.6369L68.0135 23.9597L68.3815 23.4329C68.902 22.7228 69.1607 22.223 69.1607 21.9373C69.1607 21.8013 69.1039 21.6888 68.9879 21.5924C68.875 21.4999 68.6728 21.4372 68.3812 21.4039V21.046H71.5969V21.4039C71.2023 21.4165 70.8339 21.5395 70.4897 21.768C70.1449 21.9969 69.7604 22.4445 69.3331 23.1045L68.3812 24.5597L68.3815 24.559ZM77.1239 30.4939L74.1895 23.7634C73.7486 22.7455 73.4241 22.1227 73.2148 21.8903C73.0028 21.6548 72.7511 21.4925 72.4525 21.4032V21.0453H77.2798V21.4032C76.9616 21.4158 76.739 21.4792 76.6097 21.5889C76.4811 21.6979 76.4145 21.8304 76.4145 21.9864C76.4145 22.2321 76.5767 22.7196 76.9013 23.4423L78.4533 26.9991L79.5142 24.2506C79.8955 23.2727 80.0876 22.5927 80.0876 22.2086C80.0876 21.9699 80.0081 21.7775 79.8489 21.6355C79.6902 21.4929 79.408 21.4161 79.007 21.4035V21.0457H82.0472V21.4035C81.7525 21.4365 81.5068 21.5521 81.321 21.748C81.1321 21.9468 80.817 22.6162 80.3761 23.7634L77.7838 30.4939C77.1309 32.1776 76.6433 33.2158 76.3282 33.6034C75.8807 34.1471 75.3206 34.419 74.6473 34.419C74.1103 34.419 73.6729 34.2669 73.3413 33.9581C73.0063 33.6501 72.8408 33.2785 72.8408 32.8443C72.8408 32.4696 72.9565 32.1584 73.185 31.913C73.4139 31.6673 73.6995 31.5447 74.0343 31.5447C74.3588 31.5447 74.6213 31.648 74.8162 31.8534C75.0153 32.0623 75.118 32.3841 75.1211 32.8183C75.1278 33.0633 75.1579 33.2225 75.2109 33.2919C75.2606 33.3648 75.3367 33.3981 75.4331 33.3981C75.5883 33.3981 75.7545 33.3055 75.9304 33.1159C76.1884 32.8439 76.494 32.2246 76.8421 31.2534L77.1242 30.4942L77.1239 30.4939Z" stroke="white" stroke-width="0.268126" stroke-miterlimit="22.9256"/>
</svg>
