<svg width="19" height="23" viewBox="0 0 19 23" fill="none" xmlns="http://www.w3.org/2000/svg">
<path d="M9.49991 18.117C10.9234 17.5795 16.502 14.9017 16.7489 5.87315C16.7594 5.48851 16.5588 5.12499 16.2321 4.92171C11.9094 2.23203 6.43396 2.23203 2.11126 4.92171C1.78456 5.12499 1.58388 5.48851 1.5944 5.87315C1.84129 14.9017 7.41994 17.5795 8.84341 18.117C9.05594 18.1972 9.28739 18.1972 9.49991 18.117Z" fill="url(#paint0_linear_2030_39)"/>
<g filter="url(#filter0_b_2030_39)">
<path d="M1.64416 8.084L0.958314 8.47591C0.564394 8.70101 0.318399 9.12583 0.333362 9.57928C0.656319 19.3665 7.36289 22.152 8.87168 22.6559C9.07012 22.7221 9.27248 22.7221 9.47092 22.6559C10.9797 22.152 17.6863 19.3665 18.0092 9.57928C18.0242 9.12583 17.7782 8.70101 17.3843 8.47591L16.6984 8.084C12.0342 5.41874 6.30836 5.41874 1.64416 8.084Z" fill="#6AE092" fill-opacity="0.6"/>
<path d="M0.9895 8.53048L1.67535 8.13857C6.32022 5.48436 12.0224 5.48436 16.6673 8.13857L17.3531 8.53049C17.7275 8.74445 17.9606 9.14788 17.9464 9.57721C17.7855 14.4552 16.0344 17.5836 14.1395 19.5553C12.2432 21.5283 10.1996 22.3462 9.45101 22.5962C9.2655 22.6582 9.07711 22.6582 8.89159 22.5962C8.14299 22.3462 6.09936 21.5283 4.20315 19.5553C2.30818 17.5836 0.557145 14.4552 0.396184 9.57721C0.382017 9.14788 0.615066 8.74445 0.9895 8.53048Z" stroke="url(#paint1_linear_2030_39)" stroke-width="0.125712"/>
</g>
<path d="M8.50373 15.1202C8.51316 15.1297 8.52595 15.135 8.53929 15.135C8.55263 15.135 8.56542 15.1297 8.57485 15.1202L12.3294 11.3657C12.68 11.0151 13.2486 11.0151 13.5992 11.3657C13.9499 11.7164 13.9499 12.2849 13.5992 12.6356L9.17422 17.0606C9.00583 17.229 8.77744 17.3236 8.53929 17.3236C8.30114 17.3236 8.07275 17.229 7.90436 17.0606L5.37578 14.532C5.02512 14.1814 5.02512 13.6128 5.37578 13.2622C5.72645 12.9115 6.29498 12.9115 6.64565 13.2622L8.50373 15.1202Z" fill="url(#paint2_linear_2030_39)" fill-opacity="0.9" stroke="url(#paint3_linear_2030_39)" stroke-width="0.10057" stroke-linecap="round" stroke-linejoin="round"/>
<defs>
<filter id="filter0_b_2030_39" x="-2.19606" y="3.55649" width="22.7344" height="21.6776" filterUnits="userSpaceOnUse" color-interpolation-filters="sRGB">
<feFlood flood-opacity="0" result="BackgroundImageFix"/>
<feGaussianBlur in="BackgroundImageFix" stdDeviation="1.26429"/>
<feComposite in2="SourceAlpha" operator="in" result="effect1_backgroundBlur_2030_39"/>
<feBlend mode="normal" in="SourceGraphic" in2="effect1_backgroundBlur_2030_39" result="shape"/>
</filter>
<linearGradient id="paint0_linear_2030_39" x1="4.96012" y1="6.81809" x2="21.4459" y2="19.2255" gradientUnits="userSpaceOnUse">
<stop stop-color="#75EDA1"/>
<stop offset="1" stop-color="#349256"/>
</linearGradient>
<linearGradient id="paint1_linear_2030_39" x1="0.662609" y1="7.80557" x2="22.6055" y2="23.9873" gradientUnits="userSpaceOnUse">
<stop stop-color="white"/>
<stop offset="0.734375" stop-color="white" stop-opacity="0"/>
</linearGradient>
<linearGradient id="paint2_linear_2030_39" x1="6.44552" y1="13.4626" x2="20.2739" y2="15.0969" gradientUnits="userSpaceOnUse">
<stop stop-color="white"/>
<stop offset="1" stop-color="white" stop-opacity="0"/>
</linearGradient>
<linearGradient id="paint3_linear_2030_39" x1="5.31411" y1="11.9541" x2="10.9712" y2="13.8398" gradientUnits="userSpaceOnUse">
<stop stop-color="white"/>
<stop offset="1" stop-color="white" stop-opacity="0"/>
</linearGradient>
</defs>
</svg>
