<svg xmlns="http://www.w3.org/2000/svg">
<symbol id="arrow" viewBox="0 0 24 24">
       <g filter="url(#filter0_d_72_215)">
<path fill-rule="evenodd" clip-rule="evenodd" d="M4.44996 8.37291L19.1076 3.03957C19.3506 2.95189 19.6222 3.01257 19.8048 3.19528C19.9874 3.378 20.0481 3.64984 19.9604 3.89291L14.6304 18.5596C14.535 18.8235 14.2846 18.9995 14.0041 18.9996C13.7311 18.9998 13.4855 18.8334 13.3845 18.5796L10.826 12.1796L4.42997 9.61958C4.17116 9.52135 4 9.27322 4 8.99624C4 8.71926 4.17116 8.47114 4.42997 8.37291H4.44996Z" fill="#454545"/>
<path d="M4.62092 8.84277L4.56736 8.86226C4.52575 8.89313 4.5 8.94244 4.5 8.99624C4.5 9.06567 4.5429 9.12763 4.60739 9.15211L4.60742 9.15204L4.61577 9.15538L11.0118 11.7154L11.2108 11.795L11.2903 11.994L13.8488 18.394L13.849 18.3947C13.8743 18.4582 13.9357 18.4996 14.0036 18.4996H14.0039C14.0737 18.4995 14.1363 18.4558 14.1601 18.3897L14.1605 18.3888L19.4901 3.72333C19.4901 3.7232 19.4902 3.72307 19.4902 3.72293C19.512 3.66214 19.4967 3.59429 19.4512 3.54873C19.4057 3.50321 19.3382 3.48811 19.2778 3.50973C19.2777 3.50978 19.2775 3.50983 19.2774 3.50987L4.62092 8.84277ZM14.6304 18.5596C14.535 18.8235 14.2846 18.9995 14.0041 18.9996C13.7311 18.9998 13.4855 18.8334 13.3845 18.5796L14.6304 18.5596Z" stroke="white"/>
</g>
<defs>
<filter id="filter0_d_72_215" x="0" y="0" width="24" height="23.9995" filterUnits="userSpaceOnUse" color-interpolation-filters="sRGB">
<feFlood flood-opacity="0" result="BackgroundImageFix"/>
<feColorMatrix in="SourceAlpha" type="matrix" values="0 0 0 0 0 0 0 0 0 0 0 0 0 0 0 0 0 0 127 0" result="hardAlpha"/>
<feOffset dy="1"/>
<feGaussianBlur stdDeviation="2"/>
<feColorMatrix type="matrix" values="0 0 0 0 0 0 0 0 0 0 0 0 0 0 0 0 0 0 0.32 0"/>
<feBlend mode="normal" in2="BackgroundImageFix" result="effect1_dropShadow_72_215"/>
<feBlend mode="normal" in="SourceGraphic" in2="effect1_dropShadow_72_215" result="shape"/>
</filter>
</defs>
    </symbol>
    <symbol id="burger" viewBox="0 0 40 40">
        <path d="M6.25 10.625H33.75" stroke-width="2" stroke-linecap="round" stroke-linejoin="round"/>
        <path d="M13.75 16.875H33.75" stroke-width="2" stroke-linecap="round" stroke-linejoin="round"/>
        <path d="M6.25098 23.125H33.75" stroke-width="2" stroke-linecap="round" stroke-linejoin="round"/>
        <path d="M13.751 29.375H33.75" stroke-width="2" stroke-linecap="round" stroke-linejoin="round"/>
    </symbol>
    <symbol id="clock" viewBox="0 0 15 15">
        <g clip-path="url(#clip0_72_132)">
            <path d="M7.5 0C6.01664 0 4.5666 0.439867 3.33323 1.26398C2.09986 2.08809 1.13856 3.25943 0.570907 4.62987C0.00324965 6.00032 -0.145275 7.50832 0.144114 8.96318C0.433503 10.418 1.14781 11.7544 2.1967 12.8033C3.2456 13.8522 4.58197 14.5665 6.03683 14.8559C7.49168 15.1453 8.99968 14.9968 10.3701 14.4291C11.7406 13.8614 12.9119 12.9001 13.736 11.6668C14.5601 10.4334 15 8.98336 15 7.5C14.9979 5.51154 14.207 3.60513 12.8009 2.19907C11.3949 0.793018 9.48847 0.00215068 7.5 0V0ZM8.125 7.42438C8.12507 7.53032 8.0982 7.63454 8.04693 7.72725C7.99565 7.81996 7.92165 7.89812 7.83188 7.95438L5.43188 9.45438C5.36211 9.49796 5.28445 9.52737 5.20332 9.54094C5.12218 9.55451 5.03917 9.55196 4.95902 9.53345C4.87888 9.51493 4.80316 9.48081 4.7362 9.43304C4.66923 9.38526 4.61234 9.32477 4.56875 9.255C4.52517 9.18524 4.49576 9.10757 4.48219 9.02644C4.46862 8.9453 4.47117 8.8623 4.48968 8.78215C4.5082 8.702 4.54231 8.62628 4.59009 8.55932C4.63787 8.49236 4.69836 8.43546 4.76813 8.39188L6.875 7.07813V4.375C6.875 4.20924 6.94085 4.05027 7.05806 3.93306C7.17527 3.81585 7.33424 3.75 7.5 3.75C7.66576 3.75 7.82474 3.81585 7.94195 3.93306C8.05916 4.05027 8.125 4.20924 8.125 4.375V7.42438Z"/>
        </g>
        <defs>
            <clipPath id="clip0_72_132">
                <rect width="15" height="15"/>
            </clipPath>
        </defs>
    </symbol>
    <symbol id="close" viewBox="0 0 1024 1024">
        <path  d="M764.288 214.592 512 466.88 259.712 214.592a31.936 31.936 0 0 0-45.12 45.12L466.752 512 214.528 764.224a31.936 31.936 0 1 0 45.12 45.184L512 557.184l252.288 252.288a31.936 31.936 0 0 0 45.12-45.12L557.12 512.064l252.288-252.352a31.936 31.936 0 1 0-45.12-45.184z"/>
    </symbol>
    <symbol id="diamond" viewBox="0 0 24 24">
        <g clip-path="url(#clip0_72_62)">
            <path d="M13.5688 6L15.5328 11H8.47678L10.4768 6H13.5688ZM17.6808 11H23.9288C23.8309 10.6475 23.6696 10.3157 23.4528 10.021L21.4058 7.228C21.1268 6.84807 20.7624 6.53899 20.3421 6.32569C19.9217 6.11239 19.4571 6.00083 18.9858 6H15.7168L17.6808 11ZM15.6138 13H8.38578L11.9998 23.879L15.6138 13ZM17.7218 13L14.9788 21.255L23.1458 13.923C23.4123 13.6572 23.6273 13.3442 23.7798 13H17.7218ZM6.27778 13H0.229777C0.388674 13.3573 0.612843 13.6819 0.890777 13.957L9.02078 21.257L6.27778 13ZM6.32278 11L8.32278 6H5.01378C4.54241 6.00083 4.07783 6.11239 3.65748 6.32569C3.23713 6.53899 2.87278 6.84807 2.59378 7.228L0.546777 10.021C0.330282 10.3158 0.169319 10.6475 0.0717773 11H6.32278ZM12.9998 0H10.9998V4H12.9998V0ZM19.8438 1.652L18.1558 0.578L16.1558 3.72L17.8438 4.794L19.8438 1.652ZM7.84378 3.72L5.84378 0.578L4.15578 1.652L6.15578 4.794L7.84378 3.72Z"/>
        </g>
        <defs>
            <clipPath id="clip0_72_62">
                <rect width="24" height="24"/>
            </clipPath>
        </defs>
    </symbol>
    <symbol id="phone" viewBox="0 0 15 15">
        <g clip-path="url(#clip0_72_138)">
            <path d="M14.3752 6.87473C14.2094 6.87473 14.0505 6.80888 13.9332 6.69167C13.816 6.57446 13.7502 6.41549 13.7502 6.24973C13.7489 4.92405 13.2217 3.65305 12.2843 2.71565C11.3469 1.77826 10.0759 1.25105 8.75019 1.24973C8.58442 1.24973 8.42545 1.18388 8.30824 1.06667C8.19103 0.949458 8.12519 0.790487 8.12519 0.624727C8.12519 0.458966 8.19103 0.299995 8.30824 0.182785C8.42545 0.0655745 8.58442 -0.0002735 8.75019 -0.0002735C10.4072 0.00154625 11.9959 0.660611 13.1676 1.83232C14.3393 3.00403 14.9984 4.59268 15.0002 6.24973C15.0002 6.41549 14.9343 6.57446 14.8171 6.69167C14.6999 6.80888 14.5409 6.87473 14.3752 6.87473ZM12.5002 6.24973C12.5002 5.25517 12.1051 4.30134 11.4018 3.59808C10.6986 2.89481 9.74475 2.49973 8.75019 2.49973C8.58442 2.49973 8.42545 2.56557 8.30824 2.68279C8.19103 2.8 8.12519 2.95897 8.12519 3.12473C8.12519 3.29049 8.19103 3.44946 8.30824 3.56667C8.42545 3.68388 8.58442 3.74973 8.75019 3.74973C9.41323 3.74973 10.0491 4.01312 10.518 4.48196C10.9868 4.9508 11.2502 5.58669 11.2502 6.24973C11.2502 6.41549 11.316 6.57446 11.4332 6.69167C11.5505 6.80888 11.7094 6.87473 11.8752 6.87473C12.0409 6.87473 12.1999 6.80888 12.3171 6.69167C12.4343 6.57446 12.5002 6.41549 12.5002 6.24973ZM13.8646 13.8522L14.4333 13.1966C14.7953 12.8334 14.9986 12.3416 14.9986 11.8288C14.9986 11.316 14.7953 10.8241 14.4333 10.461C14.4139 10.4416 12.9102 9.28473 12.9102 9.28473C12.5493 8.94118 12.0699 8.74989 11.5716 8.75059C11.0733 8.75129 10.5945 8.94392 10.2346 9.28848L9.04331 10.2922C8.07092 9.88979 7.18761 9.29921 6.44411 8.55443C5.70061 7.80964 5.11157 6.92531 4.71081 5.95223L5.71081 4.76473C6.05563 4.40484 6.2485 3.9259 6.24931 3.42748C6.25012 2.92906 6.05883 2.44949 5.71518 2.08848C5.71518 2.08848 4.55706 0.586602 4.53768 0.567227C4.18109 0.208319 3.69761 0.00411526 3.1917 -0.00126426C2.68579 -0.00664378 2.19808 0.187233 1.83393 0.538477L1.11518 1.16348C-3.13107 6.08973 6.01268 15.1629 11.1014 14.9997C11.6153 15.0027 12.1246 14.9027 12.5991 14.7056C13.0737 14.5085 13.504 14.2184 13.8646 13.8522Z"/>
        </g>
        <defs>
            <clipPath id="clip0_72_138">
                <rect width="15" height="15"/>
            </clipPath>
        </defs>
    </symbol>
    <symbol id="time" viewBox="0 0 24 24">
        <g clip-path="url(#clip0_72_74)">
            <path d="M8.474 11C7.3862 11 6.32283 10.6774 5.41836 10.0731C4.51389 9.46874 3.80894 8.60975 3.39266 7.60476C2.97638 6.59977 2.86746 5.4939 3.07968 4.42701C3.2919 3.36011 3.81572 2.3801 4.58491 1.61092C5.3541 0.841726 6.33411 0.317902 7.401 0.105683C8.4679 -0.106535 9.57377 0.00238308 10.5788 0.418665C11.5838 0.834947 12.4427 1.5399 13.0471 2.44437C13.6514 3.34884 13.974 4.41221 13.974 5.5C13.9724 6.95821 13.3924 8.35623 12.3613 9.38734C11.3302 10.4184 9.9322 10.9984 8.474 11ZM17 10C15.6155 10 14.2622 10.4105 13.111 11.1797C11.9599 11.9489 11.0627 13.0421 10.5328 14.3212C10.003 15.6003 9.86441 17.0078 10.1345 18.3656C10.4046 19.7235 11.0713 20.9708 12.0503 21.9497C13.0292 22.9287 14.2765 23.5954 15.6344 23.8655C16.9922 24.1356 18.3997 23.997 19.6788 23.4672C20.9579 22.9373 22.0511 22.0401 22.8203 20.889C23.5895 19.7379 24 18.3845 24 17C23.9979 15.1441 23.2597 13.3649 21.9474 12.0526C20.6351 10.7403 18.8559 10.0021 17 10ZM19 20.414L16 17.414V13H18V16.586L20.414 19L19 20.414ZM8 17C8.00062 15.6112 8.32486 14.2417 8.947 13H5C3.67441 13.0016 2.40356 13.5289 1.46622 14.4662C0.528882 15.4036 0.00158786 16.6744 0 18L0 24H11.349C10.3029 23.1579 9.45895 22.0919 8.87936 20.8804C8.29977 19.669 7.99928 18.343 8 17Z"/>
        </g>
        <defs>
            <clipPath id="clip0_72_74">
                <rect width="24" height="24"/>
            </clipPath>
        </defs>
    </symbol>
    <symbol id="mail" viewBox="0 0 15 15">
       <g clip-path="url(#clip0_84_634)">
            <path d="M14.9713 3.46387L9.71 8.72512C9.12336 9.31028 8.32859 9.63889 7.5 9.63889C6.67141 9.63889 5.87664 9.31028 5.29 8.72512L0.02875 3.46387C0.02 3.56262 0 3.65199 0 3.75012V11.2501C0.000992411 12.0786 0.330551 12.8729 0.916387 13.4587C1.50222 14.0446 2.2965 14.3741 3.125 14.3751H11.875C12.7035 14.3741 13.4978 14.0446 14.0836 13.4587C14.6694 12.8729 14.999 12.0786 15 11.2501V3.75012C15 3.65199 14.98 3.56262 14.9713 3.46387Z"/>
            <path d="M8.82609 7.84125L14.5348 2.13187C14.2583 1.67332 13.8683 1.29377 13.4023 1.02983C12.9364 0.765889 12.4103 0.626463 11.8748 0.625H3.12484C2.58936 0.626463 2.06328 0.765889 1.59736 1.02983C1.13144 1.29377 0.741393 1.67332 0.464844 2.13187L6.17359 7.84125C6.52583 8.19207 7.00271 8.38904 7.49984 8.38904C7.99698 8.38904 8.47386 8.19207 8.82609 7.84125V7.84125Z"/>
        </g>
        <defs>
            <clipPath id="clip0_84_634">
                <rect width="15" height="15" />
            </clipPath>
        </defs>
    </symbol>
    <symbol id="map" viewBox="0 0 15 15">
        <g clip-path="url(#clip0_72_135)">
            <path d="M8.75004 4.37513C8.75004 4.62235 8.67673 4.86403 8.53938 5.06959C8.40202 5.27515 8.2068 5.43537 7.97839 5.52997C7.74998 5.62458 7.49865 5.64934 7.25618 5.60111C7.0137 5.55288 6.79097 5.43382 6.61616 5.25901C6.44134 5.08419 6.32229 4.86146 6.27406 4.61899C6.22582 4.37651 6.25058 4.12518 6.34519 3.89677C6.4398 3.66836 6.60001 3.47314 6.80558 3.33579C7.01114 3.19844 7.25281 3.12513 7.50004 3.12513C7.83156 3.12513 8.1495 3.25682 8.38392 3.49124C8.61834 3.72566 8.75004 4.0436 8.75004 4.37513ZM10.5988 7.61513L8.68754 9.5095C8.53246 9.66585 8.34797 9.78995 8.14469 9.87464C7.94141 9.95933 7.72338 10.0029 7.50316 10.0029C7.28295 10.0029 7.06491 9.95933 6.86164 9.87464C6.65836 9.78995 6.47386 9.66585 6.31879 9.5095L4.40879 7.62513C3.58864 6.7796 3.12933 5.64834 3.12793 4.47039C3.12653 3.29245 3.58315 2.1601 4.40129 1.31263C4.80339 0.89718 5.28493 0.566833 5.81726 0.341226C6.3496 0.115619 6.92187 -0.000640869 7.50004 -0.000640869C8.07821 -0.000640869 8.65048 0.115619 9.18281 0.341226C9.71515 0.566833 10.1967 0.89718 10.5988 1.31263C11.4157 2.15827 11.8723 3.2881 11.8723 4.46388C11.8723 5.63965 11.4157 6.76948 10.5988 7.61513ZM10 4.37513C10 3.88067 9.85342 3.39732 9.57871 2.9862C9.30401 2.57508 8.91356 2.25465 8.45675 2.06543C7.99993 1.87621 7.49726 1.8267 7.01231 1.92316C6.52736 2.01963 6.0819 2.25773 5.73227 2.60736C5.38264 2.95699 5.14454 3.40245 5.04807 3.8874C4.95161 4.37235 5.00112 4.87502 5.19034 5.33183C5.37956 5.78865 5.69999 6.1791 6.11111 6.4538C6.52224 6.7285 7.00558 6.87513 7.50004 6.87513C8.16308 6.87513 8.79896 6.61173 9.26781 6.14289C9.73665 5.67405 10 5.03817 10 4.37513ZM12.9707 5.75013C12.7426 6.78309 12.2309 7.73197 11.4932 8.49013L9.56941 10.3983C9.29877 10.6696 8.97732 10.8849 8.62342 11.0319C8.26953 11.1789 7.89013 11.2548 7.50691 11.2551C7.1239 11.2553 6.74461 11.1799 6.39072 11.0334C6.03683 10.887 5.71527 10.6722 5.44441 10.4014L3.53004 8.512C2.802 7.76462 2.29104 6.83322 2.05191 5.81763C1.64597 5.96642 1.2748 6.19678 0.961288 6.4945C0.655695 6.78504 0.412772 7.13503 0.247463 7.52293C0.0821531 7.91084 -0.00204821 8.32847 3.78324e-05 8.75013V11.297C0.00135133 11.9728 0.221158 12.6301 0.626657 13.1708C1.03216 13.7115 1.60161 14.1065 2.25004 14.297L4.04379 14.8595C4.34508 14.9533 4.65887 15.0007 4.97441 15.0001C5.26066 14.9998 5.54553 14.9607 5.82129 14.8839L9.43379 13.8151C9.75557 13.727 10.0951 13.727 10.4169 13.8151L11.9088 14.3151C12.2765 14.4046 12.6597 14.4095 13.0295 14.3293C13.3994 14.2492 13.7462 14.0861 14.0438 13.8525C14.3415 13.6188 14.5822 13.3206 14.7478 12.9803C14.9135 12.6401 14.9997 12.2667 15 11.8883V8.67013C14.9979 8.03501 14.8026 7.41556 14.4402 6.89403C14.0777 6.37249 13.5652 5.97354 12.9707 5.75013Z"/>
        </g>
        <defs>
            <clipPath id="clip0_72_135">
                <rect width="15" height="15"/>
            </clipPath>
        </defs>
    </symbol>
    <symbol id="wrench" viewBox="0 0 23 23">
        <path d="M20.2444 13.4946C19.1606 14.5713 17.7786 15.2979 16.2774 15.5807C14.7761 15.8634 13.2245 15.6891 11.8233 15.0805L6.33446 21.4352C6.32101 21.4507 6.30704 21.4658 6.29254 21.4803C5.65949 22.1127 4.80121 22.4678 3.9064 22.4676C3.01159 22.4674 2.15349 22.1118 1.52076 21.4791C0.88803 20.8464 0.532462 19.9883 0.532227 19.0935C0.531992 18.1986 0.88711 17.3404 1.51951 16.7073C1.53403 16.6928 1.54912 16.6788 1.56462 16.6653L7.91942 11.1764C7.30887 9.78349 7.13046 8.23941 7.40728 6.74399C7.68411 5.24857 8.40343 3.87068 9.47213 2.78865C10.5408 1.70662 11.9097 0.970285 13.4016 0.67495C14.8935 0.379614 16.4396 0.538879 17.84 1.13213C17.9672 1.18611 18.0792 1.27051 18.1662 1.3779C18.2532 1.4853 18.3125 1.61241 18.3389 1.74807C18.3653 1.88373 18.3579 2.0238 18.3175 2.15597C18.2771 2.28814 18.2049 2.40837 18.1072 2.50611L14.0009 6.61239L14.3986 8.60115L16.3874 8.99893L20.4937 4.89254C20.5915 4.79485 20.7117 4.72264 20.8439 4.68226C20.976 4.64188 21.1161 4.63456 21.2518 4.66095C21.3874 4.68734 21.5145 4.74663 21.6219 4.83361C21.7293 4.92059 21.8137 5.03261 21.8677 5.15982C22.4621 6.55204 22.6251 8.09058 22.3357 9.57646C22.0463 11.0623 21.3178 12.4272 20.2444 13.4946Z"/>
    </symbol>
</svg>