<svg width="314" height="289" viewBox="0 0 314 289" fill="none" xmlns="http://www.w3.org/2000/svg">
<path d="M-169.636 100.537C-165.819 98.7984 -162.075 96.0245 -158.357 93.9715C-150.085 89.4031 -141.336 85.8056 -133.06 81.2724C-114.121 70.8989 -94.7155 62.3253 -74.8357 53.8253C-56.3368 45.9157 -40.8065 35.876 -20.4209 35.7514C-8.54505 35.6789 4.14403 38.7117 15.3365 49.8197C26.529 60.9277 29.9546 73.8871 30.2458 87.8751C30.6036 105.066 26.1966 118.161 21.2322 134.431C14.8179 155.452 5.52124 174.718 2.49049 196.9C-0.00564534 215.17 -1.49998 227.5 6.00001 245C13.5 262.5 29.3956 276.891 38 282C54 291.5 69 294.5 83 294.5C102.694 292.915 113.967 292.895 132.363 285.825C195.171 261.686 240.936 212.493 296.196 175.411C323.267 157.244 351.16 139.099 382.001 127.936C401.787 120.775 422.336 112.837 443.439 118.163C452.63 120.483 456.61 124.338 464.541 129.445C499.359 161.566 486.277 233.906 491.055 242.15" stroke="white" stroke-opacity="0.06" stroke-width="70" stroke-linecap="round"/>
</svg>
