<svg width="424" height="263" viewBox="0 0 424 263" fill="none" xmlns="http://www.w3.org/2000/svg">
<path d="M-36 228C-36 203.994 -33.1554 193.911 -29.1762 172.3C-21.26 129.307 -0.149808 88.8858 29.3951 76.8893C46.3431 70.0076 66.9416 69.9576 84.8774 76.8893C106.745 85.3406 131.239 100.675 147.106 117.169C163.329 134.031 176.368 144.563 198.285 152.031C209.474 155.844 230.218 161.537 241.877 162.18C254.928 162.9 270.199 157.277 282.446 152.031C316.775 137.326 340.681 101.691 349.276 67.3258C355.29 43.2825 361.892 19.1288 372.123 -3.52236C379.815 -20.5519 388.809 -43.8155 402 -57" stroke="white" stroke-opacity="0.06" stroke-width="70" stroke-linecap="round"/>
</svg>
